<?xml version="1.0" encoding="UTF-8" standalone="no"?>
<!-- Created with Inkscape (http://www.inkscape.org/) -->

<svg
   xmlns:dc="http://purl.org/dc/elements/1.1/"
   xmlns:cc="http://creativecommons.org/ns#"
   xmlns:rdf="http://www.w3.org/1999/02/22-rdf-syntax-ns#"
   xmlns:svg="http://www.w3.org/2000/svg"
   xmlns="http://www.w3.org/2000/svg"
   xmlns:sodipodi="http://sodipodi.sourceforge.net/DTD/sodipodi-0.dtd"
   xmlns:inkscape="http://www.inkscape.org/namespaces/inkscape"
   width="210mm"
   height="297mm"
   viewBox="0 0 210 297"
   version="1.1"
   id="svg8"
   inkscape:version="0.92.3 (2405546, 2018-03-11)"
   sodipodi:docname="book.svg">
  <defs
     id="defs2" />
  <sodipodi:namedview
     id="base"
     pagecolor="#ffffff"
     bordercolor="#666666"
     borderopacity="1.0"
     inkscape:pageopacity="0.0"
     inkscape:pageshadow="2"
     inkscape:zoom="0.35"
     inkscape:cx="-1400"
     inkscape:cy="560"
     inkscape:document-units="mm"
     inkscape:current-layer="layer1"
     showgrid="false"
     inkscape:window-width="3440"
     inkscape:window-height="1372"
     inkscape:window-x="0"
     inkscape:window-y="32"
     inkscape:window-maximized="1" />
  <metadata
     id="metadata5">
    <rdf:RDF>
      <cc:Work
         rdf:about="">
        <dc:format>image/svg+xml</dc:format>
        <dc:type
           rdf:resource="http://purl.org/dc/dcmitype/StillImage" />
        <dc:title></dc:title>
      </cc:Work>
    </rdf:RDF>
  </metadata>
  <g
     inkscape:label="Layer 1"
     inkscape:groupmode="layer"
     id="layer1">
    <g
       id="g75"
       transform="translate(-23.434526,-68.039683)">
      <path
         style="fill=#fff;stroke-width:0.14938952"
         d="m 91.779706,224.41504 c -2.912511,-0.20115 -6.090826,-0.7104 -9.495685,-1.52149 -11.844555,-2.82154 -22.866394,-8.59026 -32.173824,-16.83944 -2.163212,-1.91726 -6.420364,-6.34607 -8.263309,-8.59651 -9.259451,-11.30681 -15.327435,-25.21598 -17.28306,-39.61663 -0.717237,-5.28151 -0.717237,-17.26948 0,-22.551 1.955625,-14.40065 8.023609,-28.30981 17.28306,-39.616625 1.842945,-2.250438 6.100097,-6.679249 8.263309,-8.596506 10.868562,-9.632817 24.238616,-15.945477 38.081098,-17.979959 5.076806,-0.746157 16.600125,-0.746157 21.676935,0 13.84248,2.034482 27.21253,8.347142 38.0811,17.979959 2.16321,1.917257 6.42036,6.346068 8.2633,8.596506 9.25945,11.306815 15.32744,25.215975 17.28306,39.616625 0.71725,5.28152 0.71725,17.26949 0,22.551 -1.95562,14.40065 -8.02361,28.30982 -17.28306,39.61663 -1.84294,2.25044 -6.10009,6.67925 -8.2633,8.59651 -9.19082,8.14583 -20.07914,13.88489 -31.78307,16.75234 -3.53937,0.86715 -6.77669,1.38098 -10.16549,1.61348 -2.64151,0.18123 -11.570425,0.17815 -14.221064,-0.005 z m 12.213544,-2.27939 c 2.63346,-0.24549 5.73285,-0.60811 6.46084,-0.75593 0.3625,-0.0736 1.12046,-0.21561 1.68436,-0.31555 6.47256,-1.14717 14.4585,-3.98727 20.43197,-7.26638 6.785,-3.72459 12.12596,-7.77842 17.48329,-13.26997 5.65558,-5.79727 9.86112,-11.693 13.60247,-19.06924 3.152,-6.21433 5.88202,-14.5223 6.98473,-21.25585 0.0961,-0.58663 0.23256,-1.37515 0.30332,-1.75227 0.14209,-0.75735 0.49066,-3.98171 0.72663,-6.72136 0.0838,-0.9731 0.15238,-3.29673 0.15238,-5.16363 0,-1.86689 -0.0686,-4.19052 -0.15238,-5.16363 -0.23597,-2.73964 -0.58454,-5.96401 -0.72663,-6.72135 -0.0708,-0.37712 -0.20725,-1.16565 -0.30332,-1.75228 -1.10271,-6.73355 -3.83273,-15.04151 -6.98473,-21.25584 -3.74135,-7.37625 -7.94689,-13.271978 -13.60247,-19.069245 -5.35733,-5.491547 -10.69829,-9.545382 -17.48329,-13.269973 -5.97347,-3.279102 -13.95941,-6.119206 -20.43197,-7.266379 -0.5639,-0.09994 -1.32186,-0.241935 -1.68436,-0.31554 -0.72799,-0.147815 -3.82738,-0.510451 -6.46084,-0.755932 -2.18892,-0.204043 -7.738062,-0.204043 -9.926979,0 -2.633455,0.245481 -5.732845,0.608117 -6.460839,0.755932 -0.362503,0.07361 -1.120463,0.215598 -1.684357,0.31554 -6.472559,1.147173 -14.458506,3.987277 -20.431973,7.266379 -6.785005,3.724591 -12.125962,7.778426 -17.483293,13.269973 -5.655579,5.797267 -9.86112,11.692995 -13.602464,19.069245 -3.152005,6.21433 -5.882028,14.52229 -6.984737,21.25584 -0.09607,0.58663 -0.232558,1.37516 -0.303309,1.75228 -0.142087,0.75734 -0.490666,3.98171 -0.726633,6.72135 -0.196135,2.27718 -0.196135,8.05008 0,10.32726 0.235967,2.73965 0.584546,5.96401 0.726633,6.72136 0.07075,0.37712 0.20724,1.16564 0.303309,1.75227 1.102709,6.73355 3.832732,15.04152 6.984737,21.25585 3.580227,7.05859 7.476936,12.61491 12.755632,18.18826 5.572567,5.88363 11.239783,10.25875 18.330125,14.15095 5.973467,3.27911 13.959414,6.11921 20.431973,7.26638 0.563894,0.0999 1.321854,0.24243 1.684357,0.31662 0.648802,0.1328 3.641478,0.48879 6.224794,0.74046 1.935907,0.18861 8.198954,0.19748 10.163024,0.0145 z M 57.329684,182.10616 c -1.022492,-1.15079 -2.516629,-3.53244 -4.623565,-7.36994 -1.075841,-1.9595 -4.285336,-7.47106 -7.132212,-12.24791 -4.894014,-8.2118 -6.065298,-10.18126 -11.637298,-19.56753 -1.264608,-2.13028 -2.399422,-4.07469 -2.52181,-4.3209 -0.327726,-0.65931 -0.157295,-1.11786 0.496961,-1.33709 0.799324,-0.26785 0.915477,-0.41328 0.915477,-1.14626 0,-0.36292 0.06046,-0.81735 0.134363,-1.00985 0.0739,-0.19251 0.246583,-0.86426 0.38374,-1.4928 0.467787,-2.14367 1.364323,-3.48831 2.729888,-4.09433 0.376663,-0.16715 1.563035,-0.91512 2.636383,-1.66215 10.533654,-7.33118 16.244046,-10.32 22.383518,-11.71551 2.303763,-0.52365 6.290876,-0.6612 8.387719,-0.28938 2.736824,0.48531 5.98277,1.88155 8.03436,3.45596 0.53347,0.40938 1.008351,0.74434 1.055295,0.74434 0.04694,0 0.475404,-0.5314 0.952133,-1.18088 2.592482,-3.53193 6.510265,-5.97096 11.177523,-6.9586 3.15619,-0.66788 4.048641,-0.72363 13.820071,-0.86337 5.23615,-0.0749 9.91573,-0.19565 10.39907,-0.26836 0.48333,-0.0727 1.3629,-0.21688 1.95459,-0.32038 0.59169,-0.10349 1.18488,-0.15702 1.31819,-0.11895 0.13332,0.0381 2.15377,1.4362 4.4899,3.10696 5.40865,3.86816 7.31946,5.22084 12.81576,9.07238 2.45696,1.72172 5.17433,3.63618 6.03859,4.25437 0.86427,0.61818 2.53912,1.80964 3.7219,2.64768 1.18279,0.83805 4.29585,3.11791 6.91793,5.06636 3.32385,2.46994 4.88423,3.54264 5.15319,3.54264 0.21218,0 0.50283,0.13455 0.64589,0.29901 0.14306,0.16445 0.47967,0.37439 0.74803,0.46653 0.65225,0.22394 0.72059,0.55463 0.3633,1.75802 -0.16543,0.5572 -0.30078,1.30448 -0.30078,1.66061 v 0.64753 l 1.35481,0.9261 c 1.47516,1.00837 4.52456,3.43846 5.41246,4.31323 0.6441,0.63458 0.69259,1.04201 0.33378,2.80432 -0.11944,0.5866 -0.21716,1.39396 -0.21716,1.79414 0,0.90325 -0.031,0.91768 -2.48992,1.15956 -1.00695,0.0991 -2.35809,0.24339 -3.00254,0.32073 -1.65088,0.19815 -3.78819,0.43027 -4.90661,0.5329 -0.52361,0.048 -1.4793,0.15004 -2.12375,0.22666 -0.64445,0.0766 -1.89673,0.21866 -2.78285,0.31564 -1.41064,0.15439 -3.07376,0.35816 -7.39652,0.90627 -0.60417,0.0766 -1.92236,0.24242 -2.92932,0.36848 -1.00695,0.12606 -2.58878,0.3299 -3.51517,0.45299 -1.63989,0.21787 -4.36065,0.55662 -6.88389,0.85707 -4.25416,0.50656 -5.34331,0.661 -6.59096,0.93456 -2.61398,0.57315 -3.63924,1.03019 -6.44254,2.87197 -4.44989,2.92358 -6.51447,3.42592 -11.48475,2.79441 -3.40535,-0.43267 -5.10549,-0.0301 -10.926469,2.58699 -1.570845,0.70626 -4.866325,2.08903 -7.323288,3.07284 -10.626825,4.25514 -18.481429,7.69547 -24.846533,10.88281 -2.025226,1.01414 -3.765835,1.84389 -3.86802,1.84389 -0.102185,0 -0.475174,-0.32569 -0.828866,-0.72376 z m 4.922953,-4.78697 c 1.095328,-0.60058 4.430161,-2.54473 7.410739,-4.32033 4.912609,-2.92656 9.533209,-5.47774 11.863726,-6.55034 4.569776,-2.1032 9.017559,-3.5073 13.484214,-4.25678 0.800412,-0.13431 1.850752,-0.3107 2.334089,-0.392 0.828655,-0.13937 5.714195,-0.45315 7.066975,-0.45388 l 0.62248,-3.4e-4 v -0.83054 c 0,-1.82787 0.51147,-3.26399 2.09853,-5.89235 0.53749,-0.89014 0.97725,-1.66152 0.97725,-1.71418 0,-0.0527 -0.13414,-0.0957 -0.29809,-0.0957 -0.16394,0 -0.4738,-0.11978 -0.68857,-0.26618 -0.33438,-0.22792 -0.85131,-0.27416 -3.59703,-0.32175 -4.836443,-0.0838 -8.425887,0.47239 -13.191958,2.04424 -4.764701,1.5714 -9.064766,3.61897 -18.328164,8.72735 -2.980578,1.64366 -6.671515,3.64167 -8.202083,4.44001 l -2.782849,1.45154 -0.106372,1.0666 c -0.0585,0.58663 -0.181492,1.71799 -0.273304,2.51413 -0.09181,0.79614 -0.187851,2.06464 -0.21342,2.81888 -0.02557,0.75424 -0.115177,1.67989 -0.19913,2.05701 -0.179422,0.80598 -0.195103,1.06661 -0.06417,1.06661 0.0526,0 0.991809,-0.49139 2.087137,-1.09196 z m -3.432893,-6.34341 0.245218,-2.63565 -2.407091,-3.76396 C 55.33397,162.506 52.483701,157.86383 50.323938,154.26024 42.369258,140.98776 39.89075,136.95954 37.309902,133.10908 l -1.0022,-1.49522 -0.344024,0.33622 c -0.493481,0.4823 -1.114123,2.61346 -1.105774,3.79701 0.0021,0.29331 -0.06155,0.74956 -0.141378,1.01389 -0.159681,0.52872 -0.975767,-0.91209 8.703403,15.36606 2.420323,4.07043 8.864508,14.66895 14.128515,23.23667 l 0.514895,0.83805 0.255593,-1.29516 c 0.140576,-0.71234 0.365941,-2.48121 0.500812,-3.93082 z m 4.05867,-5.03552 c 1.315044,-0.65747 4.994418,-2.63231 8.176387,-4.38855 13.390544,-7.39069 19.083861,-9.70884 26.583535,-10.82402 1.862807,-0.277 7.965544,-0.37854 9.044264,-0.15049 0.30208,0.0639 0.54924,0.0604 0.54924,-0.008 0,-0.0681 -1.56064,-1.63113 -3.46809,-3.47336 -1.90745,-1.84224 -4.462458,-4.34375 -5.677794,-5.55891 -1.215336,-1.21516 -4.647345,-4.64844 -7.626689,-7.62949 -7.439279,-7.44356 -12.891149,-12.75764 -13.765535,-13.41761 -1.937854,-1.46267 -4.697964,-2.66736 -7.079627,-3.09001 -7.061476,-1.25312 -14.339785,1.14568 -25.069607,8.26251 -2.534026,1.68075 -6.719833,4.55177 -6.938394,4.759 -0.07025,0.0666 0.457113,1.00068 1.171928,2.07571 2.343805,3.52493 4.7666,7.44984 10.8944,17.64889 6.591235,10.97037 10.359795,16.98943 10.637161,16.98943 0.09781,0 1.253777,-0.53792 2.568821,-1.19538 z m 54.979086,-8.72347 c 2.69603,-2.90654 6.76856,-4.76915 13.24826,-6.0592 3.56376,-0.70952 13.93915,-1.23589 24.42317,-1.23905 3.40106,-0.001 3.16435,0.14134 2.617,-1.57393 -0.54715,-1.71463 -0.78601,-2.69566 -0.89688,-3.68362 -0.0564,-0.50274 -0.19464,-1.0993 -0.30718,-1.32569 -0.11943,-0.24028 -0.2046,-0.86709 -0.2046,-1.50584 v -1.09423 l -0.62248,0.0972 c -2.85047,0.44529 -4.45251,0.54518 -16.22108,1.01146 -6.48539,0.25695 -8.78699,0.47422 -12.08444,1.14078 -6.7552,1.36552 -11.35956,3.94694 -14.94018,8.37616 -1.20776,1.494 -2.56147,3.46221 -2.56147,3.72422 0,0.24674 0.54735,0.19808 1.58756,-0.14114 1.32567,-0.43231 2.89727,-0.41408 3.54659,0.0411 0.47263,0.33135 1.08053,1.34134 1.42365,2.36531 0.0904,0.26981 0.22035,0.49057 0.28875,0.49057 0.0684,0 0.3849,-0.28088 0.70333,-0.62418 z m -6.36471,-7.48961 c 4.63713,-5.65438 11.54937,-8.76697 21.37056,-9.62318 3.26688,-0.2848 7.69188,-0.51886 11.76947,-0.62254 6.04007,-0.15358 10.75011,-0.53035 10.56319,-0.84499 -0.25885,-0.43571 -11.90323,-8.87393 -21.96649,-15.91824 -2.49724,-1.74808 -6.91319,-4.86784 -9.81321,-6.9328 -2.90002,-2.06496 -5.35178,-3.80275 -5.44835,-3.86176 -0.0966,-0.059 -0.61808,-0.0337 -1.15891,0.0562 -2.5324,0.42087 -3.80093,0.48164 -12.57975,0.60269 -8.319873,0.11472 -9.587895,0.16419 -11.277868,0.43995 -4.096841,0.66852 -6.926754,1.78953 -9.296654,3.68267 -1.641084,1.31094 -3.665566,3.62988 -3.665566,4.19871 0,0.19407 0.653587,0.86236 5.126302,5.2416 1.570845,1.53801 3.778816,3.72913 4.906603,4.86914 8.7054,8.7998 17.823333,17.71587 18.727423,18.31282 0.33333,0.22009 0.81464,0.64863 1.06957,0.95232 0.25494,0.30369 0.53197,0.55216 0.61562,0.55216 0.0837,0 0.55979,-0.49711 1.05806,-1.1047 z"
         id="path89"
         inkscape:connector-curvature="0" />
      <path
         style="fill=#fff;stroke-width:0.14938952"
         d="m 92.804966,224.40981 c -3.263704,-0.31643 -4.537676,-0.47902 -6.590959,-0.8412 C 71.046197,220.89322 56.980435,213.2918 45.935079,201.80107 34.889918,190.31054 27.571075,175.65255 25.012562,159.89799 c -0.72021,-4.43484 -0.973271,-7.90144 -0.973271,-13.33252 0,-5.43108 0.253061,-8.89767 0.973271,-13.33252 2.558513,-15.75455 9.877356,-30.41254 20.922517,-41.903074 11.04516,-11.49053 25.135011,-19.104488 40.278928,-21.766167 4.262949,-0.749251 7.59518,-1.012516 12.815754,-1.012516 5.220579,0 8.552809,0.263265 12.815759,1.012516 15.14391,2.661679 29.23376,10.275637 40.27892,21.766167 11.04516,11.490534 18.36401,26.148524 20.92253,41.903074 0.7202,4.43485 0.97326,7.90144 0.97326,13.33252 0,5.43108 -0.25306,8.89768 -0.97326,13.33252 -2.55852,15.75456 -9.87737,30.41255 -20.92253,41.90308 -11.04516,11.49053 -25.13501,19.10449 -40.27892,21.76617 -2.1779,0.38278 -3.5516,0.55532 -6.81925,0.85648 -1.97375,0.18192 -10.299275,0.17244 -12.221304,-0.0139 z m 11.424334,-2.18682 c 6.69264,-0.52666 11.41496,-1.50272 17.86882,-3.69331 10.53306,-3.57517 20.42772,-9.94041 28.48957,-18.32733 10.65564,-11.0853 17.69949,-25.16991 20.2709,-40.53292 1.68869,-10.08916 1.41742,-20.32138 -0.80573,-30.39201 -0.69893,-3.16605 -2.00957,-7.51536 -3.21601,-10.67214 -7.42816,-19.43668 -22.2473,-34.853368 -40.93062,-42.581054 -3.03443,-1.255083 -7.21516,-2.618579 -10.2585,-3.345686 -11.00497,-2.629284 -22.230971,-2.629284 -33.235941,0 -3.043334,0.727107 -7.224066,2.090603 -10.258495,3.345686 -18.683318,7.727686 -33.502459,23.144374 -40.930623,42.581054 -1.206436,3.15678 -2.517083,7.50609 -3.216008,10.67214 -2.527373,11.44872 -2.527373,23.12739 0,34.5761 0.698925,3.16605 2.009572,7.51536 3.216008,10.67215 7.428164,19.43668 22.247305,34.85336 40.930623,42.58105 3.034429,1.25508 7.215161,2.61858 10.258495,3.34569 7.216238,1.72409 14.695328,2.33105 21.817511,1.77058 z M 57.295728,181.82041 c -0.99335,-1.13071 -2.507594,-3.55773 -4.55126,-7.29474 -0.916604,-1.67609 -4.443014,-7.71001 -7.836463,-13.40871 -10.900097,-18.30478 -13.291136,-22.35879 -13.456566,-22.81563 -0.143249,-0.39557 -0.121895,-0.48149 0.183681,-0.73907 0.190176,-0.1603 0.499357,-0.29146 0.687069,-0.29146 0.430376,0 0.549648,-0.20227 0.577948,-0.98015 0.03072,-0.84427 0.76757,-3.65997 1.18328,-4.5216 0.514473,-1.06632 1.017682,-1.60251 1.936173,-2.06305 0.459501,-0.2304 1.69228,-1.011 2.73951,-1.73467 3.219319,-2.22465 7.823146,-5.23824 9.593507,-6.27973 7.432574,-4.37257 13.378741,-6.22844 18.894084,-5.89708 1.087508,0.0653 2.33979,0.19437 2.782849,0.28675 2.438063,0.50831 5.52684,1.90244 7.46624,3.36992 0.548053,0.41469 1.058469,0.75399 1.134255,0.75399 0.07579,0 0.360182,-0.3257 0.631992,-0.72377 2.977125,-4.36006 7.251852,-6.81754 13.616172,-7.82774 1.758108,-0.27906 3.024483,-0.32815 11.424331,-0.4428 5.19587,-0.0709 9.87545,-0.19519 10.39907,-0.27615 0.52361,-0.081 1.51997,-0.23479 2.21412,-0.34185 l 1.26209,-0.19466 5.54857,3.96335 c 3.05171,2.17984 7.59176,5.39306 10.089,7.14047 8.0814,5.65486 13.66898,9.65731 18.43738,13.20693 3.37136,2.50965 4.78141,3.47607 5.07176,3.47607 0.22118,0 0.4926,0.11348 0.60316,0.25216 0.11056,0.13869 0.41809,0.34656 0.6834,0.46193 0.26531,0.11538 0.52072,0.3137 0.56758,0.44073 0.0469,0.12702 -0.0549,0.67483 -0.22607,1.21736 -0.1712,0.54252 -0.31126,1.28862 -0.31126,1.658 v 0.6716 l 1.64774,1.17591 c 2.10549,1.50259 5.46979,4.25546 5.58615,4.57091 0.14412,0.39069 0.0944,1.28799 -0.1303,2.35062 -0.11518,0.54473 -0.21173,1.2833 -0.21456,1.64126 -0.004,0.52797 -0.0674,0.67802 -0.33469,0.79479 -0.18125,0.0792 -3.92162,0.52723 -8.31193,0.99571 -4.39031,0.46849 -11.67332,1.32573 -16.18447,1.90498 -4.51115,0.57926 -9.718,1.22909 -11.57079,1.44408 -7.50226,0.87052 -8.73777,1.24209 -12.66264,3.80815 -4.32468,2.82745 -6.59694,3.37944 -11.2404,2.73057 -3.4743,-0.48549 -5.19326,-0.0606 -11.761378,2.90742 -1.248621,0.56422 -4.5441,1.93551 -7.323288,3.04731 -10.173765,4.06995 -17.800428,7.41472 -24.114204,10.57559 -2.025226,1.01389 -3.74874,1.84344 -3.830029,1.84344 -0.08129,0 -0.486655,-0.38571 -0.900813,-0.85714 z m 11.855018,-8.35632 c 6.10298,-3.62933 6.261755,-3.71994 9.300575,-5.30759 6.386759,-3.33681 11.511035,-5.0738 17.795591,-6.03224 2.0674,-0.3153 5.493658,-0.61714 7.616218,-0.67098 l 1.24496,-0.0316 0.0907,-1.21898 c 0.15569,-2.0925 0.45695,-2.89242 2.12293,-5.63704 0.51446,-0.84755 0.93538,-1.62298 0.93538,-1.72318 0,-0.10019 -0.16709,-0.18217 -0.37131,-0.18217 -0.20423,0 -0.53473,-0.11139 -0.73444,-0.24752 -0.49099,-0.33468 -5.41862,-0.4755 -7.90189,-0.22582 -7.562533,0.76038 -13.846381,3.24298 -28.048194,11.08117 -3.181968,1.75618 -6.790103,3.70082 -8.018075,4.32144 -1.227973,0.62061 -2.262018,1.23519 -2.297877,1.36572 -0.03586,0.13053 -0.106009,0.7173 -0.155885,1.30393 -0.04988,0.58663 -0.191427,1.98111 -0.314555,3.09885 -0.123128,1.11773 -0.187801,2.18175 -0.143716,2.36447 0.04408,0.18274 -0.01613,0.81096 -0.133801,1.39607 -0.359559,1.7878 -0.474412,1.76175 1.946416,0.44151 1.188203,-0.64801 4.368341,-2.49124 7.066973,-4.09607 z m -10.574644,0.68065 c 0.09027,-0.54473 0.267926,-2.0836 0.394784,-3.41972 l 0.230648,-2.42931 -1.817826,-2.82752 c -2.448986,-3.80924 -2.640339,-4.12206 -9.512416,-15.55054 -5.051437,-8.4007 -9.02347,-14.80821 -11.024104,-17.78361 -0.237347,-0.35299 -0.512992,-0.6444 -0.612544,-0.64758 -0.536995,-0.0171 -1.503352,2.73542 -1.503352,4.28215 0,0.3993 -0.07195,0.89028 -0.15989,1.09107 -0.145253,0.33164 0.352531,1.22853 5.437479,9.79704 3.078553,5.18759 8.439748,14.08042 11.913768,19.76186 l 6.316397,10.32988 0.08646,-0.80666 c 0.04755,-0.44365 0.16032,-1.25233 0.250594,-1.79706 z m 4.310813,-8.05194 c 1.310367,-0.65737 4.985917,-2.63263 8.167886,-4.38948 7.541388,-4.16379 11.971109,-6.39288 15.305672,-7.70199 6.672242,-2.61946 11.905391,-3.63527 17.575887,-3.41166 1.45002,0.0572 2.79449,0.11793 2.98773,0.13499 0.19324,0.0171 0.37698,-0.0453 0.40832,-0.13864 0.0313,-0.0933 -1.70859,-1.88093 -3.86652,-3.97247 -2.15792,-2.09154 -6.658747,-6.54248 -10.001828,-9.89099 -10.68068,-10.69801 -15.64449,-15.54938 -16.77033,-16.39047 -1.159648,-0.86634 -3.144744,-1.92169 -4.532863,-2.40982 -6.497813,-2.28497 -14.214004,-0.6263 -23.735029,5.10206 -2.46852,1.4852 -10.320721,6.75721 -10.883627,7.30732 -0.155593,0.15206 0.34107,1.01551 2.641179,4.59172 1.558042,2.42245 5.527951,8.8956 8.822018,14.38479 6.817862,11.36119 10.971954,17.97986 11.284747,17.97986 0.117848,0 1.286389,-0.53785 2.596758,-1.19522 z m 54.850335,-8.56971 c 0.55825,-0.69019 2.23498,-2.04355 3.48237,-2.81077 1.08844,-0.66945 3.3513,-1.72992 4.32044,-2.02475 1.98839,-0.60489 2.73473,-0.80474 4.02781,-1.0785 4.72504,-1.00038 13.45525,-1.53567 25.08686,-1.53821 3.18897,-7.6e-4 3.86301,-0.0379 3.92911,-0.21713 0.0439,-0.11896 -0.15911,-0.98505 -0.45109,-1.92464 -0.29197,-0.93959 -0.61534,-2.29931 -0.7186,-3.0216 -0.10326,-0.7223 -0.26484,-1.46303 -0.35908,-1.64608 -0.0942,-0.18305 -0.17133,-0.86035 -0.17133,-1.5051 v -1.17228 l -0.54925,0.091 c -2.49812,0.41411 -7.4503,0.73492 -14.46349,0.93696 -9.86516,0.2842 -15.22967,1.06293 -19.78529,2.8721 -4.63443,1.84047 -7.85921,4.49992 -11.07649,9.1347 -1.2791,1.84266 -1.15032,2.07047 0.8363,1.47944 1.21977,-0.36288 2.83901,-0.40054 3.43507,-0.0799 0.46457,0.24992 0.87866,0.87568 1.26282,1.90833 0.45485,1.22268 0.62037,1.30536 1.19384,0.59635 z m -5.98934,-7.86763 c 4.44104,-5.25686 10.46627,-8.13648 19.35785,-9.25164 2.1925,-0.27497 8.97733,-0.69789 11.1314,-0.69385 3.96952,0.007 12.93827,-0.60103 13.22286,-0.89709 0.22027,-0.22915 -11.44163,-8.75013 -22.81637,-16.6712 -1.93334,-1.34633 -5.88792,-4.13881 -8.78794,-6.20552 -2.90002,-2.06671 -5.44897,-3.87598 -5.66434,-4.0206 -0.33981,-0.2282 -0.50435,-0.24044 -1.24495,-0.0926 -2.02552,0.4043 -3.69898,0.48475 -12.57066,0.60426 -8.306295,0.1119 -9.591019,0.16149 -11.281136,0.43548 -5.351696,0.86756 -8.484726,2.37405 -11.361122,5.4629 -1.233535,1.32465 -1.941837,2.34819 -1.866845,2.69771 0.02713,0.12644 1.334559,1.48015 2.905404,3.00826 2.49131,2.42354 8.41128,8.31638 15.749344,15.67719 2.232335,2.23925 7.767975,7.63761 8.993395,8.77035 0.36799,0.34016 0.9029,0.76573 1.18869,0.9457 0.28579,0.17998 0.73682,0.60841 1.00229,0.95208 0.29092,0.3766 0.58225,0.60624 0.7333,0.57801 0.13784,-0.0258 0.72681,-0.6105 1.30883,-1.29943 z"
         id="path87"
         inkscape:connector-curvature="0" />
      <path
         style="fill=#fff;stroke-width:0.14938952"
         d="m 93.976692,224.42331 c -0.322224,-0.0719 -1.014275,-0.13494 -1.53789,-0.14009 -2.112596,-0.0207 -7.191714,-0.86274 -11.054121,-1.83253 -11.452867,-2.87564 -22.068096,-8.51914 -31.128019,-16.54895 -2.163211,-1.91726 -6.420363,-6.34607 -8.263308,-8.59651 -10.194725,-12.44888 -16.394311,-27.79541 -17.696797,-43.80685 -0.2238,-2.75118 -0.2238,-11.11464 0,-13.86582 1.032086,-12.68741 5.184739,-25.12689 11.979296,-35.88457 1.530949,-2.42392 3.878016,-5.676058 5.717501,-7.922273 1.842945,-2.250438 6.100097,-6.679249 8.263308,-8.596507 11.966369,-10.605803 26.718065,-17.055372 42.108907,-18.410377 2.644543,-0.232825 10.683841,-0.232825 13.328381,0 12.19566,1.073702 24.15299,5.393801 34.4937,12.462332 2.32997,1.59268 5.45606,4.034387 7.61521,5.948045 2.16321,1.917258 6.42036,6.346069 8.26331,8.596507 7.71858,9.425243 13.14334,20.468503 15.90752,32.383183 1.48684,6.40881 1.96281,10.86022 1.96281,18.35657 0,7.49636 -0.47597,11.94777 -1.96281,18.35658 -2.76418,11.91467 -8.18894,22.95794 -15.90752,32.38318 -1.84295,2.25044 -6.1001,6.67925 -8.26331,8.59651 -5.58934,4.95383 -11.88424,9.07448 -18.50247,12.11174 -7.4146,3.40272 -15.65104,5.61087 -23.45997,6.28951 -2.29455,0.1994 -11.108725,0.2888 -11.863728,0.12032 z m 11.351098,-2.20451 c 14.47569,-1.34174 27.61556,-6.75946 38.95989,-16.06362 4.20449,-3.44835 8.70264,-8.12798 12.02184,-12.50687 8.07297,-10.65035 13.17719,-23.03641 15.00714,-36.41682 0.87439,-6.39335 0.87439,-14.93869 0,-21.33203 -1.98408,-14.50735 -7.86156,-27.9285 -17.11563,-39.083328 -1.50682,-1.816318 -5.08144,-5.554199 -6.9108,-7.226435 -10.81843,-9.889231 -23.82608,-16.126795 -38.00787,-18.225925 -6.14554,-0.909638 -14.359662,-0.909638 -20.505202,0 -14.181788,2.09913 -27.18944,8.336694 -38.007865,18.225925 -1.829361,1.672236 -5.403978,5.410117 -6.9108,7.226435 -9.254068,11.154828 -15.131553,24.575978 -17.115638,39.083328 -0.87438,6.39334 -0.87438,14.93868 0,21.33203 2.017769,14.75363 8.013567,28.28579 17.519494,39.54044 1.607421,1.90312 5.200422,5.62188 6.946341,7.18946 11.723007,10.52556 25.943351,16.80061 41.376577,18.25837 2.857783,0.26993 9.825633,0.26941 12.742523,-0.002 z M 57.100565,181.49667 c -1.089859,-1.3915 -2.370553,-3.48621 -4.346946,-7.10988 -0.910111,-1.66867 -4.273646,-7.42832 -7.474521,-12.79922 -12.338365,-20.70313 -13.770053,-23.15463 -13.770053,-23.57872 0,-0.36562 0.08366,-0.44009 0.695712,-0.61934 l 0.695713,-0.20375 0.09087,-0.9098 c 0.11545,-1.15592 0.773475,-3.71439 1.155883,-4.49419 0.467564,-0.95346 1.127533,-1.62944 2.01937,-2.06836 0.456214,-0.22452 1.786393,-1.07233 2.955954,-1.88402 7.098206,-4.92621 11.229543,-7.40384 15.454857,-9.26852 7.916629,-3.49369 14.478607,-3.67597 20.431974,-0.56756 0.765284,0.39957 1.872827,1.09142 2.461206,1.53743 0.588381,0.44601 1.148613,0.77771 1.244959,0.73711 0.09635,-0.0406 0.405861,-0.42862 0.687808,-0.86226 2.162139,-3.32537 5.917743,-5.86635 10.399069,-7.03584 3.345337,-0.87303 5.087291,-1.00017 14.67136,-1.07078 8.09339,-0.0596 9.8492,-0.14974 12.40209,-0.63643 l 1.22225,-0.23301 0.82827,0.59919 c 2.89752,2.09613 10.63303,7.59227 12.9117,9.17387 6.04279,4.19423 16.3007,11.53306 20.49077,14.65974 3.19388,2.3833 4.56566,3.3227 4.85205,3.3227 0.21961,0 0.48534,0.10787 0.59051,0.2397 0.10517,0.13183 0.44278,0.37321 0.75026,0.53639 0.66022,0.3504 0.68066,0.51235 0.25059,1.98535 -0.43926,1.50449 -0.32783,1.95376 0.64229,2.58955 1.07684,0.70574 3.29295,2.40976 4.99312,3.83934 l 1.44562,1.21554 -0.0913,1.15858 c -0.22365,2.83799 -0.27874,3.30256 -0.41203,3.47478 -0.1806,0.23334 0.53651,0.14273 -10.66322,1.34733 -3.50419,0.3769 -9.79856,1.12659 -13.98748,1.66599 -4.18892,0.5394 -9.13214,1.1581 -10.98493,1.37488 -8.11011,0.94894 -9.33564,1.31099 -13.38121,3.95309 -4.11184,2.68538 -6.34517,3.28253 -10.35215,2.76794 -4.3891,-0.56365 -5.58867,-0.30657 -12.004286,2.57267 -1.450011,0.65074 -4.670769,1.99891 -7.157243,2.99592 -10.876371,4.36113 -18.348835,7.62797 -24.655277,10.7789 -2.0301,1.01431 -3.81866,1.8442 -3.974574,1.8442 -0.172771,0 -0.598077,-0.40167 -1.089033,-1.02851 z m 5.153083,-3.94681 c 1.175328,-0.64131 4.377887,-2.50167 7.116796,-4.13412 7.47563,-4.45564 11.798435,-6.71497 15.891535,-8.30578 5.649618,-2.19576 12.137051,-3.45352 17.836801,-3.45812 1.43018,-0.001 1.95884,-0.052 1.99652,-0.19204 0.0282,-0.10475 0.11911,-0.80757 0.20205,-1.56181 0.19999,-1.81854 0.55184,-2.73181 1.94211,-5.04091 0.64026,-1.06341 1.16411,-1.98493 1.16411,-2.04781 0,-0.0629 -0.18125,-0.1499 -0.40278,-0.19335 -0.22153,-0.0434 -0.67727,-0.18602 -1.01276,-0.31681 -0.88249,-0.34403 -4.77452,-0.48392 -7.152707,-0.25708 -7.932186,0.75661 -14.086896,3.12448 -27.85962,10.7183 -2.96346,1.63396 -6.651531,3.62724 -8.195715,4.42952 -1.544182,0.80228 -2.850243,1.53045 -2.902354,1.61817 -0.118635,0.1997 -0.491203,3.85483 -0.660456,6.47951 -0.07025,1.08945 -0.19805,2.22036 -0.283989,2.51312 -0.200789,0.68402 -0.197349,0.91524 0.01362,0.91524 0.09343,0 1.131506,-0.52471 2.306836,-1.16603 z m -3.751129,-1.76712 c 0.04169,-0.60759 0.175315,-1.85894 0.296957,-2.78079 0.121641,-0.92185 0.265784,-2.39604 0.320319,-3.27599 l 0.09916,-1.5999 -1.065726,-1.5999 c -1.721439,-2.58429 -4.1589,-6.55587 -10.261206,-16.71955 -5.276596,-8.78842 -9.48197,-15.55358 -10.978565,-17.66113 l -0.598761,-0.8432 -0.36622,0.35585 c -0.201421,0.19572 -0.453505,0.53031 -0.560187,0.74354 -0.313828,0.62725 -0.671389,2.24474 -0.814634,3.68513 l -0.133368,1.34107 5.721612,9.63516 c 6.055985,10.19824 18.012694,29.82257 18.170991,29.82372 0.05161,3e-4 0.127947,-0.49643 0.169632,-1.10401 z m 4.578683,-9.69123 c 1.445179,-0.74189 4.766173,-2.53281 7.379986,-3.97983 11.687896,-6.47048 16.951632,-8.85014 22.709943,-10.26684 4.042872,-0.99466 6.174529,-1.22187 10.654319,-1.13563 1.9622,0.0378 3.59995,0.0143 3.63944,-0.0522 0.0993,-0.16709 -0.39355,-0.67736 -4.33409,-4.48756 -2.94031,-2.84306 -6.989631,-6.86471 -16.255109,-16.14402 -4.65124,-4.65818 -9.388549,-9.20597 -10.255192,-9.84492 -2.001648,-1.47576 -4.823488,-2.64131 -7.542986,-3.1156 -1.874977,-0.327 -5.339114,-0.21314 -7.396521,0.24312 -4.808877,1.06644 -9.853209,3.3593 -15.633729,7.10617 -3.71546,2.40833 -8.679588,5.89931 -8.679588,6.10385 0,0.12199 0.576321,1.0913 1.280712,2.15401 2.371011,3.57714 5.08513,7.9778 10.871197,17.62649 6.22298,10.37727 10.466632,17.14181 10.753715,17.14181 0.09917,0 1.362723,-0.607 2.807903,-1.34888 z m 54.848768,-8.64409 c 2.19203,-2.34418 5.8159,-4.28954 10.02678,-5.38256 4.65802,-1.20908 9.74332,-1.63456 21.95538,-1.83696 4.74485,-0.0786 8.68535,-0.20369 8.75668,-0.27789 0.0753,-0.0783 -0.12272,-0.96052 -0.47187,-2.10256 -0.33085,-1.08221 -0.65422,-2.45258 -0.7186,-3.04527 -0.0644,-0.59269 -0.20284,-1.24408 -0.3077,-1.44753 -0.10486,-0.20345 -0.19583,-0.88416 -0.20216,-1.5127 l -0.0115,-1.14279 -0.73233,0.009 c -0.40278,0.005 -1.85279,0.12306 -3.22225,0.26247 -1.36945,0.13941 -4.4672,0.32289 -6.88389,0.40772 -11.8079,0.41449 -14.36685,0.60847 -18.38145,1.39337 -6.46816,1.26461 -11.40956,4.01343 -14.90018,8.28872 -1.18445,1.4507 -2.4996,3.32741 -2.68252,3.82791 -0.25685,0.70282 7.3e-4,0.7531 1.58685,0.30969 1.63368,-0.45672 2.77138,-0.514 3.40786,-0.17159 0.4764,0.25629 0.97161,0.99822 1.37006,2.05267 0.26748,0.70785 0.48942,1.0666 0.65983,1.0666 0.0539,0 0.39188,-0.31423 0.75101,-0.69829 z m -6.36748,-7.49168 c 4.23362,-5.0903 9.88066,-7.99771 17.99984,-9.26732 2.47561,-0.38712 6.44529,-0.65657 13.26069,-0.90009 5.91795,-0.21146 11.43684,-0.56064 12.49233,-0.79039 0.2249,-0.049 0.38968,-0.14727 0.36617,-0.21848 -0.12942,-0.39204 -11.50432,-8.65574 -22.74494,-16.52387 -2.98057,-2.08632 -7.56129,-5.32794 -10.17937,-7.20358 l -4.76013,-3.41026 -0.73233,0.0852 c -0.40278,0.0469 -1.52325,0.19401 -2.48992,0.32696 -1.37,0.18842 -3.58247,0.25514 -10.0329,0.30255 -9.723721,0.0715 -11.609446,0.21312 -15.012745,1.12766 -3.200571,0.86006 -6.031428,2.54294 -8.141488,4.83993 -1.05725,1.15091 -1.940734,2.44185 -1.846318,2.69781 0.04083,0.11071 1.743483,1.84069 3.783664,3.84441 2.040182,2.00372 4.76599,4.70593 6.057354,6.00489 10.538053,10.60012 18.113763,18.01945 18.931743,18.54095 0.28687,0.18289 0.81005,0.64572 1.16263,1.0285 0.35259,0.38279 0.70013,0.69598 0.77232,0.69598 0.0722,0 0.57323,-0.53139 1.1134,-1.18088 z"
         id="path85"
         inkscape:connector-curvature="0" />
      <path
         style="fill=#fff;stroke-width:0.14938952"
         d="m 94.489322,224.43058 c -0.20139,-0.0689 -0.827531,-0.13211 -1.391424,-0.14055 -0.563894,-0.009 -2.043649,-0.15183 -3.288346,-0.31864 -13.978439,-1.87321 -26.471127,-7.31901 -37.355903,-16.28414 -4.211776,-3.46898 -8.846898,-8.2909 -12.176874,-12.6676 -9.223297,-12.12248 -14.687652,-26.48017 -15.976441,-41.97838 -0.212461,-2.55493 -0.212461,-10.39667 0,-12.95159 1.405132,-16.89729 7.786513,-32.45685 18.497502,-45.102007 1.619213,-1.911608 5.356218,-5.78075 7.092662,-7.343456 C 61.983236,76.76141 76.799645,70.26322 92.804966,68.822762 c 2.455898,-0.221028 9.993694,-0.221028 12.449594,0 16.00532,1.440458 30.82173,7.938648 42.91446,18.821455 1.73645,1.562706 5.47345,5.431848 7.09267,7.343456 10.71099,12.645157 17.09236,28.204717 18.4975,45.102007 0.21246,2.55492 0.21246,10.39666 0,12.95159 -1.40514,16.89729 -7.78651,32.45685 -18.4975,45.102 -1.61922,1.91161 -5.35622,5.78075 -7.09267,7.34346 -12.08409,10.87503 -27.01022,17.42119 -42.91446,18.82102 -2.23556,0.19678 -10.28055,0.28857 -10.765238,0.12283 z m 8.714718,-1.98607 c 12.85036,-0.7817 24.87929,-4.87188 35.57183,-12.09543 21.82754,-14.74603 34.53512,-40.50169 33.22013,-67.33039 -0.68016,-13.87677 -4.54482,-26.4116 -11.65487,-37.80199 C 146.16665,82.509013 121.40928,69.28903 95.620447,70.657042 82.281542,71.364627 70.232552,75.385122 59.283655,82.781867 37.45611,97.527898 24.74853,123.28355 26.063518,150.11226 c 0.680159,13.87676 4.544821,26.4116 11.654871,37.80199 14.326152,22.95066 39.306636,36.12276 65.485651,34.53026 z M 57.36225,181.72523 c -0.978481,-1.1514 -2.322105,-3.31977 -4.346045,-7.01374 -0.974329,-1.77829 -3.467252,-6.07879 -5.539832,-9.55668 C 36.75691,147.16707 31.737527,138.6756 31.594568,138.287 c -0.134735,-0.36625 -0.115784,-0.46397 0.125591,-0.64758 0.156349,-0.11893 0.428377,-0.21625 0.604508,-0.21625 0.461084,0 0.671517,-0.34509 0.717108,-1.176 0.04963,-0.90455 0.8015,-3.71844 1.212532,-4.53793 0.416467,-0.83033 1.289498,-1.67209 2.112809,-2.03713 0.376088,-0.16675 1.675259,-0.993 2.887046,-1.83613 8.614773,-5.99388 13.644407,-8.81755 18.838419,-10.57604 1.639209,-0.55497 4.274468,-1.12571 6.005096,-1.30058 1.540477,-0.15565 4.510182,-0.0183 5.918858,0.27367 2.384514,0.49429 5.483307,1.89674 7.4055,3.35158 0.561678,0.42512 1.102839,0.77294 1.202577,0.77294 0.09974,0 0.537386,-0.49711 0.972549,-1.10469 3.039376,-4.24363 7.355735,-6.60744 13.720435,-7.51387 1.471384,-0.20955 3.656767,-0.28432 11.131394,-0.38087 5.11532,-0.0661 9.72899,-0.1872 10.25261,-0.26918 0.52361,-0.082 1.51434,-0.23579 2.20162,-0.34182 l 1.24958,-0.19278 4.68228,3.3507 c 2.57525,1.84288 6.72547,4.78148 9.22271,6.53023 8.48185,5.93959 16.00584,11.32574 20.19382,14.45601 4.60675,3.44328 4.61096,3.44612 5.1096,3.44612 0.19264,0 0.50506,0.17142 0.69425,0.38093 0.1892,0.20951 0.4233,0.38093 0.52023,0.38093 0.0969,0 0.25915,0.10393 0.36048,0.23096 0.14996,0.18797 0.12604,0.41545 -0.12853,1.22217 -0.38739,1.22767 -0.40942,2.22026 -0.0565,2.54411 0.14097,0.12935 0.81654,0.62879 1.50127,1.10986 1.23799,0.86978 4.81319,3.71647 5.30707,4.22567 0.31704,0.32687 0.32999,1.17563 0.0389,2.55222 -0.11518,0.54473 -0.21172,1.28052 -0.21455,1.63509 -0.004,0.5417 -0.0578,0.65713 -0.3347,0.72262 -0.18125,0.0429 -2.90002,0.35219 -6.04171,0.68739 -9.0414,0.96467 -9.65683,1.03667 -18.30822,2.14173 -4.51115,0.57622 -9.718,1.22471 -11.57079,1.44108 -7.50603,0.87658 -8.78944,1.26127 -12.67024,3.79777 -4.44657,2.90627 -6.36029,3.3662 -11.38536,2.73628 -3.35981,-0.42116 -5.190937,0.0135 -10.903101,2.5882 -1.556208,0.70144 -4.839713,2.08011 -7.296676,3.06372 -10.594052,4.24116 -18.523798,7.71234 -24.855397,10.88027 -2.0301,1.01573 -3.755117,1.84678 -3.833368,1.84678 -0.07825,0 -0.448191,-0.35998 -0.822088,-0.79995 z m 4.892007,-4.09723 c 1.255549,-0.68215 4.523743,-2.58131 7.262653,-4.22036 10.929776,-6.54073 16.813098,-9.16719 23.727453,-10.59253 3.335262,-0.68754 7.217637,-1.12676 10.691997,-1.2096 l 1.3182,-0.0314 0.0892,-1.29516 c 0.14792,-2.14874 0.48826,-3.04403 2.21206,-5.81905 0.55948,-0.90067 0.97522,-1.7083 0.92387,-1.79474 -0.0514,-0.0864 -0.25752,-0.15716 -0.45816,-0.15716 -0.20064,0 -0.57573,-0.12 -0.83354,-0.26665 -0.41508,-0.23613 -0.92979,-0.26596 -4.49654,-0.26062 -3.741713,0.006 -4.183868,0.0356 -6.2248,0.42291 -6.966228,1.32184 -12.22909,3.52993 -24.459782,10.26234 -3.061134,1.68501 -6.829303,3.72051 -8.373707,4.52333 -1.746699,0.90798 -2.837409,1.56242 -2.885794,1.73153 -0.04278,0.14952 -0.149047,1.09222 -0.236141,2.0949 -0.0871,1.00268 -0.219186,2.27117 -0.293537,2.81888 -0.07435,0.5477 -0.136449,1.47579 -0.137997,2.06242 -0.0016,0.58663 -0.100229,1.43821 -0.219293,1.89239 -0.201192,0.76748 -0.194707,1.07886 0.02247,1.07886 0.04874,0 1.115875,-0.55812 2.371425,-1.24026 z m -3.52846,-3.55945 c 0.259481,-1.47124 0.627829,-5.71554 0.513208,-5.91344 -0.05779,-0.0998 -1.234654,-1.96417 -2.61525,-4.14308 -1.380595,-2.17892 -5.100133,-8.2814 -8.265638,-13.56108 -6.061689,-10.11016 -11.601334,-18.93136 -11.984917,-19.08449 -0.626809,-0.25022 -1.591916,1.97311 -1.736187,3.9997 -0.04176,0.58663 -0.143419,1.25246 -0.225905,1.47962 -0.13717,0.37776 0.01848,0.69649 1.823122,3.73311 1.085203,1.82604 3.848115,6.47417 6.139803,10.32917 4.318845,7.26502 15.362533,25.38363 15.776006,25.8826 0.220897,0.26658 0.241014,0.21942 0.324996,-0.76185 0.04924,-0.57532 0.16208,-1.45743 0.250762,-1.96026 z m 5.16427,-8.31055 c 1.150718,-0.5997 4.205697,-2.26005 6.788844,-3.68966 14.203494,-7.86077 20.099912,-10.20667 28.057918,-11.1629 2.012151,-0.24178 5.425671,-0.28062 7.244291,-0.0824 1.25841,0.13713 1.54366,0.0935 1.54366,-0.23598 0,-0.25082 0.23223,-0.0105 -3.51873,-3.64062 -1.6453,-1.59228 -6.283635,-6.18629 -10.3074,-10.2089 -4.023764,-4.02261 -9.067544,-9.02494 -11.208399,-11.11628 -2.140855,-2.09134 -3.945007,-3.89092 -4.009225,-3.99907 -0.232135,-0.39093 -2.402839,-1.95144 -3.717437,-2.67244 -3.160447,-1.73338 -7.038821,-2.50003 -10.609936,-2.09733 -5.658145,0.63807 -11.605264,3.18616 -19.316224,8.27621 -3.992796,2.63567 -7.616219,5.17744 -7.616219,5.34265 0,0.0958 0.570432,1.03064 1.267626,2.07743 2.18461,3.28004 5.07991,7.97467 11.181767,18.13084 5.515203,9.17972 10.104143,16.55733 10.438517,16.78194 0.174265,0.11707 1.011406,-0.26009 3.780947,-1.70345 z m 54.498123,-8.60887 c 2.17208,-2.15887 4.76335,-3.59079 8.52964,-4.7134 4.99351,-1.48841 10.50127,-1.97444 24.76637,-2.1855 6.88067,-0.10181 7.03124,-0.11051 7.07155,-0.40877 0.0227,-0.16761 -0.1932,-1.05898 -0.47967,-1.98083 -0.28648,-0.92185 -0.58978,-2.15606 -0.67399,-2.74269 -0.0842,-0.58663 -0.22631,-1.2723 -0.31577,-1.52371 -0.0894,-0.25142 -0.18846,-1.00566 -0.22002,-1.67609 -0.0316,-0.67044 -0.10768,-1.27285 -0.16915,-1.3387 -0.0615,-0.0659 -0.87947,-0.015 -1.81777,0.11292 -2.27207,0.30986 -5.3512,0.50204 -11.0114,0.68728 -8.99726,0.29445 -12.98814,0.62593 -16.65582,1.38344 -5.17204,1.06821 -9.60846,3.22526 -12.67449,6.1625 -1.9455,1.86377 -4.72298,5.55267 -4.72298,6.27279 0,0.45842 0.42492,0.47055 1.83083,0.0523 0.6098,-0.18142 1.46341,-0.30475 2.10934,-0.30475 1.06739,0 1.0937,0.01 1.6189,0.58385 0.29363,0.32112 0.65388,0.92108 0.80055,1.33325 0.28766,0.80838 0.62291,1.43508 0.76769,1.43508 0.0496,0 0.61039,-0.51703 1.24619,-1.14896 z m -6.77232,-7.13076 c 3.00334,-3.77726 7.44987,-6.60002 12.83997,-8.1511 3.91497,-1.12659 8.41784,-1.67478 15.80403,-1.92401 6.89277,-0.23258 10.73531,-0.42097 12.81576,-0.62833 2.4124,-0.24045 2.8255,-0.31856 2.75429,-0.52081 -0.13752,-0.39061 -12.27128,-9.18877 -24.06506,-17.4495 -2.49724,-1.74915 -6.52963,-4.60172 -8.96086,-6.33905 -2.43123,-1.73733 -4.55818,-3.23549 -4.72656,-3.32923 -0.23121,-0.12873 -0.61903,-0.11381 -1.58467,0.061 -2.39742,0.43395 -4.84135,0.54453 -12.06898,0.54611 -7.402829,0.002 -9.53668,0.10693 -12.351153,0.60962 -4.137272,0.73895 -7.361867,2.27834 -9.973048,4.76104 -0.728159,0.69233 -2.549774,3.05917 -2.549774,3.31295 0,0.0585 1.499443,1.57376 3.332096,3.36726 1.832653,1.7935 6.66053,6.59086 10.728617,10.6608 8.674412,8.67838 14.175722,14.03762 14.920302,14.53501 0.29251,0.1954 0.79237,0.6368 1.11081,0.98089 0.31843,0.34409 0.69285,0.62562 0.83203,0.62562 0.13918,0 0.65317,-0.50321 1.1422,-1.11825 z"
         id="path83"
         inkscape:connector-curvature="0" />
      <path
         style="fill=#fff;stroke-width:0.14938952"
         d="m 95.001953,224.44266 c -0.161113,-0.0675 -1.017937,-0.16526 -1.904055,-0.21716 -6.184193,-0.36226 -14.501436,-2.31176 -21.000084,-4.92229 -14.898626,-5.98483 -27.593338,-16.80033 -36.282689,-30.91172 -5.806244,-9.42926 -9.618153,-20.34588 -11.040202,-31.61712 -0.510752,-4.04825 -0.634378,-6.03774 -0.634378,-10.2089 0,-4.17116 0.123626,-6.16065 0.634378,-10.2089 2.708595,-21.46848 13.833429,-40.671555 30.900973,-53.339549 9.888035,-7.339168 21.40461,-12.043405 33.540659,-13.700533 3.891342,-0.531347 5.803717,-0.659958 9.813206,-0.659958 4.009489,0 5.921869,0.128611 9.813209,0.659958 20.63637,2.817812 39.09514,14.391229 51.27212,32.146982 7.05471,10.28674 11.57661,22.2677 13.1695,34.8931 0.51076,4.04825 0.63439,6.03774 0.63439,10.2089 0,4.17116 -0.12363,6.16065 -0.63439,10.2089 -2.70859,21.46849 -13.83342,40.67156 -30.90096,53.33955 -7.64963,5.67776 -16.24651,9.77373 -25.3875,12.09583 -4.13996,1.05167 -7.69725,1.6576 -12.2542,2.08735 -2.22632,0.20996 -9.332996,0.31616 -9.739977,0.14556 z m 10.179367,-2.06565 c 11.37418,-1.02548 21.86225,-4.54603 31.49014,-10.57035 17.93051,-11.21939 30.51487,-30.06266 34.27702,-51.32491 1.3644,-7.71113 1.55486,-16.88965 0.50955,-24.55657 C 169.22188,119.52397 162.00861,104.5053 150.73416,92.776224 139.4597,81.04715 125.02314,73.543022 109.25764,71.216708 c -6.19037,-0.913433 -14.265388,-0.913433 -20.455755,0 C 73.036378,73.543022 58.599825,81.04715 47.325367,92.776224 36.050908,104.5053 28.837638,119.52397 26.601492,135.92518 c -0.878029,6.43998 -0.878029,14.8406 0,21.28058 2.236146,16.40122 9.449416,31.41989 20.723875,43.14896 11.298114,11.75369 25.733508,19.24596 41.56425,21.57273 4.569246,0.67158 11.659203,0.86722 16.291703,0.44956 z M 57.35769,181.5758 c -0.953652,-1.10346 -2.504006,-3.60779 -4.452193,-7.19174 -0.90788,-1.67017 -3.698613,-6.46987 -6.20163,-10.66601 -6.626149,-11.1083 -14.460287,-24.29722 -14.843882,-24.98996 -0.40699,-0.73499 -0.275316,-1.09632 0.451183,-1.23811 0.663435,-0.12948 0.767018,-0.28658 0.847795,-1.28578 0.03726,-0.46092 0.234915,-1.49586 0.439228,-2.29987 0.618164,-2.43257 1.216176,-3.37304 2.567769,-4.03823 0.459406,-0.2261 1.605387,-0.94783 2.546625,-1.60385 2.344432,-1.634 6.771789,-4.56825 8.523924,-5.64926 12.598717,-7.77302 22.288271,-8.72082 30.179052,-2.95202 0.638673,0.46692 1.209769,0.84895 1.269101,0.84895 0.05933,0 0.35841,-0.35998 0.664621,-0.79995 2.088606,-3.00098 4.793431,-5.16229 8.062456,-6.44236 1.318006,-0.51611 3.469886,-1.07539 5.257124,-1.36636 1.84286,-0.30002 8.759967,-0.55341 11.926597,-0.4369 3.33573,0.12274 9.44139,-0.16589 11.69624,-0.55292 l 1.80979,-0.31063 5.5135,3.93837 c 3.03242,2.16611 7.35895,5.2306 9.61453,6.80999 8.36029,5.85401 14.33157,10.13166 18.86391,13.51354 3.40074,2.53752 4.76663,3.4747 5.06416,3.4747 0.24139,0 0.54285,0.14998 0.73977,0.36804 0.18279,0.20242 0.49087,0.40943 0.68462,0.46002 0.43928,0.1147 0.4486,0.43957 0.0505,1.76086 -0.20191,0.6702 -0.26771,1.17526 -0.20413,1.56677 0.0832,0.51209 0.22129,0.66713 1.21526,1.36403 1.45955,1.02335 2.37332,1.72529 4.40285,3.3822 l 1.66527,1.35951 -0.10449,1.30699 c -0.27032,3.38126 -0.24225,3.26435 -0.81439,3.39271 -0.28195,0.0633 -2.19333,0.29004 -4.24751,0.50398 -2.05418,0.21394 -4.36102,0.45783 -5.1263,0.54197 -0.76528,0.0841 -2.38007,0.25555 -3.58841,0.38091 -2.22024,0.23035 -3.47796,0.38622 -14.06072,1.7426 -3.22224,0.413 -7.35667,0.92698 -9.18762,1.14218 -7.01266,0.82427 -8.29074,1.22121 -12.2672,3.80997 -2.27564,1.48149 -3.2499,1.97881 -4.79234,2.4463 -1.75521,0.53198 -3.22342,0.61542 -5.56643,0.31634 -4.38167,-0.55931 -5.55702,-0.30693 -11.979668,2.5723 -1.450011,0.65004 -4.646626,1.98855 -7.103589,2.97447 -11.037528,4.42912 -18.455829,7.67378 -24.856213,10.87176 -1.949993,0.97433 -3.641058,1.7715 -3.75792,1.7715 -0.116862,0 -0.522437,-0.35865 -0.90128,-0.79701 z m 5.030283,-3.9429 c 1.248537,-0.67945 4.450821,-2.54093 7.116187,-4.13662 5.308962,-3.17836 11.208594,-6.35865 13.882747,-7.48372 5.882399,-2.47485 11.833946,-3.87619 17.546913,-4.13157 1.0875,-0.0486 2.52104,-0.12657 3.18563,-0.17323 l 1.20834,-0.0849 0.003,-0.78627 c 0.003,-1.05974 0.35035,-2.69647 0.77497,-3.65616 0.19153,-0.43287 0.81994,-1.55551 1.39648,-2.49476 0.57653,-0.93924 1.04825,-1.81347 1.04825,-1.94273 0,-0.15537 -0.13788,-0.23502 -0.40681,-0.23502 -0.22375,0 -0.53682,-0.0947 -0.69571,-0.21043 -0.36159,-0.26337 -2.84094,-0.55143 -4.74622,-0.55143 -1.58977,0 -4.825919,0.32629 -6.719802,0.67753 -3.181062,0.58996 -7.440642,1.94928 -11.01245,3.51429 -2.643489,1.15826 -8.994561,4.42786 -13.767782,7.0878 -2.134738,1.18961 -5.349634,2.92669 -7.144211,3.86018 -3.15268,1.63995 -3.267041,1.71528 -3.386441,2.23057 -0.145113,0.62626 -0.442015,3.72947 -0.604996,6.32342 -0.06319,1.00565 -0.186945,2.06799 -0.275016,2.36075 -0.224889,0.74756 -0.199832,1.06761 0.08359,1.06761 0.134044,0 1.265247,-0.55591 2.513784,-1.23536 z m -3.738874,-1.81207 c 0.03991,-0.62854 0.175006,-1.97155 0.300205,-2.98448 0.125199,-1.01292 0.273418,-2.47261 0.329374,-3.24374 l 0.101739,-1.40205 -1.540708,-2.39401 c -2.459127,-3.82108 -3.433007,-5.40996 -9.279491,-15.13937 -7.207751,-11.99477 -11.589014,-18.98955 -12.124056,-19.35633 -0.08316,-0.057 -0.264198,-0.0407 -0.402312,0.0362 -0.687973,0.38304 -1.362439,2.36133 -1.598036,4.68722 l -0.143829,1.41993 5.443651,9.1699 c 5.21414,8.78329 17.945872,29.75141 18.407146,30.31506 0.322812,0.39446 0.425109,0.17054 0.506317,-1.10829 z m 4.579895,-9.65242 c 1.525006,-0.78339 4.815935,-2.55745 7.313176,-3.94235 11.45851,-6.35457 16.647234,-8.70752 22.555728,-10.22842 3.962503,-1.01999 8.662092,-1.47092 12.117582,-1.16272 2.17174,0.19371 2.60269,0.11017 2.31512,-0.44882 -0.074,-0.14378 -1.40724,-1.48992 -2.96285,-2.99143 -3.19328,-3.08224 -6.569342,-6.42585 -13.288447,-13.16071 -7.373466,-7.39076 -13.628372,-13.45398 -14.658804,-14.20959 -2.014466,-1.47718 -4.829742,-2.6386 -7.542986,-3.1118 -1.874977,-0.32701 -5.339114,-0.21314 -7.396521,0.24312 -5.552762,1.23141 -10.460986,3.62121 -18.601152,9.05687 -4.152523,2.77288 -5.85863,4.01771 -5.85863,4.27466 0,0.11584 1.271179,2.18665 2.824844,4.6018 1.553663,2.41514 5.51984,8.88233 8.813726,14.37151 7.964173,13.27212 11.022659,18.13223 11.410683,18.13223 0.102187,0 1.433525,-0.64096 2.958531,-1.42435 z m 54.696356,-8.52161 c 1.86612,-2.20551 6.06865,-4.46211 10.25627,-5.50724 4.61456,-1.15168 9.39418,-1.54291 21.67176,-1.77391 4.87365,-0.0917 8.91979,-0.22584 8.99143,-0.29811 0.0755,-0.0761 -0.13176,-0.99918 -0.49262,-2.19435 -0.34259,-1.13463 -0.67208,-2.52925 -0.73222,-3.09916 -0.0601,-0.56991 -0.22388,-1.26663 -0.36388,-1.54827 -0.19562,-0.39356 -0.23187,-0.70076 -0.15663,-1.3273 0.0539,-0.44837 0.053,-0.96227 -0.002,-1.142 -0.10969,-0.35952 -0.0183,-0.36006 -3.21649,0.0188 -1.73447,0.20549 -5.93772,0.42464 -11.71726,0.61093 -4.81863,0.15532 -9.65177,0.46862 -11.71726,0.75954 -6.65962,0.93801 -11.78642,3.09227 -15.57533,6.54469 -1.74477,1.58982 -4.71117,5.46132 -4.93789,6.44452 -0.14471,0.62761 0.19322,0.6668 1.82236,0.21136 1.71162,-0.4785 2.83751,-0.51627 3.45842,-0.11602 0.44908,0.28948 0.66454,0.65153 1.3043,2.19165 0.2361,0.56838 0.45032,0.87614 0.60985,0.87614 0.13525,0 0.49389,-0.29308 0.79697,-0.65129 z m -6.77299,-7.00539 c 1.21893,-1.48833 3.61472,-3.8036 4.89094,-4.72658 2.43891,-1.76385 5.54893,-3.20749 8.76444,-4.06838 4.63332,-1.24047 8.31278,-1.61627 19.47994,-1.98954 6.8695,-0.22962 11.29005,-0.56943 11.60935,-0.8924 0.0615,-0.0622 -0.0374,-0.25181 -0.2197,-0.42138 -1.21092,-1.12623 -14.4566,-10.69534 -24.05894,-17.38096 -1.69168,-1.17783 -5.44109,-3.82916 -8.33202,-5.89184 -3.57204,-2.54865 -5.37887,-3.75027 -5.63893,-3.75013 -0.21048,1.2e-4 -0.94292,0.10469 -1.62765,0.2324 -1.59769,0.29796 -8.29677,0.58416 -11.42433,0.48806 -3.48037,-0.10694 -9.890249,0.1256 -11.717261,0.4251 -5.151876,0.84451 -8.454812,2.45605 -11.287835,5.50746 -1.234479,1.32964 -2.084561,2.53888 -2.013862,2.86471 0.0256,0.11799 1.364737,1.49964 2.975861,3.07034 2.590257,2.52527 9.312876,9.21802 15.82278,15.75247 3.846577,3.86109 9.742987,9.51593 10.149187,9.7334 0.21553,0.11538 0.69244,0.54393 1.05981,0.95232 0.36737,0.4084 0.75118,0.74253 0.8529,0.74253 0.10172,0 0.42361,-0.29141 0.71532,-0.64758 z"
         id="path81"
         inkscape:connector-curvature="0" />
      <path
         style="fill=#fff;stroke-width:0.14938952"
         d="m 96.532135,224.52158 c -0.04452,-0.0467 -1.033161,-0.15917 -2.196987,-0.25 -13.317645,-1.03948 -24.84007,-4.95494 -35.583471,-12.0917 -18.812249,-12.49684 -31.282662,-33.08007 -33.969891,-56.06952 -0.89449,-7.65243 -0.89449,-11.43735 0,-19.08977 1.521375,-13.01548 6.188267,-25.42634 13.513893,-35.93805 12.36509,-17.742957 30.870349,-29.141649 51.559153,-31.758913 7.355821,-0.930558 10.994038,-0.930558 18.349858,0 20.6888,2.617264 39.19406,14.015956 51.55915,31.758913 7.32563,10.51171 11.99253,22.92257 13.5139,35.93805 0.89449,7.65242 0.89449,11.43734 0,19.08977 -1.85713,15.8879 -8.2569,30.50195 -18.60658,42.48868 -11.97515,13.8693 -28.1727,22.74362 -45.90143,25.14852 -4.09086,0.55492 -11.971129,1.05335 -12.237595,0.77402 z m 6.745135,-1.9275 c 16.39636,-0.97739 31.7523,-7.54942 44.15943,-18.89936 1.82811,-1.67234 5.40198,-5.40945 6.91185,-7.22753 12.36243,-14.88608 18.73037,-34.01117 17.79497,-53.44436 -0.661,-13.73234 -4.37206,-25.89492 -11.45042,-37.52746 C 156.51059,98.621848 150.54652,91.809668 144.14122,86.589737 130.29436,75.305399 113.07065,69.59473 95.624432,70.503577 82.424355,71.191225 70.733187,75.051926 59.551526,82.415703 52.942903,86.767869 46.401707,92.965931 41.378936,99.635008 30.533234,114.03559 25.042383,131.95847 25.916001,150.10811 c 0.660995,13.73234 4.372056,25.89493 11.450416,37.52746 4.183477,6.8751 10.141304,13.68006 16.551889,18.90536 14.076601,11.47391 31.440625,17.12126 49.358964,16.05315 z M 57.552419,181.72523 c -0.876093,-0.97893 -2.570445,-3.70733 -4.530691,-7.29575 -0.968657,-1.77322 -4.217892,-7.34526 -7.220522,-12.38231 -9.15732,-15.36183 -14.000425,-23.53571 -14.091601,-23.78289 -0.117496,-0.31854 0.202286,-0.68873 0.594942,-0.68873 0.591783,0 0.830393,-0.33192 0.87976,-1.22379 0.05734,-1.03581 0.697616,-3.46414 1.192934,-4.52432 0.399142,-0.85433 1.358994,-1.82193 1.961246,-1.97709 0.203551,-0.0524 1.325781,-0.75817 2.493846,-1.56829 5.894791,-4.08838 9.820954,-6.54968 13.134449,-8.23392 8.031129,-4.08222 14.393552,-5.03043 20.259745,-3.01935 1.752714,0.60087 3.547787,1.53591 5.049177,2.63006 0.642309,0.46809 1.275377,0.85107 1.40682,0.85107 0.131441,0 0.525872,-0.42854 0.876511,-0.95232 2.732724,-4.08209 7.486285,-6.81171 13.172698,-7.5641 0.684728,-0.0906 1.475643,-0.20439 1.757589,-0.25287 0.281947,-0.0485 4.730844,-0.14528 9.886438,-0.21512 7.53765,-0.10211 9.6894,-0.17679 10.98493,-0.38125 0.88612,-0.13985 1.87477,-0.28997 2.19699,-0.33361 0.56715,-0.0768 0.74022,0.0312 5.41923,3.38132 2.65836,1.90337 6.48111,4.60971 8.49502,6.01409 7.73402,5.39327 15.57379,11.00035 20.37096,14.56953 3.00692,2.23721 5.12439,3.71419 5.32485,3.71419 0.18305,0 0.52863,0.17141 0.76797,0.38093 0.23934,0.20951 0.52508,0.38092 0.63498,0.38092 0.36345,0 0.38047,0.28745 0.0774,1.30812 -0.33948,1.14343 -0.38722,2.1776 -0.11665,2.52693 0.10069,0.13001 0.87513,0.72327 1.72097,1.31835 0.84584,0.59509 2.41119,1.80388 3.47856,2.68622 l 1.94067,1.60424 -0.005,0.64917 c -0.003,0.35705 -0.0994,1.09486 -0.21456,1.63959 -0.11517,0.54473 -0.21172,1.24969 -0.21455,1.56659 -0.003,0.32071 -0.0863,0.60476 -0.18823,0.64065 -0.10069,0.0355 -1.50127,0.2027 -3.11239,0.37164 -1.61113,0.16895 -3.88501,0.41119 -5.05307,0.53833 -3.37275,0.3671 -4.94786,0.53697 -6.51773,0.7029 -0.80556,0.0851 -5.15559,0.62912 -9.66674,1.20885 -4.51115,0.57972 -9.718,1.23005 -11.57079,1.44519 -7.53022,0.87434 -8.79586,1.24694 -12.54224,3.69239 -2.5679,1.67618 -3.21909,2.02233 -4.81396,2.55885 -1.60686,0.54056 -3.71901,0.65157 -6.37126,0.33487 -1.38786,-0.16572 -2.30112,-0.19193 -3.36871,-0.0967 -2.170957,0.19365 -3.104187,0.51164 -8.348549,2.84469 -1.69168,0.75257 -4.756476,2.03697 -6.810658,2.85422 -10.175773,4.04839 -18.304237,7.60131 -24.800408,10.84017 -2.080414,1.03726 -3.818155,1.88592 -3.861647,1.88592 -0.04349,0 -0.339874,-0.29141 -0.658629,-0.64758 z m 4.881438,-4.02308 c 1.317881,-0.72516 4.637075,-2.65732 7.375985,-4.29367 10.497261,-6.27157 16.083088,-8.79604 22.788522,-10.29906 3.480966,-0.78026 7.892586,-1.3045 10.990516,-1.30602 1.06979,-4.6e-4 1.60176,-0.0603 1.70107,-0.19123 0.0795,-0.10475 0.18485,-0.77328 0.23417,-1.48562 0.14399,-2.07978 0.36574,-2.66172 2.0956,-5.49957 0.59223,-0.97155 1.07678,-1.83845 1.07678,-1.92643 0,-0.18711 -0.34295,-0.34495 -0.74946,-0.34495 -0.15736,0 -0.46212,-0.12 -0.67726,-0.26666 -0.34954,-0.23828 -0.82809,-0.26609 -4.49867,-0.26139 -3.831852,0.005 -4.253754,0.0332 -6.286578,0.42129 -7.28044,1.39003 -12.387849,3.55084 -25.283266,10.69665 -2.456963,1.36149 -5.80389,3.17118 -7.437616,4.02153 -2.111242,1.09889 -3.009138,1.64437 -3.104296,1.88586 -0.142421,0.36144 -0.553518,4.25948 -0.742892,7.04413 -0.06269,0.92185 -0.188984,1.93414 -0.280649,2.24953 -0.17642,0.60701 -0.113196,0.87409 0.206919,0.87409 0.107237,0 1.273242,-0.59331 2.591125,-1.31848 z m -3.828646,-1.5194 c 0,-0.5453 0.05769,-1.10693 0.128201,-1.24808 0.07051,-0.14114 0.236793,-1.35371 0.369513,-2.69458 0.13272,-1.34087 0.276684,-2.79112 0.319919,-3.22278 0.07825,-0.7812 0.07271,-0.79394 -1.190973,-2.74269 -2.190949,-3.37871 -4.036977,-6.39093 -10.070984,-16.43316 -7.628696,-12.69622 -11.428333,-18.66552 -11.881152,-18.66552 -0.380662,0 -1.096137,1.06273 -1.408773,2.09253 -0.263077,0.86655 -0.412875,1.82234 -0.615335,3.92615 -0.03557,0.36964 8.516819,14.79895 17.294772,29.17917 3.504171,5.7406 6.467926,10.55583 6.586124,10.70051 0.340871,0.41725 0.468688,0.17411 0.468688,-0.89155 z m 5.650461,-10.47553 c 1.84645,-0.96831 5.037878,-2.69775 7.09206,-3.8432 4.550082,-2.53722 10.658018,-5.67095 13.326053,-6.83704 3.590999,-1.56949 7.817652,-2.91788 11.060496,-3.52853 3.255833,-0.6131 7.463339,-0.82725 10.252599,-0.52184 1.24872,0.13673 1.68436,0.0275 1.68436,-0.42221 0,-0.15256 -1.58177,-1.79721 -3.69512,-3.84202 -2.03231,-1.9664 -7.090871,-6.97237 -11.241244,-11.12439 -10.351505,-10.35561 -14.492432,-14.40056 -15.725523,-15.36104 -3.422133,-2.66559 -8.355708,-4.0312 -12.771084,-3.53502 -6.102263,0.68575 -11.872366,3.22734 -20.645799,9.09398 -4.033911,2.6974 -6.517726,4.46937 -6.517726,4.64978 0,0.0927 1.409146,2.37138 3.131436,5.06367 1.722291,2.69228 5.784411,9.31765 9.026931,14.72303 5.809716,9.68498 10.113791,16.61825 10.685742,17.21327 0.365624,0.38036 0.15707,0.46348 4.336819,-1.72844 z m 53.746908,-8.02849 c 3.28378,-3.48665 8.70634,-5.65733 16.32543,-6.53512 3.096,-0.3567 8.97329,-0.60783 16.2577,-0.69468 4.2292,-0.0504 7.83775,-0.12333 8.019,-0.16201 0.46079,-0.0983 0.42897,-0.42764 -0.26428,-2.73522 -0.3266,-1.08715 -0.63295,-2.42233 -0.68076,-2.96706 -0.0478,-0.54473 -0.17606,-1.12566 -0.28497,-1.29097 -0.12733,-0.19324 -0.19803,-0.75257 -0.19803,-1.56659 0,-0.94537 -0.052,-1.2868 -0.20531,-1.348 -0.11292,-0.0451 -0.95327,0.0235 -1.86744,0.15233 -2.25076,0.31727 -5.4219,0.51566 -11.1824,0.69959 -11.53396,0.36828 -16.07271,0.92135 -20.66784,2.51847 -4.58356,1.5931 -7.9601,3.93681 -10.86206,7.53952 -1.63148,2.02545 -2.52339,3.42913 -2.52339,3.9713 0,0.40336 0.047,0.44748 0.47648,0.44748 0.26206,0 0.93742,-0.13713 1.50081,-0.30474 1.28689,-0.38286 2.94139,-0.40854 3.42901,-0.0532 0.18986,0.13834 0.60685,0.84115 0.92665,1.56181 0.52218,1.17668 0.75067,1.52924 0.99584,1.53651 0.0433,0.001 0.40581,-0.34495 0.80556,-0.7694 z m -6.16274,-7.70136 c 4.40943,-5.28408 10.42914,-8.17867 19.26592,-9.26406 2.3675,-0.29079 6.05219,-0.51815 11.3511,-0.7004 6.75386,-0.2323 8.35697,-0.31393 10.66024,-0.54283 2.58938,-0.25733 2.91697,-0.3308 2.85855,-0.64107 -0.0826,-0.43866 -10.69042,-8.20037 -22.25114,-16.28108 -2.12504,-1.48536 -6.5556,-4.61794 -9.84569,-6.96129 l -5.98198,-4.26064 -1.41454,0.24767 c -2.61027,0.45704 -4.74385,0.55477 -12.12264,0.55529 -7.964108,6.1e-4 -10.248911,0.14173 -13.385516,0.82702 -3.114085,0.68036 -5.440699,1.7343 -7.61622,3.45007 -1.91442,1.50985 -4.147731,4.25515 -3.859655,4.7445 0.06863,0.11657 1.770234,1.82001 3.781345,3.78542 2.011109,1.9654 4.747173,4.67054 6.080138,6.01141 10.49608,10.55832 18.194688,18.09865 19.007928,18.61713 0.28686,0.18289 0.81369,0.64968 1.17073,1.0373 0.44454,0.48263 0.74709,0.69 0.95983,0.65789 0.17206,-0.026 0.77062,-0.59809 1.3416,-1.28233 z"
         id="path79"
         inkscape:connector-curvature="0" />
      <path
         style="fill=#fff;stroke-width:0.14938952"
         d="m 97.784802,224.44443 c -0.161112,-0.0701 -1.149756,-0.17396 -2.196986,-0.2309 C 85.816199,223.68222 76.981545,221.47401 68.156931,217.3572 60.113498,213.60482 52.73873,208.27123 46.227215,201.49715 34.056883,188.83608 26.661716,172.8226 24.764816,155.02252 c -0.272484,-2.55693 -0.611929,-7.24817 -0.611929,-8.45705 0,-2.02733 0.535554,-8.28486 0.978061,-11.42787 1.570368,-11.15391 5.601469,-22.11419 11.539771,-31.37582 3.070263,-4.788512 5.65681,-8.071057 9.556496,-12.127988 12.170332,-12.661072 27.563134,-20.354431 44.673291,-22.327819 2.457821,-0.283471 6.967229,-0.636604 8.129255,-0.636604 1.948759,0 7.963739,0.557149 10.984929,1.0175 10.72159,1.633689 21.25705,5.827335 30.15971,12.005084 4.60291,3.194063 7.75822,5.884907 11.65791,9.941839 12.17033,12.661068 19.5655,28.674548 21.4624,46.474628 0.27247,2.55693 0.61192,7.24817 0.61192,8.45705 0,2.02734 -0.53555,8.28486 -0.97805,11.42788 -1.57038,11.1539 -5.60148,22.11418 -11.53978,31.37582 -3.07026,4.78851 -5.65681,8.07105 -9.55649,12.12798 -9.16488,9.53443 -20.04541,16.19642 -32.44381,19.86486 -5.13942,1.52066 -9.60729,2.29628 -16.47699,2.86039 -4.031808,0.33108 -4.799474,0.36433 -5.126708,0.22203 z m 8.128848,-1.92372 c 12.17751,-1.3075 22.55635,-5.02237 32.60998,-11.67199 15.68132,-10.37187 27.24651,-27.11023 31.67699,-45.84628 1.54156,-6.51905 2.10021,-11.42327 2.10021,-18.43697 0,-4.76322 -0.12159,-6.69505 -0.69044,-10.97076 -1.71819,-12.91456 -7.05154,-25.81004 -14.99835,-36.264446 -10.11358,-13.304887 -24.24762,-22.809903 -39.85992,-26.805445 -6.26637,-1.603707 -10.98051,-2.184884 -17.722359,-2.184884 -6.741851,0 -11.455985,0.581177 -17.722357,2.184884 -15.612301,3.995542 -29.74634,13.500558 -39.859919,26.805445 -7.946812,10.454406 -13.280163,23.349886 -14.998354,36.264446 -0.568852,4.27571 -0.69043,6.20754 -0.69043,10.97076 0,7.0137 0.558652,11.91792 2.100199,18.43697 3.840676,16.24183 12.977281,30.94579 25.766475,41.46718 11.802249,9.70944 26.161194,15.36935 41.303345,16.28067 2.718621,0.1636 8.43579,0.0441 10.98493,-0.22958 z M 57.496518,181.42049 c -0.910449,-1.04577 -2.440411,-3.50989 -4.233655,-6.81864 -1.526091,-2.81581 -2.078213,-3.75971 -8.645405,-14.78004 -2.272287,-3.8131 -5.698083,-9.57275 -7.61288,-12.79922 -1.914797,-3.22647 -3.870388,-6.51759 -4.345758,-7.3136 -0.47537,-0.79601 -0.845754,-1.54752 -0.823076,-1.67003 0.02268,-0.12251 0.254636,-0.26814 0.515461,-0.32364 0.724114,-0.15407 0.915429,-0.39785 0.915429,-1.16649 0,-0.37656 0.09677,-1.00241 0.21505,-1.39078 0.118278,-0.38837 0.323594,-1.15181 0.456259,-1.69654 0.456643,-1.875 1.10788,-2.81968 2.373063,-3.44234 0.458625,-0.22572 1.691388,-1.00608 2.739472,-1.73415 8.785849,-6.10325 13.867243,-8.96429 19.042103,-10.72152 2.496678,-0.8478 5.944127,-1.46872 8.167888,-1.47113 1.530626,-0.002 4.439697,0.50717 5.966058,1.04351 1.662215,0.58408 3.62879,1.63176 5.018826,2.67375 0.625615,0.46896 1.262947,0.85266 1.416289,0.85266 0.177742,0 0.557591,-0.40044 1.047882,-1.10469 2.453839,-3.52468 5.634489,-5.64184 10.385826,-6.9132 2.885866,-0.77219 5.661307,-0.97203 13.49975,-0.97203 6.96508,0 11.48769,-0.21032 13.08379,-0.60845 1.28928,-0.3216 1.19646,-0.37004 6.31517,3.29594 2.64892,1.89715 6.46396,4.59745 8.47787,6.00068 7.60224,5.29699 15.54848,10.97941 20.37096,14.56743 3.00692,2.2372 5.12439,3.71418 5.32485,3.71418 0.18305,0 0.52863,0.17142 0.76797,0.38093 0.23934,0.20951 0.52897,0.38093 0.64362,0.38093 0.27905,0 0.26313,0.2441 -0.0845,1.29515 -0.29983,0.90662 -0.35885,1.55685 -0.19802,2.18163 0.0587,0.22791 0.61638,0.72018 1.57251,1.38799 0.81487,0.56916 2.4208,1.80177 3.56873,2.73913 l 2.08714,1.7043 -0.005,0.717 c -0.003,0.39435 -0.0994,1.16268 -0.21456,1.70741 -0.11518,0.54473 -0.21173,1.20313 -0.21456,1.46312 l -0.005,0.4727 -1.50127,0.17994 c -0.8257,0.099 -2.78651,0.31542 -4.35736,0.48101 -5.39237,0.56842 -9.88777,1.05729 -11.05816,1.20254 -0.64445,0.08 -2.02855,0.25117 -3.07578,0.38041 -1.04723,0.12923 -2.43133,0.30669 -3.07578,0.39434 -1.04761,0.14248 -2.35574,0.30975 -5.93187,0.75848 -0.60417,0.0758 -1.85645,0.23841 -2.78285,0.36132 -0.92639,0.12291 -2.07981,0.26513 -2.56315,0.31603 -3.61981,0.38122 -6.72022,0.82231 -8.27531,1.1773 -2.25716,0.51526 -3.32201,1.01632 -6.35085,2.98832 -3.35715,2.18575 -5.10319,2.79735 -7.99479,2.80037 -0.9308,9.1e-4 -2.04738,-0.0727 -2.4813,-0.16363 -1.32033,-0.27681 -4.12898,-0.20779 -5.41198,0.133 -1.23798,0.32883 -3.633239,1.23913 -5.223413,1.98512 -1.957033,0.91809 -5.148154,2.26114 -9.227343,3.8835 -9.22658,3.66957 -17.447558,7.27451 -23.772145,10.42418 -2.038482,1.01517 -3.729547,1.84577 -3.75792,1.84577 -0.02837,0 -0.364988,-0.35998 -0.748031,-0.79995 z m 4.879788,-3.54101 c 1.302318,-0.71145 4.562183,-2.60599 7.244145,-4.2101 5.337485,-3.1924 10.09433,-5.79826 12.712213,-6.96391 6.82965,-3.04099 12.783545,-4.43284 20.204136,-4.72315 2.06027,-0.0806 2.83685,-0.1627 2.92382,-0.30911 0.0651,-0.10965 0.15498,-0.8282 0.19965,-1.59678 0.10599,-1.8239 0.41574,-2.6467 1.95782,-5.20046 0.71552,-1.18496 1.217,-2.16958 1.16995,-2.29713 -0.0453,-0.12278 -0.24716,-0.22324 -0.4486,-0.22324 -0.20143,0 -0.62999,-0.14302 -0.95234,-0.31781 -0.51503,-0.27927 -0.9285,-0.32798 -3.40984,-0.40171 -4.909203,-0.14587 -9.006623,0.48983 -14.056364,2.18077 -4.686404,1.56927 -9.25649,3.75338 -18.207,8.7014 -2.738909,1.51412 -6.37718,3.47963 -8.085046,4.3678 -2.993319,1.55665 -3.107778,1.6328 -3.176436,2.1131 -0.203437,1.42314 -0.582234,5.54236 -0.617223,6.71197 -0.02201,0.7358 -0.143144,1.70685 -0.269184,2.15789 -0.249583,0.89316 -0.187866,1.30399 0.195894,1.30399 0.135605,0 1.312087,-0.58208 2.614405,-1.29352 z m -3.603049,-1.67919 c 0.05215,-0.66963 0.232057,-2.31458 0.3998,-3.65545 0.167744,-1.34087 0.30633,-2.92185 0.307969,-3.51327 l 0.003,-1.07533 -1.335064,-2.04829 c -2.083883,-3.19715 -3.512466,-5.52701 -9.587046,-15.63537 -7.99773,-13.30857 -11.756543,-19.24901 -12.1798,-19.24901 -0.64836,0 -1.223891,0.82583 -1.668966,2.39481 -0.256676,0.90484 -0.551583,2.81275 -0.587865,3.80323 -0.0067,0.18245 0.942054,1.93092 2.108307,3.88548 1.166253,1.95455 3.68613,6.19358 5.599728,9.42005 6.804075,11.47218 16.372687,26.98404 16.615694,26.93601 0.175594,-0.0347 0.251705,-0.33112 0.324264,-1.26286 z m 4.92297,-10.04169 c 1.670809,-0.8726 4.718528,-2.52218 6.77271,-3.66575 6.921395,-3.85315 12.4311,-6.63333 16.111234,-8.12966 2.471152,-1.00476 6.63603,-2.27532 8.64148,-2.63621 0.443059,-0.0797 1.365793,-0.25602 2.050521,-0.39175 0.961931,-0.19067 2.260529,-0.25071 5.712168,-0.26406 2.45696,-0.01 4.54959,-0.0713 4.65028,-0.13728 0.1007,-0.066 0.18309,-0.24392 0.18309,-0.39537 0,-0.16422 -1.64057,-1.86744 -4.06409,-4.21932 -2.23525,-2.16917 -6.700624,-6.58322 -9.923057,-9.809 -8.26303,-8.27161 -8.529376,-8.53605 -12.523159,-12.43371 -3.893836,-3.80012 -4.805255,-4.54744 -6.810658,-5.58446 -5.396002,-2.79032 -11.465901,-2.67862 -18.82085,0.34637 -1.940227,0.79799 -5.0103,2.36117 -7.176823,3.65421 -3.441665,2.05408 -11.187218,7.32292 -11.483479,7.81153 -0.113634,0.18741 0.461388,1.17867 2.642558,4.55542 1.533289,2.37374 5.610415,9.01274 9.060283,14.75335 5.988241,9.96447 9.147248,15.09944 10.568977,17.1799 0.496378,0.72636 0.736232,0.95232 1.010887,0.95232 0.198053,0 1.72712,-0.71394 3.397928,-1.58653 z m 54.306353,-8.3247 c 3.22934,-3.41642 7.74359,-5.30806 15.44664,-6.4727 1.92268,-0.29069 6.86383,-0.54533 13.32838,-0.68685 3.98753,-0.0873 8.36977,-0.20756 9.73831,-0.26725 2.24159,-0.0978 2.49331,-0.13597 2.53917,-0.38541 0.028,-0.15228 -0.22079,-1.19025 -0.55286,-2.30659 -0.33207,-1.11634 -0.66016,-2.5528 -0.72908,-3.19214 -0.0689,-0.63933 -0.20634,-1.26401 -0.30538,-1.38816 -0.11335,-0.14208 -0.17233,-0.66966 -0.15916,-1.42355 0.0283,-1.62169 0.012,-1.6327 -1.9928,-1.34243 -2.64892,0.38353 -5.38516,0.55843 -12.41954,0.79389 -9.8374,0.32928 -13.13242,0.66369 -17.40433,1.76633 -5.59017,1.4429 -9.83383,4.09791 -13.15919,8.2329 -1.75758,2.18551 -2.61098,3.55068 -2.61098,4.17673 0,0.4923 0.0281,0.52147 0.50206,0.52147 0.27614,0 1.11648,-0.17124 1.86744,-0.38054 2.60611,-0.72635 3.31772,-0.42468 4.13251,1.75189 0.33439,0.89323 0.63658,1.37134 0.86678,1.37134 0.10186,0 0.51228,-0.34602 0.91203,-0.76893 z m -6.39551,-7.37309 c 3.07542,-3.94336 7.54404,-6.804 13.07905,-8.37271 4.3249,-1.22574 8.7452,-1.6811 19.4551,-2.00418 3.93302,-0.11864 9.61219,-0.48139 10.93983,-0.69877 1.11322,-0.18227 1.40062,-0.4299 0.95729,-0.8248 -0.1394,-0.12416 -2.34389,-1.78503 -4.89887,-3.69081 -4.6691,-3.48271 -8.7346,-6.39112 -19.15758,-13.70508 -3.09994,-2.17528 -7.45781,-5.25914 -9.68413,-6.85303 -2.22633,-1.59389 -4.1559,-2.94111 -4.28793,-2.99382 -0.13203,-0.0527 -1.01278,0.0502 -1.95722,0.22864 -1.58104,0.29874 -2.46612,0.3342 -11.16422,0.44727 -8.963024,0.11652 -10.143831,0.17026 -12.728718,0.5794 -3.269122,0.51743 -6.495978,1.84883 -8.728515,3.60138 -1.867561,1.46604 -4.03045,4.05218 -4.025429,4.81315 0.0018,0.26835 0.606712,0.94483 2.366275,2.64609 2.732904,2.64235 5.017219,4.90556 10.227401,10.1329 9.667086,9.69892 15.538946,15.42352 16.349266,15.93923 0.27769,0.17673 0.79799,0.63956 1.15622,1.02851 0.89837,0.97539 1.15422,0.94212 2.10218,-0.27337 z"
         id="path77"
         inkscape:connector-curvature="0" />
    </g>
  </g>
</svg>
