<?xml version="1.0" encoding="UTF-8" standalone="no"?>
<!-- Created with Inkscape (http://www.inkscape.org/) -->

<svg
   xmlns:dc="http://purl.org/dc/elements/1.1/"
   xmlns:cc="http://creativecommons.org/ns#"
   xmlns:rdf="http://www.w3.org/1999/02/22-rdf-syntax-ns#"
   xmlns:svg="http://www.w3.org/2000/svg"
   xmlns="http://www.w3.org/2000/svg"
   xmlns:sodipodi="http://sodipodi.sourceforge.net/DTD/sodipodi-0.dtd"
   xmlns:inkscape="http://www.inkscape.org/namespaces/inkscape"
   width="210mm"
   height="297mm"
   viewBox="0 0 210 297"
   version="1.1"
   id="svg8"
   inkscape:version="0.92.3 (2405546, 2018-03-11)"
   sodipodi:docname="pattern.svg">
  <defs
     id="defs2" />
  <sodipodi:namedview
     id="base"
     pagecolor="#ffffff"
     bordercolor="#666666"
     borderopacity="1.0"
     inkscape:pageopacity="0.0"
     inkscape:pageshadow="2"
     inkscape:zoom="0.35"
     inkscape:cx="-100"
     inkscape:cy="560"
     inkscape:document-units="mm"
     inkscape:current-layer="layer1"
     showgrid="false"
     inkscape:window-width="3440"
     inkscape:window-height="1372"
     inkscape:window-x="0"
     inkscape:window-y="32"
     inkscape:window-maximized="1" />
  <metadata
     id="metadata5">
    <rdf:RDF>
      <cc:Work
         rdf:about="">
        <dc:format>image/svg+xml</dc:format>
        <dc:type
           rdf:resource="http://purl.org/dc/dcmitype/StillImage" />
        <dc:title></dc:title>
      </cc:Work>
    </rdf:RDF>
  </metadata>
  <g
     inkscape:label="Layer 1"
     inkscape:groupmode="layer"
     id="layer1">
    <g
       id="g91"
       transform="translate(-1.5119015,-44.29881)">
      <path
         style="fill:#f9f7d1;stroke-width:0.26458335"
         d="M 10.394341,115.57143 V 56.833927 h 93.927089 93.92708 v 58.737503 58.7375 H 104.32143 10.394341 Z"
         id="path107"
         inkscape:connector-curvature="0" />
      <path
         style="fill:#e6eda3;stroke-width:0.26458335"
         d="M 10.394341,115.57143 V 56.833927 h 5.583116 5.583117 l -0.622179,1.02276 c -0.342198,0.562518 -2.690812,4.198963 -5.219142,8.080988 -2.52833,3.882026 -4.544734,7.110458 -4.480898,7.174294 0.149964,0.149964 24.846304,0.188584 24.9958,0.03909 0.06216,-0.06216 -2.120263,-3.597447 -4.84982,-7.856203 -2.729556,-4.258757 -4.986532,-7.904684 -5.015501,-8.102061 -0.04404,-0.300066 4.296609,-0.358867 26.491247,-0.358867 h 26.543915 l -0.07431,0.676922 c -0.04087,0.372307 -0.375023,0.997385 -0.742563,1.389062 -0.367541,0.391678 -0.750422,1.101946 -0.85085,1.578375 -0.100428,0.476429 -0.476129,1.215077 -0.834888,1.64144 -0.358761,0.426364 -1.103624,1.643903 -1.655252,2.705641 -1.297992,2.498307 -2.34656,4.39187 -2.896872,5.231336 -0.641567,0.978671 -1.042485,1.634054 -1.501058,2.453787 l -0.407035,0.727604 2.189607,0.03757 c 9.169442,0.157313 17.155017,0.149868 17.257583,-0.01609 0.123775,-0.200273 -2.994139,-5.176841 -7.597267,-12.126166 -1.373571,-2.073672 -2.366238,-3.772135 -2.205929,-3.774364 0.160308,-0.0022 0.112876,-0.119468 -0.105405,-0.260532 -0.25781,-0.166609 8.201972,-0.2579 24.143233,-0.260531 20.06635,-0.0033 24.5401,0.05918 24.5401,0.342806 0,0.190772 -2.26218,3.835325 -5.02708,8.099007 -2.7649,4.263682 -5.02708,7.858064 -5.02708,7.987517 0,0.285392 25.05203,0.322071 25.22355,0.03693 0.0657,-0.10914 -0.57172,-1.27 -1.41637,-2.579687 -0.84465,-1.309687 -1.90265,-2.976562 -2.35111,-3.704167 -0.44846,-0.727604 -1.95834,-3.108854 -3.3553,-5.291666 -1.39695,-2.182813 -2.65201,-4.17711 -2.78902,-4.431771 -0.23663,-0.439804 1.36991,-0.463021 32.03936,-0.463021 h 32.28847 v 29.34681 c 0,28.05923 -0.0217,29.39712 -0.49375,30.49323 -0.27156,0.63053 -2.68619,4.5397 -5.36584,8.68704 -6.12257,9.47602 -6.57583,10.19341 -6.57583,10.40806 0,0.0964 2.60964,0.17527 5.7992,0.17527 3.18955,0 5.98752,0.0723 6.21771,0.1606 0.37179,0.14267 0.41851,1.31936 0.41851,10.53924 0,8.54488 -0.0632,10.37864 -0.35777,10.37864 -0.19677,0 -1.31471,-1.49821 -2.48431,-3.32935 -3.77902,-5.91645 -10.9735,-17.08443 -11.07964,-17.19888 -0.15604,-0.16826 -19.11816,-0.0426 -22.5388,0.14935 -2.25258,0.12641 -2.95902,0.25048 -2.86224,0.5027 0.0707,0.18418 0.77416,1.32846 1.56329,2.54285 0.78914,1.21439 2.36387,3.69626 3.4994,5.51527 1.13554,1.81901 2.26927,3.60495 2.51941,3.96875 1.29022,1.87652 11.08361,17.0838 14.81131,22.99918 0.49759,0.7896 0.92784,1.59327 0.95611,1.78593 0.074,0.50393 -127.403162,0.52343 -127.945995,0.0196 -0.285054,-0.26458 -0.318971,-0.26458 -0.169595,0 0.102698,0.1819 0.07056,0.33073 -0.07143,0.33073 -0.141983,0 -0.318204,-0.14883 -0.391602,-0.33073 -0.106762,-0.26458 -0.137628,-0.26458 -0.154339,0 -0.01653,0.26171 -4.521126,0.33073 -21.584431,0.33073 H 10.394341 Z m 39.378819,20.15748 c -0.126468,-0.30894 -4.615103,-7.24531 -8.04101,-12.42593 -1.609154,-2.43334 -3.024929,-4.42426 -3.146166,-4.42426 -0.121235,0 -0.307824,0.17859 -0.414642,0.39687 -0.863068,1.76368 -1.561388,2.99165 -2.424508,4.26339 -0.554419,0.81689 -1.416506,2.38159 -1.915748,3.4771 -0.499242,1.09552 -1.011879,2.0345 -1.139193,2.08662 -0.340908,0.13957 -2.189218,3.55012 -2.189218,4.0396 0,0.2306 -0.420478,0.88469 -0.934395,1.45353 -0.636996,0.70508 -0.826471,1.07763 -0.595312,1.1705 0.570824,0.22935 20.894432,0.19278 20.800192,-0.0374 z m 81.57619,-0.24759 c 0.21287,-0.25466 1.76232,-2.60614 3.44323,-5.22552 1.68091,-2.61937 4.3827,-6.82234 6.00398,-9.33993 1.62128,-2.51759 2.94778,-4.75001 2.94778,-4.96094 0,-0.32869 -1.54473,-0.3835 -10.80799,-0.3835 -5.9444,0 -11.72805,0.0778 -12.85255,0.17283 -1.92274,0.16253 -2.03399,0.20588 -1.86727,0.7276 0.49837,1.55953 0.45961,2.04316 -0.22081,2.75521 -0.37314,0.39049 -1.25292,1.90061 -1.95507,3.35582 -0.70215,1.4552 -1.63192,3.14818 -2.06616,3.76217 -1.47969,2.0922 -2.24473,3.44948 -2.24473,3.9824 0,0.2927 -0.47964,1.11069 -1.06587,1.81776 -0.58623,0.70707 -1.26399,1.73207 -1.50613,2.27777 -0.24214,0.5457 -0.56617,1.00406 -0.72007,1.01856 -0.15389,0.0145 0.0179,0.1217 0.38165,0.23821 0.3638,0.11651 5.49481,0.22371 11.40222,0.23821 9.92455,0.0244 10.77018,-0.009 11.12779,-0.43665 z m -25.35006,-2.14906 c 0.24134,-0.19972 0.4388,-0.47273 0.4388,-0.60668 0,-0.24391 1.37891,-2.48373 2.90501,-4.71874 2.07672,-3.04141 4.76791,-7.23843 4.76791,-7.43576 0,-0.12031 0.33488,-0.60984 0.74418,-1.08784 0.4093,-0.47801 1.06917,-1.43465 1.46636,-2.12588 l 0.72218,-1.25677 h -12.44657 c -6.845611,0 -12.446568,0.0536 -12.446568,0.11903 0,0.0655 0.338336,0.63101 0.751859,1.25677 0.413523,0.62576 1.678001,2.5665 2.809954,4.31275 1.131951,1.74625 2.278589,3.47265 2.548083,3.83645 0.269494,0.36381 0.874472,1.31631 1.344391,2.11667 0.469921,0.80036 1.500701,2.46724 2.290621,3.70417 0.78993,1.23692 1.7305,2.71111 2.09017,3.27598 l 0.65395,1.02702 0.46043,-1.02702 c 0.25324,-0.56487 0.65789,-1.19043 0.89924,-1.39015 z m -1.41328,-0.16604 c 0,-0.24254 0.12799,-0.39831 0.28443,-0.34616 0.15643,0.0521 0.28442,0.20791 0.28442,0.34616 0,0.13824 -0.12799,0.29402 -0.28442,0.34616 -0.15644,0.0521 -0.28443,-0.10363 -0.28443,-0.34616 z m -1.98438,-1.98438 c -0.0899,-0.14552 -0.0374,-0.26458 0.11668,-0.26458 0.15411,0 0.2802,0.11906 0.2802,0.26458 0,0.14552 -0.0525,0.26459 -0.11668,0.26459 -0.0642,0 -0.19026,-0.11907 -0.2802,-0.26459 z m 9.43359,-10.16996 c 0.0503,-0.24273 0.21048,-0.43503 0.356,-0.42734 0.39272,0.0207 0.32057,0.61267 -0.0914,0.75 -0.22254,0.0742 -0.32173,-0.0468 -0.26458,-0.32266 z m -22.001294,-6.08376 c 0,-0.0964 -8.666525,-13.67681 -11.541689,-18.085851 -0.501745,-0.769422 -1.014233,-1.335929 -1.138865,-1.258904 -0.124632,0.07703 -0.799877,1.063742 -1.500544,2.1927 -0.70067,1.128959 -2.242715,3.540935 -3.426767,5.359945 -3.309115,5.08366 -6.927242,10.74977 -7.252973,11.3584 l -0.293198,0.54785 h 12.577019 c 6.91736,0 12.577017,-0.0514 12.577017,-0.11414 z M 105.41105,92.618823 c 0.33199,-0.545703 3.08014,-4.840677 6.107,-9.544384 3.02686,-4.703709 5.50338,-8.662537 5.50338,-8.797396 0,-0.277365 -23.583523,-0.296958 -24.539614,-0.02039 -0.578405,0.167317 -0.557252,0.230456 0.76685,2.288731 0.748917,1.164166 1.781718,2.77151 2.295118,3.571875 0.513397,0.800364 1.42985,2.229114 2.036561,3.175 0.606711,0.945885 1.518828,2.374635 2.026926,3.175 0.508099,0.800364 1.578519,2.467239 2.378709,3.704166 0.80019,1.236927 1.59767,2.516849 1.77219,2.844271 0.45703,0.857493 0.96378,0.735817 1.65288,-0.396875 z m 81.98954,81.564087 c 0,-0.2927 10.53406,-16.54273 10.7238,-16.54273 0.0683,0 0.12412,3.75047 0.12412,8.33437 v 8.33438 h -5.42396 c -2.98317,0 -5.42396,-0.0567 -5.42396,-0.12602 z"
         id="path105"
         inkscape:connector-curvature="0" />
      <path
         style="fill:#dcb831;stroke-width:0.26458335"
         d="M 10.394341,124.03809 V 73.76726 h 13.08126 c 7.751462,0 13.14304,-0.09996 13.23289,-0.245341 0.0834,-0.134938 -2.121354,-3.780372 -4.899444,-8.100966 -2.77809,-4.320594 -5.114222,-8.020191 -5.191405,-8.221326 -0.118343,-0.308396 1.947424,-0.362427 13.183288,-0.344812 7.327992,0.01149 13.192096,0.07517 13.031345,0.141522 -0.16075,0.06635 -0.237744,0.405884 -0.171098,0.754524 0.110652,0.57884 -0.3625,1.681034 -2.218732,5.168483 -0.271092,0.509323 -0.585375,0.96679 -0.698407,1.016594 -0.11303,0.0498 -0.43175,0.534019 -0.708266,1.076033 -0.276514,0.542015 -0.690049,1.140923 -0.918967,1.330907 -0.228917,0.189984 -0.416213,0.588277 -0.416213,0.885096 0,0.726727 -1.150332,2.660723 -2.595047,4.362922 -0.651431,0.767531 -1.133665,1.446264 -1.071634,1.508295 0.214194,0.214193 19.939347,0.425102 20.215784,0.216155 0.152476,-0.115249 2.273726,-3.227826 4.713888,-6.916837 2.440162,-3.689011 4.489117,-6.654834 4.553233,-6.590719 0.114739,0.11474 -4.459766,8.610265 -6.305651,11.710512 -0.937958,1.575344 -0.940808,1.589361 -0.372155,1.830529 0.742993,0.315105 23.171455,0.547722 23.4757,0.243478 0.131318,-0.131317 -1.989043,-3.684596 -4.919795,-8.244547 -2.832815,-4.407573 -5.150573,-8.126283 -5.150573,-8.263802 0,-0.155167 9.187117,-0.250033 24.214058,-0.250033 h 24.21405 l -2.33258,3.505729 c -3.92229,5.894981 -8.26011,12.781469 -8.26011,13.113298 0,0.238476 3.17718,0.314306 13.16907,0.314306 h 13.16907 l 4.86379,-7.606771 c 2.67509,-4.183723 5.14881,-7.993516 5.49717,-8.466206 l 0.63338,-0.859436 21.41814,0.0023 21.41813,0.0023 V 75.72607 c 0,16.978086 -0.0423,18.902888 -0.41851,19.047258 -0.23019,0.08833 -2.71066,0.160599 -5.51216,0.160599 -2.8015,0 -5.15914,0.06551 -5.23921,0.145576 -0.0801,0.08007 0.8907,1.717175 2.15726,3.638021 4.7529,7.208196 8.48345,13.165906 8.48345,13.548126 0,0.21745 0.11907,0.39536 0.26459,0.39536 0.14552,0 0.26458,0.657 0.26458,1.45999 0,1.70847 0.42491,0.9564 -7.39511,13.08901 -2.95344,4.58222 -5.42754,8.48151 -5.49799,8.66511 -0.10082,0.26273 1.16904,0.33381 5.96399,0.33381 3.35064,0 6.28041,0.0723 6.5106,0.1606 0.37172,0.14264 0.41851,1.31324 0.41851,10.46994 0,8.37418 -0.0635,10.24371 -0.33815,9.95971 -0.29784,-0.30794 -12.34382,-18.90878 -13.02331,-20.10998 -0.76512,-1.35258 -9.70845,-15.03511 -10.79877,-16.52121 l -1.27377,-1.73613 -0.72654,1.14947 c -0.3996,0.63221 -0.91303,1.50666 -1.14095,1.94322 -0.22793,0.43656 -1.16096,2.10344 -2.0734,3.70417 -2.46629,4.32671 -3.94387,6.94231 -5.00711,8.86354 -1.03357,1.86761 -0.98169,1.84047 -4.31331,2.25667 -0.69123,0.0864 -1.25677,0.25679 -1.25677,0.37874 0,0.26426 3.6218,6.15607 7.40671,12.04897 1.49546,2.32833 3.14939,4.93835 3.67542,5.80004 0.52602,0.86168 1.23094,1.856 1.56647,2.20959 0.33554,0.35358 1.69407,2.32747 3.01897,4.38641 4.27398,6.64194 7.68181,11.93054 8.08102,12.54093 l 0.38935,0.59532 h -37.88146 c -28.85523,0 -37.83588,-0.0738 -37.69015,-0.30955 0.12912,-0.20893 0.0463,-0.25392 -0.25468,-0.13841 -0.28843,0.11068 -0.058,-0.41089 0.65221,-1.47639 5.94381,-8.91705 9.26248,-14.29744 8.94124,-14.49598 -0.40466,-0.25009 -19.539069,-0.27813 -22.095246,-0.0324 l -1.880769,0.18082 2.196062,3.43959 c 1.207834,1.89177 2.642852,4.15395 3.188925,5.02708 0.546074,0.87312 1.75136,2.75292 2.678408,4.17733 2.63947,4.0555 3.72253,3.62788 -9.18843,3.62788 -9.338826,0 -11.065383,-0.058 -11.01956,-0.37024 0.02989,-0.20363 2.284023,-3.83177 5.009192,-8.06253 2.725169,-4.23077 5.024639,-7.87416 5.109932,-8.09643 0.137798,-0.3591 -1.302641,-0.40414 -12.925668,-0.40414 H 64.193624 l -5.408274,8.40052 -5.408276,8.40053 -13.555237,0.0703 c -10.635882,0.0551 -13.540697,-2e-5 -13.487721,-0.25603 0.102115,-0.49349 4.493625,-7.57561 7.351724,-11.85602 0.244108,-0.36559 0.997254,-1.5281 1.673657,-2.58335 l 1.229825,-1.91865 -12.568324,0.0125 c -6.912578,0.007 -12.568324,0.0789 -12.568324,0.16005 0,0.0811 0.454181,0.8213 1.009292,1.64479 0.55511,0.8235 1.424094,2.15211 1.931075,2.95248 0.506981,0.80036 1.697163,2.64583 2.644848,4.10104 3.864546,5.93416 4.468952,6.92924 4.468952,7.35752 0,0.40631 -0.513482,0.44769 -5.55625,0.44769 h -5.55625 z m 133.688589,32.91072 c 0.0892,-0.0892 -0.0611,-0.47616 -0.33392,-0.85989 -0.27287,-0.38374 -3.12846,-4.80536 -6.34575,-9.82583 -3.21729,-5.02047 -5.98783,-9.12812 -6.15676,-9.12812 -0.36992,0 -12.91425,19.47784 -12.73309,19.77095 0.14854,0.24036 25.32982,0.28259 25.56952,0.0429 z M 50.203688,136.22583 c 0.08419,-0.13622 -2.364738,-4.15458 -5.442064,-8.92969 -7.56298,-11.73551 -7.401179,-11.50795 -8.041241,-11.30985 -0.291042,0.0901 -0.84557,0.22407 -1.232285,0.29777 -0.545048,0.10387 -0.739981,0.33049 -0.867092,1.00805 -0.09019,0.48073 -0.356371,0.94789 -0.591522,1.03812 -0.62417,0.23952 -0.714074,0.0187 -0.381207,-0.93612 0.163002,-0.46759 0.254789,-0.89174 0.203972,-0.94255 -0.05082,-0.0508 -0.55737,-0.0811 -1.125672,-0.0672 -8.101819,0.19761 -18.370699,0.1832 -18.499964,-0.0259 -0.196917,-0.31863 -2.509355,-0.34526 -2.509355,-0.0289 0,0.12589 0.22129,0.51285 0.491756,0.85989 0.270465,0.34705 0.699467,1.03579 0.953338,1.53054 0.25387,0.49475 1.848283,3.02114 3.54314,5.61422 3.095924,4.73665 5.383565,8.29732 6.811109,10.60137 l 0.768365,1.24013 2.38125,0.094 c 5.613994,0.22165 23.393856,0.18853 23.537472,-0.0438 z m -27.318034,-3.27378 c -0.357794,-0.4556 -0.627523,-2.82854 -0.321517,-2.82854 0.371029,0 1.027185,1.09584 1.213272,2.02627 0.174499,0.87251 -0.417997,1.40555 -0.891755,0.80227 z m 2.303597,-0.91031 c -0.01197,-0.10914 -0.07585,-0.52793 -0.141958,-0.93064 -0.08329,-0.50733 0.01011,-0.7822 0.304125,-0.89503 0.687252,-0.26372 0.957924,0.2429 0.63093,1.18091 -0.265433,0.76142 -0.738169,1.14574 -0.793097,0.64476 z m -1.168868,-2.71198 c -0.08994,-0.14552 0.0221,-0.26458 0.248968,-0.26458 0.22687,0 0.41249,0.11906 0.41249,0.26458 0,0.14552 -0.112035,0.26458 -0.248968,0.26458 -0.136933,0 -0.322553,-0.11906 -0.41249,-0.26458 z m 2.778125,-0.26458 c 0,-0.14552 0.126089,-0.26459 0.280198,-0.26459 0.154109,0 0.206614,0.11907 0.116677,0.26459 -0.08994,0.14552 -0.216026,0.26458 -0.280198,0.26458 -0.06417,0 -0.116677,-0.11906 -0.116677,-0.26458 z m 0.921002,-1.59566 c -0.268446,-0.43435 0.581841,-1.24067 0.935443,-0.88706 0.187245,0.18724 0.113141,0.41714 -0.236426,0.7335 -0.364933,0.33026 -0.562932,0.37375 -0.699017,0.15356 z m -9.015867,-0.80808 c -0.400032,-0.51705 -0.659941,-1.30128 -0.429644,-1.29638 0.505718,0.0108 0.888909,0.51393 0.808595,1.06172 -0.073,0.49793 -0.142141,0.54075 -0.378951,0.23466 z m -0.757378,-2.60506 c -0.08372,-0.13547 -0.03122,-0.32109 0.116677,-0.41249 0.315747,-0.19515 0.798066,0.0525 0.798066,0.40982 0,0.32194 -0.716127,0.32403 -0.914743,0.003 z m -1.710859,-2.10654 c -0.686459,-0.96404 -0.698354,-1.34074 -0.03687,-1.16776 0.550209,0.14388 1.193712,1.5639 0.814822,1.79807 -0.125702,0.0777 -0.475779,-0.20595 -0.777948,-0.63031 z m 15.061019,-0.17632 c 0,-0.22687 0.119062,-0.33891 0.264583,-0.24897 0.145521,0.0899 0.264583,0.27556 0.264583,0.41249 0,0.13694 -0.119062,0.24897 -0.264583,0.24897 -0.145521,0 -0.264583,-0.18562 -0.264583,-0.41249 z M 13.374053,117.5054 c 0.246,-0.24599 0.521561,-0.37298 0.612358,-0.28218 0.260398,0.2604 -0.139353,0.72946 -0.621673,0.72946 -0.403879,0 -0.403155,-0.0348 0.0093,-0.44728 z m 124.308297,8.71787 c 3.52521,-5.49211 6.45665,-10.16604 6.5143,-10.38651 0.0577,-0.22047 -0.25449,-0.76837 -0.69364,-1.21755 -0.43916,-0.44918 -0.92034,-1.1033 -1.06927,-1.45359 -0.14894,-0.3503 -0.97609,-1.70846 -1.83812,-3.01815 -0.86202,-1.30969 -1.92139,-2.9805 -2.35416,-3.7129 -0.43276,-0.73241 -0.98588,-1.49684 -1.22914,-1.69874 -0.24326,-0.20189 -0.60218,-0.73374 -0.7976,-1.18188 -0.19541,-0.44815 -0.91165,-1.43933 -1.59164,-2.20264 l -1.23635,-1.387818 -0.72951,1.387818 c -2.71549,5.16596 -3.65598,6.79473 -4.42113,7.65669 -0.47709,0.53745 -0.99644,1.45624 -1.1541,2.04176 -0.15766,0.58551 -0.46879,1.16649 -0.69139,1.29106 -0.22261,0.12458 -0.46705,0.63454 -0.54321,1.13324 -0.0762,0.49871 -0.25233,1.0245 -0.3915,1.16842 -0.54009,0.55856 -8.12131,0.89017 -20.78812,0.90929 -7.158312,0.0108 -13.072004,0.1117 -13.141533,0.22421 -0.06953,0.1125 0.65619,1.45195 1.612709,2.97656 2.562064,4.08371 10.116544,15.88585 10.707984,16.72878 l 0.51053,0.72761 h 13.45771 13.4577 z M 90.482709,115.41548 c 0.08663,-0.25969 -11.878736,-19.170942 -12.833366,-20.283116 -0.456152,-0.531431 -1.151757,-0.626059 -0.972473,-0.132291 0.129712,0.357238 -2.085393,3.927237 -10.272533,16.555847 -2.016067,3.10977 -2.134539,3.23823 -2.56218,2.77812 -0.246605,-0.26532 -1.851512,-2.68506 -3.566462,-5.3772 -1.714947,-2.69213 -3.622278,-5.66869 -4.238511,-6.61458 -4.952952,-7.602519 -4.809929,-7.337269 -4.036608,-7.486258 l 0.594807,-0.114596 -0.615664,-0.03603 c -0.685244,-0.0401 -1.425985,0.651012 -3.176714,2.963902 -0.6306,0.833085 -1.409092,1.686726 -1.729979,1.89698 -0.478581,0.313579 -2.2334,0.386393 -9.764403,0.405162 l -9.180969,0.02289 0.558231,1.09422 c 0.307027,0.60182 0.945163,1.69566 1.418081,2.43075 2.342992,3.64188 5.897861,9.25233 6.500063,10.25868 0.660925,1.10448 0.718832,1.13609 2.381251,1.29952 0.93712,0.0921 7.002135,0.18325 13.477812,0.20249 6.842945,0.0203 11.939032,0.13935 12.168111,0.28419 0.58184,0.36785 25.727438,0.22325 25.851506,-0.14867 z M 183.63622,94.022443 c 0.13679,-0.133853 -9.39272,-14.698933 -9.61708,-14.698933 -0.47113,0 -1.17063,0.618604 -1.17063,1.035246 0,0.268103 -0.17859,0.63568 -0.39687,0.816838 -0.21829,0.181157 -0.39688,0.653532 -0.39688,1.049723 0,0.402293 -0.24976,0.942888 -0.56568,1.224373 -0.31113,0.277217 -0.73081,0.861216 -0.93262,1.297779 -0.20182,0.436562 -0.6914,1.34526 -1.08797,2.019331 -1.92271,3.268189 -2.18489,3.794184 -2.05712,4.127146 0.0822,0.214109 -0.22762,0.573791 -0.7696,0.893567 -0.54345,0.320643 -0.85184,0.679243 -0.76925,0.894479 0.0759,0.197766 -0.11943,0.496967 -0.43448,0.665581 -0.31479,0.16847 -0.49289,0.385961 -0.39578,0.483311 0.3435,0.344337 18.24932,0.528805 18.59396,0.191559 z M 49.817258,93.986351 c 0,-0.148839 -7.93768,-12.550488 -10.862926,-16.971986 -0.79211,-1.197269 -1.513189,-2.179535 -1.602402,-2.182812 -0.171352,-0.0063 -2.919788,4.191418 -10.510274,16.052437 -1.042377,1.628835 -1.895231,3.02782 -1.895231,3.108854 0,0.08103 5.595937,0.147333 12.435416,0.147333 6.83948,0 12.435417,-0.06922 12.435417,-0.153826 z m 61.118752,-9.558406 c 3.41974,-5.335276 6.25646,-9.921908 6.30382,-10.192518 0.0831,-0.474934 -0.35937,-0.489307 -12.74433,-0.413946 -7.056749,0.04294 -12.913709,0.161435 -13.015465,0.263324 -0.101759,0.101888 2.571377,4.478239 5.940301,9.725224 3.368924,5.246984 6.193544,9.717759 6.276924,9.935059 0.42142,1.098185 1.22967,0.05786 7.23875,-9.317143 z m 78.53164,89.700245 c 0.191,-0.0764 0.4192,-0.067 0.50712,0.0209 0.0879,0.0879 -0.0684,0.15046 -0.34727,0.13897 -0.30822,-0.0127 -0.37091,-0.0754 -0.15985,-0.15985 z m 0.21851,-1.00989 c 0.0838,-0.21828 0.25862,-0.39687 0.38858,-0.39687 0.12995,0 0.23627,0.17859 0.23627,0.39687 0,0.21828 -0.17486,0.39688 -0.38857,0.39688 -0.2367,0 -0.32905,-0.15513 -0.23628,-0.39688 z m 1.30826,-2.21345 c -0.11398,-0.18441 -0.13578,-0.40675 -0.0485,-0.49408 0.2368,-0.23679 0.49498,0.11147 0.36708,0.49515 -0.0896,0.26886 -0.15194,0.26865 -0.31863,-0.001 z M 16.92073,165.1367 c -0.322244,-0.32224 -0.182318,-0.88194 0.220486,-0.88194 0.220486,0 0.396875,0.23519 0.396875,0.52917 0,0.52711 -0.281925,0.68821 -0.617361,0.35277 z m 177.8882,-0.33716 c 0,-0.13693 0.1177,-0.32171 0.26155,-0.41061 0.14998,-0.0927 0.19434,0.0135 0.10399,0.24896 -0.1759,0.45837 -0.36554,0.54224 -0.36554,0.16165 z m -81.75625,-4.11665 c 0,-0.21829 0.11906,-0.39688 0.26458,-0.39688 0.14552,0 0.26458,0.17859 0.26458,0.39688 0,0.21828 -0.11906,0.39687 -0.26458,0.39687 -0.14552,0 -0.26458,-0.17859 -0.26458,-0.39687 z"
         id="path103"
         inkscape:connector-curvature="0" />
      <path
         style="fill:#4cbe99;stroke-width:0.26458335"
         d="m 10.394341,165.88276 v -8.42617 l 1.390429,-2.09102 c 0.764736,-1.15006 2.234678,-3.40071 3.266538,-5.00143 1.031859,-1.60073 3.382729,-5.2435 5.224154,-8.09503 1.841425,-2.85154 3.348046,-5.32209 3.348046,-5.49011 0,-0.22278 -1.790756,-0.30549 -6.614584,-0.30549 h -6.614583 v -10.48344 c 0,-8.87116 0.05602,-10.43695 0.364241,-10.18114 0.391888,0.32523 1.60656,2.15496 8.588319,12.93706 2.477635,3.82628 4.552615,7.1005 4.611067,7.27605 0.08052,0.24184 3.25866,0.34015 13.115557,0.40571 11.556839,0.0769 13.026845,0.0408 13.166612,-0.32347 0.14706,-0.38324 -2.580632,-4.80144 -9.896245,-16.02952 -1.372855,-2.10708 -2.554148,-3.98231 -2.62509,-4.16719 -0.103254,-0.26907 2.541592,-0.33614 13.255397,-0.33614 h 13.384388 l 0.509812,0.99218 c 0.280398,0.54571 1.527707,2.59954 2.771804,4.56407 1.244095,1.96453 2.902818,4.5839 3.686054,5.82083 3.392863,5.35819 5.818806,8.99583 5.999318,8.99583 0.234688,0 12.998297,-19.75129 13.157825,-20.36132 0.06393,-0.24446 -2.676573,-4.76397 -6.386457,-10.53227 -3.57414,-5.55724 -6.498434,-10.226003 -6.498434,-10.37503 0,-0.18134 4.451231,-0.27096 13.457902,-0.27096 h 13.457899 l 6.31971,-9.838354 c 3.47583,-5.411094 6.35774,-10.054531 6.40425,-10.318749 0.0807,-0.45828 -0.46141,-0.480291 -11.77396,-0.478097 -6.522181,0.0013 -12.498639,0.07916 -13.281018,0.173107 l -1.422511,0.170808 -3.752882,5.713872 c -4.604443,7.010393 -6.311262,9.65047 -7.83513,12.11922 -0.647562,1.049089 -1.318493,1.912292 -1.490956,1.918229 -0.396042,0.01363 -0.69955,-0.426246 -6.382004,-9.249619 -6.037779,-9.375098 -6.905334,-10.630096 -7.215751,-10.438247 -0.54451,0.336525 -12.514665,18.737387 -13.118614,20.166304 -0.455091,1.076725 -2.845448,4.226587 -3.806394,5.015825 -0.70853,0.581928 -0.82038,0.588947 -9.759772,0.612572 l -9.04303,0.02389 -1.03043,-1.141741 c -0.566736,-0.627954 -1.482774,-1.766387 -2.03564,-2.529848 -0.55953,-0.772655 -1.181175,-1.358331 -1.402087,-1.320956 -0.490898,0.08306 -0.19876,-0.352221 -9.889407,14.734854 -1.873914,2.91744 -3.451492,5.30443 -3.50573,5.30443 -0.05424,0 -0.09861,-9.28687 -0.09861,-20.637502 v -20.6375 h 13.229167 c 8.170617,0 13.229167,-0.09603 13.229167,-0.251131 0,-0.138121 -2.271308,-3.783556 -5.04735,-8.100966 -2.776043,-4.31741 -5.1105,-8.014401 -5.187683,-8.215536 -0.118117,-0.307807 1.708193,-0.3657 11.536436,-0.3657 H 49.83085 l -0.434276,0.859896 c -0.632923,1.253226 -2.903562,5.296818 -4.345789,7.739062 -2.257888,3.823465 -4.101066,7.492322 -3.876863,7.716915 0.27859,0.279074 22.701229,0.433795 23.075776,0.159228 0.152476,-0.111774 2.273726,-3.221508 4.713888,-6.910519 2.440162,-3.689011 4.489117,-6.654834 4.553233,-6.590719 0.114739,0.11474 -4.459766,8.610265 -6.305651,11.710512 -0.937958,1.575344 -0.940808,1.589361 -0.372155,1.830529 0.742993,0.315105 23.171455,0.547722 23.4757,0.243478 0.131318,-0.131317 -1.989043,-3.684596 -4.919795,-8.244547 -2.832815,-4.407573 -5.150573,-8.126283 -5.150573,-8.263802 0,-0.155167 9.187117,-0.250033 24.214055,-0.250033 h 24.21405 l -2.33258,3.505729 c -3.92229,5.894981 -8.26011,12.781469 -8.26011,13.113298 0,0.238476 3.17718,0.314306 13.16907,0.314306 h 13.16907 l 4.86379,-7.606771 c 2.67509,-4.183723 5.14881,-7.993516 5.49717,-8.466206 l 0.63338,-0.859436 21.41814,0.0023 21.41813,0.0023 V 75.72607 c 0,16.978086 -0.0423,18.902888 -0.41851,19.047258 -0.23019,0.08833 -2.71066,0.160599 -5.51216,0.160599 -2.8015,0 -5.15914,0.06551 -5.23921,0.145576 -0.0801,0.08007 0.8907,1.717175 2.15726,3.638021 4.7529,7.208196 8.48345,13.165906 8.48345,13.548126 0,0.21745 0.11907,0.39536 0.26459,0.39536 0.14552,0 0.26458,0.657 0.26458,1.45999 0,1.70847 0.42491,0.9564 -7.39511,13.08901 -2.95344,4.58222 -5.42754,8.48151 -5.49799,8.66511 -0.10082,0.26273 1.16904,0.33381 5.96399,0.33381 3.35064,0 6.28041,0.0723 6.5106,0.1606 0.37172,0.14264 0.41851,1.31324 0.41851,10.46994 0,8.37418 -0.0635,10.24371 -0.33815,9.95971 -0.29784,-0.30794 -12.34382,-18.90878 -13.02331,-20.10998 -0.76512,-1.35258 -9.70845,-15.03511 -10.79877,-16.52121 l -1.27377,-1.73613 -0.72654,1.14947 c -0.3996,0.63221 -0.91303,1.50666 -1.14095,1.94322 -0.22793,0.43656 -1.16096,2.10344 -2.0734,3.70417 -2.46629,4.32671 -3.94387,6.94231 -5.00711,8.86354 -1.03357,1.86761 -0.98169,1.84047 -4.31331,2.25667 -0.69123,0.0864 -1.25677,0.25679 -1.25677,0.37874 0,0.26426 3.6218,6.15607 7.40671,12.04897 1.49546,2.32833 3.14939,4.93835 3.67542,5.80004 0.52602,0.86168 1.23094,1.856 1.56647,2.20959 0.33554,0.35358 1.69407,2.32747 3.01897,4.38641 4.27398,6.64194 7.68181,11.93054 8.08102,12.54093 l 0.38935,0.59532 h -37.88146 c -22.82853,0 -37.82203,-0.0962 -37.73191,-0.24199 0.0823,-0.13309 0.0301,-0.28192 -0.11581,-0.33073 -0.14594,-0.0488 0.55362,-1.3389 1.55459,-2.86687 6.49988,-9.92198 8.25125,-12.78945 7.93196,-12.98679 -0.37974,-0.23469 -20.551878,-0.2341 -22.615067,5.3e-4 l -1.35205,0.15384 2.19651,3.43958 c 1.20808,1.89177 2.643299,4.15396 3.189372,5.02709 0.546074,0.87312 1.75136,2.75292 2.678405,4.17733 2.63947,4.05563 3.72253,3.62801 -9.188427,3.62801 -9.279224,0 -11.06519,-0.0593 -11.020166,-0.3661 0.04354,-0.29667 8.714666,-13.89203 10.84172,-16.99862 0.311904,-0.45553 1.000157,-1.5271 1.529448,-2.38125 0.529294,-0.85414 3.293983,-5.17168 6.14376,-9.59453 2.849775,-4.42285 5.114685,-8.14949 5.033145,-8.28142 -0.0861,-0.13931 -5.601901,-0.21887 -13.155211,-0.18974 l -13.006959,0.0502 -6.820601,10.61252 c -3.751331,5.83689 -9.221129,14.33018 -12.155109,18.87397 l -5.334511,8.26145 -13.443953,0.009 c -10.471051,0.007 -13.429188,-0.063 -13.377182,-0.31539 0.101172,-0.491 4.497675,-7.58056 7.350979,-11.85378 0.244108,-0.36559 0.997254,-1.5281 1.673657,-2.58336 l 1.229825,-1.91865 -12.568324,0.0125 c -6.912578,0.007 -12.568324,0.0789 -12.568324,0.16006 0,0.0811 0.454181,0.8213 1.009292,1.64479 0.55511,0.8235 1.424094,2.15211 1.931075,2.95248 0.506981,0.80036 1.697163,2.64583 2.644848,4.10104 3.864546,5.93416 4.468952,6.92924 4.468952,7.35752 0,0.40631 -0.513482,0.44769 -5.55625,0.44769 h -5.55625 z M 145.23829,156.2147 c 0.41525,-0.49297 1.21928,-1.65383 1.78672,-2.57969 0.56744,-0.92585 1.53113,-2.45728 2.14154,-3.40317 4.44719,-6.89132 7.54197,-12.01728 7.54245,-12.49276 5e-5,-0.0412 -5.3252,-0.0427 -11.83389,-0.003 -11.51768,0.0697 -11.85329,0.0573 -12.55707,-0.46302 -0.39771,-0.29405 -0.82513,-0.53463 -0.94983,-0.53463 -0.33339,0 -2.43163,3.08254 -8.1577,11.98455 -2.81034,4.36908 -5.04789,8.04381 -4.97232,8.16608 0.0756,0.12226 6.01162,0.22229 13.19123,0.22229 h 13.05386 z M 41.769231,149.76882 c 5.740453,-8.99418 6.733178,-11.0236 5.145964,-10.51984 -0.261954,0.0831 -4.848093,0.16067 -10.191418,0.17229 l -9.715139,0.0211 0.152039,0.7602 c 0.167376,0.83688 1.476612,3.04592 6.453708,10.88915 1.823782,2.87404 3.464334,5.22553 3.645669,5.22553 0.181335,0 2.210467,-2.9468 4.509177,-6.54844 z m 96.084689,-23.8125 6.58171,-10.2526 13.42016,-0.0686 13.42016,-0.0686 0.23316,-0.61325 c 0.12824,-0.33728 3.05083,-4.9986 6.49465,-10.35848 3.81174,-5.932495 6.2153,-9.92189 6.14343,-10.196752 -0.18214,-0.696506 -10.34186,-16.382796 -11.43808,-17.660053 l -0.97007,-1.130267 -0.53754,0.997976 c -0.29564,0.548886 -0.61418,1.474225 -0.70787,2.056308 -0.12806,0.795647 -0.28681,1.048712 -0.63961,1.019571 -0.32281,-0.02667 -0.51853,0.207533 -0.6271,0.750344 -0.0868,0.434009 -0.30881,0.84705 -0.49336,0.917867 -0.18455,0.07082 -0.89526,1.221445 -1.57936,2.556948 -0.68409,1.335502 -1.5282,2.832748 -1.87579,3.327209 -0.34759,0.494464 -0.63198,1.175105 -0.63198,1.512536 0,0.348377 -0.4002,1.013706 -0.92604,1.539552 -0.57095,0.570944 -0.92605,1.183066 -0.92605,1.596321 0,0.368652 -0.1073,0.670277 -0.23844,0.670277 -0.13115,0 -0.48035,0.409977 -0.77599,0.911061 -0.39405,0.667869 -0.82642,0.988846 -1.61974,1.202468 -0.59521,0.160271 -1.19399,0.222316 -1.33062,0.137874 -0.39022,-0.241168 -25.70697,-0.151281 -26.59458,0.09443 -0.61658,0.170674 -0.77858,0.353012 -0.72579,0.816877 0.0374,0.328435 -0.42426,1.50736 -1.02585,2.61983 -0.6016,1.11247 -1.68625,3.153763 -2.41034,4.536213 -0.7241,1.38244 -1.46114,2.69213 -1.63787,2.91041 -0.58704,0.72503 -2.53453,4.12803 -2.53453,4.42878 0,0.16276 -0.16925,0.46518 -0.37612,0.67205 -0.20687,0.20687 -0.59382,0.79085 -0.8599,1.29775 -0.26607,0.5069 -0.71168,1.35294 -0.99025,1.8801 -0.27856,0.52716 -0.69528,1.04784 -0.92604,1.15705 -0.23076,0.10922 -6.90847,0.26328 -14.83935,0.34236 -10.492673,0.10463 -14.404709,0.22508 -14.364397,0.44228 0.07225,0.3893 10.596927,17.0551 12.301327,19.47911 l 0.5116,0.72761 h 13.45737 13.45738 z M 49.817258,93.985383 c 0,-0.08514 -1.386684,-2.31756 -3.081522,-4.960938 -5.976853,-9.321889 -9.429219,-14.482363 -9.638427,-14.407173 -0.182171,0.06547 -4.059629,6.022204 -10.856744,16.678634 l -1.814194,2.844271 h 12.695443 c 6.982495,0 12.695444,-0.06966 12.695444,-0.154794 z M 189.46765,174.12819 c 0.191,-0.0764 0.4192,-0.067 0.50712,0.0209 0.0879,0.0879 -0.0684,0.15046 -0.34727,0.13897 -0.30822,-0.0127 -0.37091,-0.0754 -0.15985,-0.15985 z m 0.21851,-1.00989 c 0.0838,-0.21828 0.25862,-0.39687 0.38858,-0.39687 0.12995,0 0.23627,0.17859 0.23627,0.39687 0,0.21828 -0.17486,0.39688 -0.38857,0.39688 -0.2367,0 -0.32905,-0.15513 -0.23628,-0.39688 z m 1.30826,-2.21345 c -0.11398,-0.18441 -0.13578,-0.40675 -0.0485,-0.49408 0.2368,-0.23679 0.49498,0.11147 0.36708,0.49515 -0.0896,0.26886 -0.15194,0.26865 -0.31863,-0.001 z M 16.92073,165.1367 c -0.322244,-0.32224 -0.182318,-0.88194 0.220486,-0.88194 0.220486,0 0.396875,0.23519 0.396875,0.52917 0,0.52711 -0.281925,0.68821 -0.617361,0.35277 z m 177.8882,-0.33716 c 0,-0.13693 0.1177,-0.32171 0.26155,-0.41061 0.14998,-0.0927 0.19434,0.0135 0.10399,0.24896 -0.1759,0.45837 -0.36554,0.54224 -0.36554,0.16165 z M 63.809838,114.33219 c -0.224769,-0.26431 -1.813473,-2.68321 -3.530452,-5.37535 -1.716976,-2.69213 -3.625969,-5.66869 -4.242202,-6.61458 -2.681192,-4.115488 -4.045111,-6.257821 -4.337513,-6.81302 L 51.38614,94.933927 h 12.709311 c 6.990119,0 12.707017,0.0893 12.704215,0.198437 -0.0057,0.221504 -2.214259,3.732499 -7.98062,12.686896 -4.967205,7.7134 -4.502324,7.10897 -5.009208,6.51293 z"
         id="path101"
         inkscape:connector-curvature="0" />
      <path
         style="fill:#6e8c6a;stroke-width:0.26458335"
         d="m 10.394341,165.88276 v -8.42617 l 1.390429,-2.09102 c 0.764736,-1.15006 2.234678,-3.40071 3.266538,-5.00143 1.031859,-1.60073 3.382729,-5.2435 5.224154,-8.09503 1.841425,-2.85154 3.348046,-5.32209 3.348046,-5.49011 0,-0.22278 -1.790756,-0.30549 -6.614584,-0.30549 h -6.614583 v -10.48344 c 0,-8.87116 0.05602,-10.43695 0.364241,-10.18114 0.391888,0.32523 1.60656,2.15496 8.588319,12.93706 2.477635,3.82628 4.552615,7.1005 4.611067,7.27605 0.08052,0.24184 3.25866,0.34015 13.115557,0.40571 11.556839,0.0769 13.026845,0.0408 13.166612,-0.32347 0.14706,-0.38324 -2.580632,-4.80144 -9.896245,-16.02952 -1.372855,-2.10708 -2.554148,-3.98231 -2.62509,-4.16719 -0.103254,-0.26907 2.541592,-0.33614 13.255397,-0.33614 h 13.384388 l 0.509812,0.99218 c 0.280398,0.54571 1.527707,2.59954 2.771804,4.56407 1.244095,1.96453 2.902818,4.5839 3.686054,5.82083 3.392863,5.35819 5.818806,8.99583 5.999318,8.99583 0.234688,0 12.998297,-19.75129 13.157825,-20.36132 0.06393,-0.24446 -2.676573,-4.76397 -6.386457,-10.53227 -3.57414,-5.55724 -6.498434,-10.226003 -6.498434,-10.37503 0,-0.18134 4.451231,-0.27096 13.457902,-0.27096 h 13.457899 l 6.31971,-9.838354 c 3.47583,-5.411094 6.35774,-10.054531 6.40425,-10.318749 0.0807,-0.45828 -0.46141,-0.480291 -11.77396,-0.478097 -6.522181,0.0013 -12.498639,0.07916 -13.281018,0.173107 l -1.422511,0.170808 -3.752882,5.713872 c -4.604443,7.010393 -6.311262,9.65047 -7.83513,12.11922 -0.647562,1.049089 -1.318493,1.912292 -1.490956,1.918229 -0.396042,0.01363 -0.69955,-0.426246 -6.382004,-9.249619 -6.037779,-9.375098 -6.905334,-10.630096 -7.215751,-10.438247 -0.54451,0.336525 -12.514665,18.737387 -13.118614,20.166304 -0.455091,1.076725 -2.845448,4.226587 -3.806394,5.015825 -0.70853,0.581928 -0.82038,0.588947 -9.759772,0.612572 l -9.04303,0.02389 -1.03043,-1.141741 c -0.566736,-0.627954 -1.482774,-1.766387 -2.03564,-2.529848 -0.55953,-0.772655 -1.181175,-1.358331 -1.402087,-1.320956 -0.490898,0.08306 -0.19876,-0.352221 -9.889407,14.734854 -1.873914,2.91744 -3.451492,5.30443 -3.50573,5.30443 -0.05424,0 -0.09861,-9.28687 -0.09861,-20.637502 v -20.6375 h 13.229167 c 8.170617,0 13.229167,-0.09603 13.229167,-0.251131 0,-0.138121 -2.271308,-3.783556 -5.04735,-8.100966 -2.776043,-4.31741 -5.1105,-8.014401 -5.187683,-8.215536 -0.118117,-0.307807 1.708193,-0.3657 11.536436,-0.3657 H 49.83085 l -0.434276,0.859896 c -0.632923,1.253226 -2.903562,5.296818 -4.345789,7.739062 -2.257888,3.823465 -4.101066,7.492322 -3.876863,7.716915 0.27859,0.279074 22.701229,0.433795 23.075776,0.159228 0.152476,-0.111774 2.273726,-3.221508 4.713888,-6.910519 2.440162,-3.689011 4.489117,-6.654834 4.553233,-6.590719 0.114739,0.11474 -4.459766,8.610265 -6.305651,11.710512 -0.937958,1.575344 -0.940808,1.589361 -0.372155,1.830529 0.742993,0.315105 23.171455,0.547722 23.4757,0.243478 0.131318,-0.131317 -1.989043,-3.684596 -4.919795,-8.244547 -2.832815,-4.407573 -5.150573,-8.126283 -5.150573,-8.263802 0,-0.153783 5.296252,-0.250033 13.758334,-0.250033 8.995831,0 13.758331,0.09159 13.758331,0.264583 0,0.145521 0.18562,0.264584 0.41249,0.264584 0.22687,0 0.3389,-0.119063 0.24897,-0.264584 -0.0967,-0.15647 0.19422,-0.261706 0.71199,-0.257543 l 0.87551,0.007 -0.72761,0.451116 c -0.40018,0.248115 -0.7276,0.615364 -0.7276,0.816111 0,0.410176 1.82421,3.502485 4.62899,7.846817 1.03346,1.600729 2.5814,4.011745 3.43986,5.357813 l 1.56084,2.447395 h 13.11672 13.11673 l 4.86379,-7.606771 c 2.67509,-4.183723 5.14881,-7.993516 5.49717,-8.466206 l 0.63338,-0.859436 21.41814,0.0023 21.41813,0.0023 V 75.72607 c 0,16.978086 -0.0423,18.902888 -0.41851,19.047258 -0.23019,0.08833 -2.71066,0.160599 -5.51216,0.160599 -2.8015,0 -5.15914,0.06551 -5.23921,0.145576 -0.0801,0.08007 0.8907,1.717175 2.15726,3.638021 4.7529,7.208196 8.48345,13.165906 8.48345,13.548126 0,0.21745 0.11907,0.39536 0.26459,0.39536 0.14552,0 0.26458,0.657 0.26458,1.45999 0,1.70847 0.42491,0.9564 -7.39511,13.08901 -2.95344,4.58222 -5.42754,8.48151 -5.49799,8.66511 -0.10082,0.26273 1.16904,0.33381 5.96399,0.33381 3.35064,0 6.28041,0.0723 6.5106,0.1606 0.37172,0.14264 0.41851,1.31324 0.41851,10.46994 0,8.37418 -0.0635,10.24371 -0.33815,9.95971 -0.29784,-0.30794 -12.34382,-18.90878 -13.02331,-20.10998 -0.76512,-1.35258 -9.70845,-15.03511 -10.79877,-16.52121 l -1.27377,-1.73613 -0.72654,1.14947 c -0.3996,0.63221 -0.91303,1.50666 -1.14095,1.94322 -0.22793,0.43656 -1.16096,2.10344 -2.0734,3.70417 -2.46629,4.32671 -3.94387,6.94231 -5.00711,8.86354 -1.03465,1.86956 -0.9751,1.83855 -4.34028,2.26071 -1.37775,0.17285 -1.36785,0.14993 -0.82343,1.90648 0.15124,0.48797 0.0835,0.59531 -0.37551,0.59531 -0.43883,0 -0.56003,0.16259 -0.56003,0.75128 0,0.52235 -0.18141,0.83393 -0.59533,1.02253 -0.56923,0.25936 -1.08609,1.08719 -2.69197,4.31161 -0.39862,0.80036 -0.89095,1.75286 -1.09407,2.11666 -0.20313,0.36381 -0.50269,0.98888 -0.66569,1.38907 -0.17951,0.44069 -0.4981,0.7276 -0.80796,0.7276 -0.28137,0 -0.58082,0.20836 -0.66543,0.46302 -0.30197,0.90881 -1.75781,3.90505 -1.96196,4.03786 -0.41645,0.27093 -1.0306,2.49611 -0.76284,2.76387 0.15963,0.15963 4.55811,0.30152 11.33634,0.3657 6.09153,0.0577 11.19119,0.18012 11.33258,0.2721 0.14139,0.092 2.51338,3.67959 5.27109,7.97245 2.75771,4.29286 5.22964,8.13263 5.49318,8.53281 l 0.47917,0.72761 h -13.66495 -13.66495 l -1.77746,-2.78535 c -6.45928,-10.12193 -8.48408,-13.20853 -8.71532,-13.28561 -0.1443,-0.0481 -1.84743,2.38733 -3.78473,5.41207 -4.98848,7.78856 -6.40681,9.95047 -6.77584,10.32816 -0.39441,0.40366 -27.4793,0.49193 -27.23012,0.0887 0.0823,-0.13309 0.0301,-0.28192 -0.11581,-0.33073 -0.14594,-0.0488 0.55362,-1.3389 1.55459,-2.86687 6.49988,-9.92198 8.25125,-12.78945 7.93196,-12.98679 -0.37974,-0.23469 -20.551878,-0.2341 -22.615067,5.3e-4 l -1.35205,0.15384 2.19651,3.43958 c 1.20808,1.89177 2.643299,4.15396 3.189372,5.02709 0.546074,0.87312 1.75136,2.75292 2.678405,4.17733 2.63947,4.05563 3.72253,3.62801 -9.188427,3.62801 -9.279224,0 -11.06519,-0.0593 -11.020166,-0.3661 0.04354,-0.29667 8.714666,-13.89203 10.84172,-16.99862 0.311904,-0.45553 1.000157,-1.5271 1.529448,-2.38125 0.529294,-0.85414 3.293983,-5.17168 6.14376,-9.59453 2.849775,-4.42285 5.114685,-8.14949 5.033145,-8.28142 -0.0861,-0.13931 -5.601901,-0.21887 -13.155211,-0.18974 l -13.006959,0.0502 -6.820601,10.61252 c -3.751331,5.83689 -9.221118,14.33016 -12.155088,18.87394 l -5.334485,8.26141 -13.31106,0.009 c -7.321082,0.005 -13.311058,-0.0892 -13.311058,-0.20882 0,-0.22811 1.11283,-1.99646 6.835671,-10.86225 1.912687,-2.96313 3.412285,-5.49321 3.332439,-5.6224 -0.08129,-0.13153 -5.740343,-0.2349 -12.860417,-0.2349 -11.981335,0 -12.707977,0.0267 -12.589329,0.46302 0.06925,0.25467 2.32143,3.85631 5.004838,8.00365 2.683408,4.14734 4.958615,7.74898 5.056015,8.00365 0.165182,0.43188 -0.196022,0.46302 -5.370855,0.46302 H 10.394341 Z M 145.23829,156.2147 c 0.41525,-0.49297 1.21928,-1.65383 1.78672,-2.57969 0.56744,-0.92585 1.53113,-2.45728 2.14154,-3.40317 4.44719,-6.89132 7.54197,-12.01728 7.54245,-12.49276 5e-5,-0.0412 -5.3252,-0.0427 -11.83389,-0.003 -11.51768,0.0697 -11.85329,0.0573 -12.55707,-0.46302 -0.39771,-0.29405 -0.82513,-0.53463 -0.94983,-0.53463 -0.33339,0 -2.43163,3.08254 -8.1577,11.98455 -2.81034,4.36908 -5.04789,8.04381 -4.97232,8.16608 0.0756,0.12226 6.01162,0.22229 13.19123,0.22229 h 13.05386 z M 41.769231,149.76882 c 5.740453,-8.99418 6.733178,-11.0236 5.145964,-10.51984 -0.261954,0.0831 -4.848093,0.16067 -10.191418,0.17229 l -9.715139,0.0211 0.152039,0.7602 c 0.167376,0.83688 1.476612,3.04592 6.453708,10.88915 1.823782,2.87404 3.464334,5.22553 3.645669,5.22553 0.181335,0 2.210467,-2.9468 4.509177,-6.54844 z m 96.084689,-23.8125 6.58171,-10.2526 13.42016,-0.0686 13.42016,-0.0686 0.23316,-0.61325 c 0.12824,-0.33728 3.05083,-4.9986 6.49465,-10.35848 3.81174,-5.932495 6.2153,-9.92189 6.14343,-10.196752 -0.18214,-0.696506 -10.34186,-16.382796 -11.43808,-17.660053 l -0.97007,-1.130267 -0.53754,0.997976 c -0.29564,0.548886 -0.61418,1.474225 -0.70787,2.056308 -0.12806,0.795647 -0.28681,1.048712 -0.63961,1.019571 -0.32281,-0.02667 -0.51853,0.207533 -0.6271,0.750344 -0.0868,0.434009 -0.30881,0.84705 -0.49336,0.917867 -0.18455,0.07082 -0.89526,1.221445 -1.57936,2.556948 -0.68409,1.335502 -1.5282,2.832748 -1.87579,3.327209 -0.34759,0.494464 -0.63198,1.175105 -0.63198,1.512536 0,0.348377 -0.4002,1.013706 -0.92604,1.539552 -0.57095,0.570944 -0.92605,1.183066 -0.92605,1.596321 0,0.368652 -0.1073,0.670277 -0.23844,0.670277 -0.13115,0 -0.48035,0.409977 -0.77599,0.911061 -0.39405,0.667869 -0.82642,0.988846 -1.61974,1.202468 -0.59521,0.160271 -1.19399,0.222316 -1.33062,0.137874 -0.39022,-0.241168 -25.70697,-0.151281 -26.59458,0.09443 -0.61658,0.170674 -0.77858,0.353012 -0.72579,0.816877 0.0374,0.328435 -0.42426,1.50736 -1.02585,2.61983 -0.6016,1.11247 -1.68625,3.153763 -2.41034,4.536213 -0.7241,1.38244 -1.46114,2.69213 -1.63787,2.91041 -0.58704,0.72503 -2.53453,4.12803 -2.53453,4.42878 0,0.16276 -0.16925,0.46518 -0.37612,0.67205 -0.20687,0.20687 -0.59382,0.79085 -0.8599,1.29775 -0.26607,0.5069 -0.71168,1.35294 -0.99025,1.8801 -0.27856,0.52716 -0.69528,1.04784 -0.92604,1.15705 -0.23076,0.10922 -6.90847,0.26328 -14.83935,0.34236 -10.492673,0.10463 -14.404709,0.22508 -14.364397,0.44228 0.07225,0.3893 10.596927,17.0551 12.301327,19.47911 l 0.5116,0.72761 h 13.45737 13.45738 z M 49.817258,93.985383 c 0,-0.08514 -1.386684,-2.31756 -3.081522,-4.960938 -5.976853,-9.321889 -9.429219,-14.482363 -9.638427,-14.407173 -0.182171,0.06547 -4.059629,6.022204 -10.856744,16.678634 l -1.814194,2.844271 h 12.695443 c 6.982495,0 12.695444,-0.06966 12.695444,-0.154794 z M 162.56324,87.324629 c 6.06581,-9.420314 8.1686,-12.779497 8.1686,-13.049208 0,-0.229514 -5.92662,-0.344518 -14.2875,-0.277245 -1.96453,0.01581 -5.20898,0.02985 -7.20989,0.0312 -2.63831,0.0018 -3.63802,0.08913 -3.63802,0.317857 0,0.173466 0.57838,1.215263 1.28528,2.315104 0.70691,1.099841 3.2217,5.035805 5.58843,8.746586 4.84078,7.589832 5.50111,8.535342 5.82235,8.336807 0.12439,-0.07688 2.04623,-2.966374 4.27075,-6.421105 z M 127.34423,57.853885 c 0.007,-0.601505 0.43286,-1.077136 0.87772,-0.979845 0.34417,0.07527 0.30195,0.206479 -0.23014,0.715262 -0.41514,0.39695 -0.65016,0.492974 -0.64758,0.264583 z m -16.76424,-0.817469 c -0.16799,-0.106912 3.07792,-0.196209 7.21314,-0.198437 4.13521,-0.0022 7.45506,0.05946 7.37743,0.137095 -0.2206,0.220596 -14.24767,0.279569 -14.59057,0.06134 z m 15.91683,-0.118646 c 0.19099,-0.07643 0.4192,-0.06703 0.50712,0.02089 0.0879,0.08792 -0.0684,0.150453 -0.34727,0.138964 -0.30823,-0.0127 -0.37092,-0.07539 -0.15985,-0.159852 z"
         id="path99"
         inkscape:connector-curvature="0" />
      <path
         style="fill:#5e5a56;stroke-width:0.26458335"
         d="m 10.394341,165.79816 c 0,-4.68092 0.04321,-8.46115 0.09602,-8.40052 0.303573,0.34855 10.751898,16.63574 10.751898,16.76041 0,0.083 -2.440781,0.15088 -5.423959,0.15088 h -5.423958 z m 35.997018,5.39743 c -1.083881,-1.7074 -3.463105,-5.36656 -5.287166,-8.13145 -1.824059,-2.7649 -3.401126,-5.22779 -3.504594,-5.4731 -0.132874,-0.31502 0.878398,-2.1022 3.443422,-6.08542 5.247672,-8.14908 7.369236,-11.59102 7.838591,-12.71701 l 0.413581,-0.99218 -9.330113,-0.0319 c -5.131563,-0.0175 -10.669567,-0.0706 -12.306676,-0.11798 -1.63711,-0.0473 -2.976563,0.0191 -2.976563,0.14775 0,0.1286 -0.238125,0.21589 -0.529166,0.19396 -0.616004,-0.0464 -0.651523,-0.18997 -0.198438,-0.8021 0.301454,-0.40727 1.488079,-0.45273 13.405596,-0.51359 8.991344,-0.0459 13.10431,-0.15514 13.169144,-0.34972 0.07537,-0.22621 -9.164516,-14.87774 -12.166055,-19.29149 -0.394073,-0.57948 -0.716497,-1.14503 -0.716497,-1.25677 0,-0.11174 5.938546,-0.20316 13.196771,-0.20316 10.239055,0 13.25643,0.0741 13.462966,0.33073 0.146407,0.1819 0.831758,1.382 1.523,2.6669 1.220433,2.26856 1.246987,2.36592 0.917509,3.36425 -0.186616,0.56545 -0.619263,1.2911 -0.96144,1.61256 -0.342175,0.32145 -0.622139,0.71713 -0.622139,0.87927 0,0.16215 -0.238125,0.76188 -0.529167,1.33275 -0.291041,0.57086 -0.529166,1.18715 -0.529166,1.36955 0,0.18239 -0.238125,0.45906 -0.529167,0.61482 -0.291042,0.15576 -0.529167,0.46555 -0.529167,0.68842 0,0.22287 -0.296669,0.79417 -0.659262,1.26956 -0.362596,0.47539 -0.739206,1.27111 -0.836914,1.76828 -0.09771,0.49717 -0.568087,1.4181 -1.045287,2.04651 -0.477197,0.62841 -0.802225,1.31302 -0.722278,1.52136 0.09242,0.24083 -0.03359,0.38839 -0.345972,0.40516 -0.363902,0.0195 -0.319778,0.0813 0.17013,0.23821 0.363802,0.11651 4.445429,0.22371 9.070282,0.23821 7.148608,0.0224 8.43126,0.0848 8.558517,0.41646 0.149156,0.38869 -12.7351,20.77658 -13.12989,20.77658 -0.256686,0 -10.848909,16.49323 -10.848909,16.89291 0,0.20863 -0.773361,0.30359 -2.447396,0.30052 l -2.447396,-0.004 -1.970691,-3.10437 z m 33.852983,2.94108 c 0,-0.31453 10.446076,-16.47848 10.720819,-16.58908 0.148379,-0.0597 2.470097,3.34561 5.159375,7.56743 2.689281,4.22182 5.109654,8.01756 5.378604,8.43497 l 0.489,0.75894 H 91.118241 c -5.980644,0 -10.873899,-0.0775 -10.873899,-0.17226 z m 26.825878,-0.24359 c 0.0878,-0.22871 2.40181,-3.88988 5.14232,-8.13594 2.74051,-4.24605 5.07126,-7.87142 5.17945,-8.05639 0.1229,-0.2101 -1.74615,-3.33765 -4.9807,-8.33437 -5.24129,-8.09675 -6.93472,-10.5294 -7.44564,-10.69587 -0.155,-0.0505 -0.63125,0.62486 -1.05834,1.50081 -0.42708,0.87596 -0.86581,1.59292 -0.97495,1.59325 -0.10914,2.6e-4 -0.19894,0.14944 -0.19957,0.33134 -5.3e-4,0.1819 -0.35826,0.86651 -0.79476,1.52135 -0.4365,0.65484 -1.15361,1.905 -1.59359,2.77813 -1.066809,2.11707 -2.143626,4.00831 -2.996269,5.26244 -0.384816,0.56601 -0.699662,1.13392 -0.699662,1.26203 0,0.1281 -0.326027,0.73657 -0.724503,1.35214 -0.398478,0.61557 -0.868982,1.44664 -1.045562,1.84682 -0.177546,0.40237 -0.533731,0.72891 -0.796851,0.73052 -0.261686,0.002 -0.922277,0.0767 -1.46798,0.16691 -0.686429,0.11346 -0.992187,0.0661 -0.992187,-0.15351 0,-0.32433 1.835234,-3.21637 8.773454,-13.82561 2.1596,-3.30224 3.92655,-6.12998 3.92655,-6.28385 0,-0.19291 4.10735,-0.27977 13.22916,-0.27977 8.08288,0 13.22917,0.0968 13.22917,0.24878 0,0.13683 -2.81374,4.61695 -6.25276,9.95582 -3.43903,5.33887 -6.26676,9.90012 -6.28386,10.13612 -0.0282,0.38949 1.17708,0.43542 13.06579,0.49793 7.20328,0.0379 13.27547,-0.003 13.49375,-0.0918 0.48407,-0.19596 25.55363,-0.13533 26.07059,0.0631 0.20218,0.0776 0.4491,0.39787 0.54872,0.71174 0.0996,0.31387 1.14994,2.05904 2.33405,3.87816 1.18411,1.81912 3.38717,5.24225 4.89569,7.60696 1.50852,2.36471 2.90351,4.29948 3.09998,4.29948 0.19647,0 0.35722,0.11906 0.35722,0.26458 0,0.14552 -0.1786,0.26459 -0.39688,0.26459 -0.21828,0 -0.39687,-0.11907 -0.39687,-0.26459 0,-0.14552 -0.18562,-0.26458 -0.41249,-0.26458 -0.22687,0 -0.33891,0.11906 -0.24897,0.26458 0.0899,0.14552 -0.0122,0.26459 -0.22692,0.26459 -0.21474,0 -0.4505,-0.14883 -0.52389,-0.33073 -0.10677,-0.26459 -0.13763,-0.26459 -0.15434,0 -0.0163,0.25772 -1.99206,0.32983 -8.95058,0.32668 -5.86306,-0.003 -8.79339,-0.0921 -8.53281,-0.26054 0.21828,-0.14106 0.27186,-0.2583 0.11906,-0.26053 -0.1528,-0.002 -0.40083,0.11896 -0.55118,0.26931 -0.16619,0.1662 -1.4974,0.24399 -3.39578,0.19844 l -3.12243,-0.0749 -5.18994,-8.05114 c -2.85447,-4.42812 -5.309,-8.08746 -5.45452,-8.13186 -0.14553,-0.0444 -1.92532,2.50704 -3.95511,5.66988 -2.02978,3.16284 -4.41103,6.8567 -5.29166,8.20858 l -1.60115,2.45796 -2.99064,-0.0406 c -1.64485,-0.0223 -2.93687,-0.0944 -2.87116,-0.16007 0.0657,-0.0657 -0.12144,-0.37962 -0.41591,-0.69758 -0.29446,-0.31796 -1.38369,-1.87801 -2.42051,-3.46679 -2.02226,-3.09885 -2.65553,-3.72907 -3.07922,-3.06444 -0.13915,0.21828 -0.25483,0.70657 -0.25705,1.08508 -0.003,0.45604 -0.43585,1.14572 -1.28404,2.04444 -0.704,0.74593 -1.49968,1.84342 -1.76819,2.43886 -0.36138,0.80139 -0.61069,1.05058 -0.95976,0.9593 -0.30121,-0.0788 -0.52913,0.058 -0.6309,0.37867 -0.1491,0.46977 -0.48261,0.50199 -5.19689,0.50199 -4.47126,0 -5.01962,-0.0468 -4.87798,-0.41585 z m 90.64821,-17.57754 c -0.15627,-0.29198 -2.96379,-4.70154 -6.23895,-9.79902 -3.27515,-5.09748 -6.01884,-9.43497 -6.09709,-9.63888 -0.11993,-0.31254 0.87851,-0.36297 6.3604,-0.32129 l 6.50266,0.0494 0.002,10.12031 c 8e-4,5.56618 -0.0538,10.12032 -0.12145,10.12032 -0.0676,0 -0.25083,-0.2389 -0.4071,-0.53089 z M 15.325744,150.62872 c 0.08376,-0.21828 0.254883,-0.39688 0.380267,-0.39688 0.125385,0 0.15944,0.1786 0.07568,0.39688 -0.08376,0.21828 -0.254882,0.39687 -0.380267,0.39687 -0.125385,0 -0.159439,-0.17859 -0.07568,-0.39687 z m 2.480982,-3.71362 c 0.0072,-0.45549 0.490924,-1.03898 0.693417,-0.83648 0.108391,0.10839 -0.0042,0.39834 -0.250197,0.64435 -0.245999,0.24599 -0.445448,0.33246 -0.44322,0.19213 z M 132.2345,137.10946 c -0.35809,-0.38639 -0.57688,-0.83637 -0.4862,-0.99997 0.0907,-0.16359 3.07669,-4.85158 6.63557,-10.41775 l 6.47068,-10.12031 h 13.20978 13.20978 l 0.23408,-0.61568 c 0.12874,-0.33862 3.05175,-5.00103 6.49557,-10.36091 3.81174,-5.932495 6.2153,-9.92189 6.14343,-10.196752 -0.18664,-0.713706 -10.35607,-16.399578 -11.47866,-17.7053 -0.55585,-0.646532 -1.12979,-1.539501 -1.2754,-1.984375 l -0.26476,-0.808861 h -12.74411 c -7.00927,0 -12.8294,0.08536 -12.93362,0.18969 -0.26467,0.264942 3.34391,6.178862 10.82893,17.746959 0.82784,1.279427 1.43468,2.440287 1.34852,2.579688 -0.0958,0.155077 -4.95162,0.263691 -12.5103,0.279828 -6.79451,0.0145 -12.65131,0.10917 -13.01511,0.210365 -0.5273,0.146675 -0.66146,0.353677 -0.66146,1.020572 0,0.4841 -0.19255,0.980723 -0.457,1.178695 -0.49065,0.367313 -1.78902,2.772815 -1.79085,3.317921 -5.3e-4,0.18148 -0.41783,0.79123 -0.92715,1.35498 -0.50932,0.56376 -0.92604,1.10092 -0.92604,1.19368 0,0.0928 -0.36547,0.67318 -0.81215,1.2898 -0.49885,0.68863 -0.76992,1.34207 -0.70268,1.69382 0.0764,0.39944 -0.0682,0.65363 -0.47802,0.84034 -0.43252,0.19707 -0.55561,0.43438 -0.46667,0.89968 0.0723,0.37798 -0.0473,0.77148 -0.29733,0.97903 -0.22998,0.19087 -0.41815,0.51105 -0.41815,0.71151 0,0.20047 -0.21202,0.36448 -0.47116,0.36448 -0.41812,0 -1.15763,1.19721 -1.22574,1.98438 -0.0126,0.14552 -0.23606,0.42353 -0.49661,0.6178 -0.27469,0.20482 -0.41312,0.54414 -0.32949,0.80763 0.0793,0.24993 -0.0207,0.67999 -0.22232,0.95569 -0.73734,1.00837 -2.78006,1.15067 -16.96614,1.18184 l -13.493753,0.0297 -6.561299,-10.20128 c -3.608715,-5.610705 -6.486453,-10.322384 -6.394976,-10.4704 0.109543,-0.177242 4.687123,-0.259612 13.408382,-0.241273 7.678899,0.01614 13.343576,-0.07368 13.483706,-0.213807 0.13291,-0.132909 3.06733,-4.636003 6.52092,-10.006878 4.22848,-6.575936 6.42673,-9.765223 6.73078,-9.765223 0.30408,0 2.38762,3.023716 6.38103,9.260416 3.26124,5.093229 6.09661,9.48485 6.30082,9.759154 0.38957,0.52329 0.24403,0.736417 11.30867,-16.560083 0.90338,-1.412178 1.86437,-2.638014 2.13554,-2.72408 0.27117,-0.08607 0.81067,-0.698487 1.19889,-1.360935 0.38822,-0.662448 2.7776,-4.417567 5.30972,-8.344709 2.53212,-3.927143 4.60386,-7.249225 4.60386,-7.382407 0,-0.133181 1.16402,-0.242148 2.5867,-0.242148 h 2.58671 l 3.00289,4.696354 c 1.65159,2.582995 4.02968,6.327232 5.28465,8.320527 1.25497,1.993295 2.42278,3.630404 2.59513,3.638021 0.17236,0.0076 2.71965,-3.736621 5.66063,-8.320527 l 5.34726,-8.334375 h 7.89927 7.89926 l 4e-5,18.851563 4e-5,18.851562 -2.30475,-0.09559 c -1.26762,-0.05257 -4.12514,-0.01027 -6.35004,0.094 -3.13017,0.146701 -4.04529,0.270552 -4.04529,0.547484 0,0.390046 1.26123,2.42108 8.16674,13.151444 2.70848,4.20866 4.47934,7.21023 4.36398,7.39688 -0.10677,0.17275 -0.34724,0.49786 -0.53439,0.72244 -0.18714,0.22459 -3.06017,4.63505 -6.38451,9.80104 -3.32435,5.16599 -6.17921,9.39271 -6.34414,9.39271 -0.16493,0 -2.24662,-3.0361 -4.62597,-6.74688 -4.036,-6.29443 -7.0577,-10.83961 -7.98148,-12.00557 -0.21623,-0.27291 -0.5534,-0.43471 -0.74927,-0.35954 -0.5037,0.19328 -11.31096,18.35982 -11.31096,19.01323 0,0.11586 -0.46806,0.33669 -1.04012,0.49074 -0.6066,0.16334 -1.25937,0.58114 -1.56614,1.00238 l -0.52601,0.72231 -12.06533,0.0739 -12.06533,0.0739 z M 10.394341,125.96105 v -10.51246 l 0.619441,0.92132 c 2.866178,4.26295 12.609726,19.56333 12.609726,19.80116 0,0.2188 -1.829264,0.30244 -6.614584,0.30244 h -6.614583 z m 67.612253,10.26601 c -0.229888,-0.37196 12.327449,-19.96605 12.854059,-20.05708 0.216932,-0.0375 1.04752,1.13791 2.056607,2.91042 0.930989,1.63533 3.639661,6.03992 6.019271,9.78798 2.379609,3.74807 4.326559,6.85646 4.326559,6.90754 0,0.0511 -5.030388,0.16801 -11.178643,0.25983 -6.148256,0.0918 -11.788254,0.24154 -12.533332,0.33271 -0.906176,0.11089 -1.417534,0.0641 -1.544521,-0.1414 z M 10.398393,114.06569 c 0.003,-0.74812 0.07014,-0.90554 0.260531,-0.61093 0.154109,0.23847 0.258098,0.2711 0.260532,0.0818 0.0022,-0.17331 -0.115011,-0.3887 -0.260532,-0.47863 -0.14552,-0.0899 -0.26276,-0.36486 -0.260531,-0.61093 0.0035,-0.38557 0.0395,-0.39256 0.260531,-0.0505 0.154109,0.23846 0.258098,0.2711 0.260532,0.0818 0.0022,-0.17331 -0.112357,-0.38706 -0.254635,-0.47499 -0.164524,-0.10168 -0.261704,-7.08981 -0.266976,-19.197909 l -0.0083,-19.038031 h 13.363851 c 7.350117,0 13.36385,-0.102531 13.36385,-0.227847 0,-0.125316 -1.979346,-3.310238 -4.398547,-7.077604 -2.4192,-3.767366 -4.798971,-7.474835 -5.28838,-8.238819 l -0.889834,-1.389063 11.572235,0.02089 c 6.364729,0.01149 11.422666,0.08119 11.239857,0.15489 -0.182808,0.0737 -0.264514,0.243808 -0.181567,0.378016 0.08294,0.134208 -0.03538,0.4302 -0.262935,0.657759 -0.227561,0.22756 -0.417365,0.315943 -0.421791,0.196408 -0.0044,-0.119535 -0.130749,-0.0066 -0.280718,0.251024 -0.149971,0.257598 -0.199792,0.697992 -0.110712,0.978653 0.102301,0.322321 -0.02833,0.700582 -0.354621,1.026875 -0.284118,0.284119 -0.595929,0.766586 -0.69291,1.072148 -0.09698,0.305562 -0.405161,0.678033 -0.684839,0.827713 -0.614802,0.329031 -1.209276,1.420805 -1.386732,2.546781 -0.142224,0.902435 -1.240242,2.948331 -2.234538,4.163542 -0.344408,0.420927 -0.915064,1.335373 -1.268122,2.032103 -0.35306,0.696729 -0.890989,1.441231 -1.195401,1.654449 -0.431948,0.302548 -0.476591,0.437108 -0.203313,0.612831 0.192587,0.12384 5.618676,0.267505 12.057973,0.319256 6.948741,0.05585 11.707812,0.193818 11.707812,0.339426 0,0.134934 -0.931823,1.640809 -2.070716,3.34639 -1.138894,1.705581 -4.008091,6.107586 -6.375993,9.782235 -2.367899,3.674647 -4.404429,6.742457 -4.525616,6.817355 -0.12119,0.0749 -1.032227,-1.124297 -2.024531,-2.664881 C 44.52144,84.637923 37.703059,74.36305 37.486196,74.233311 c -0.130157,-0.07787 -3.203421,4.494891 -6.829479,10.16168 -3.626057,5.66679 -6.794376,10.411116 -7.040707,10.54295 -0.385507,0.206317 -1.790959,2.260422 -5.699766,8.330359 -0.468549,0.72761 -2.233594,3.45317 -3.922322,6.05681 -1.688728,2.60363 -3.070414,4.88856 -3.070414,5.07761 0,0.18905 -0.119063,0.41731 -0.264584,0.50725 -0.158928,0.0982 -0.262965,-0.23892 -0.260531,-0.84428 z M 24.681841,95.330802 c -0.292011,-0.351853 1.130032,-0.396875 12.535313,-0.396875 11.715446,0 13.817476,0.106931 12.446172,0.633151 -0.230182,0.08833 -5.871072,0.160599 -12.53531,0.160599 -10.447708,0 -12.162169,-0.05467 -12.446175,-0.396875 z M 158.73064,94.729753 c -0.0799,-0.129333 0.41474,-1.065019 1.09929,-2.079299 0.68454,-1.01428 1.58997,-2.394516 2.01207,-3.067188 0.42209,-0.672674 0.97882,-1.278318 1.23716,-1.345877 0.25835,-0.06756 0.80596,-0.761365 1.21693,-1.541793 l 0.74721,-1.418961 0.0815,0.980985 c 0.0922,1.109885 -0.3119,2.061724 -0.8752,2.061724 -0.48384,0 -0.92604,0.823923 -0.92604,1.72544 0,0.495464 -0.42239,1.127676 -1.43621,2.149615 -1.34394,1.354717 -1.39981,1.461183 -0.8697,1.657287 0.55446,0.205105 0.55546,0.215371 0.0472,0.482309 -0.80885,0.424765 -2.17321,0.656098 -2.33411,0.395758 z m 3.26995,-3.912483 c 0,-0.22687 -0.11906,-0.338905 -0.26458,-0.248968 -0.14552,0.08994 -0.26458,0.275558 -0.26458,0.412491 0,0.136932 0.11906,0.248967 0.26458,0.248967 0.14552,0 0.26458,-0.185621 0.26458,-0.41249 z m 4.16719,-6.119895 c -0.25466,-0.06655 -0.46302,-0.220183 -0.46302,-0.34141 0,-0.12123 0.23813,-0.158144 0.52917,-0.08203 0.29104,0.07611 0.52916,0.243557 0.52916,0.372104 0,0.128548 -0.0298,0.219914 -0.0661,0.203034 -0.0364,-0.01688 -0.27451,-0.08514 -0.52917,-0.151694 z m 0.8599,-2.198865 c 0,-0.14552 0.12609,-0.264583 0.2802,-0.264583 0.15411,0 0.20661,0.119063 0.11667,0.264583 -0.0899,0.145521 -0.21602,0.264584 -0.2802,0.264584 -0.0642,0 -0.11667,-0.119063 -0.11667,-0.264584 z m 1.5875,-2.338984 c 0,-0.11314 0.1748,-0.436825 0.38846,-0.7193 0.38056,-0.503149 0.38863,-0.502063 0.39687,0.05341 0.005,0.311853 -0.17018,0.635538 -0.38846,0.719301 -0.21828,0.08376 -0.39687,0.05973 -0.39687,-0.05342 z M 65.930484,75.950793 c -0.576416,-0.763589 -1.105331,-1.537495 -1.175366,-1.719792 -0.101161,-0.263322 2.470078,-0.316304 12.50959,-0.257764 6.95031,0.04053 12.794081,0.129281 12.986158,0.197233 0.238781,0.08448 -0.04551,0.625993 -0.898928,1.712253 -1.140669,1.451891 -1.699802,1.909441 -1.698926,1.390266 1.82e-4,-0.10914 -1.815521,-0.171039 -4.034896,-0.137552 -2.219378,0.03349 -6.871216,0.09302 -10.337417,0.132292 l -6.302184,0.07141 z M 86.065176,66.074047 C 83.37304,61.828448 80.950333,58.012585 80.681381,57.594351 l -0.489003,-0.760424 h 13.398873 13.398869 l 0.98076,1.595058 c 0.53942,0.877282 2.85599,4.531564 5.14794,8.120627 2.29196,3.589062 4.16719,6.621755 4.16719,6.739317 0,0.117561 -4.86327,0.213748 -10.80727,0.213748 -5.944,0 -11.867358,0.06539 -13.163023,0.145321 l -2.35575,0.14532 z"
         id="path97"
         inkscape:connector-curvature="0" />
      <path
         style="fill:#bb2821;stroke-width:0.26458335"
         d="m 17.515837,173.83018 c -0.647738,-0.69127 -1.989913,-2.73913 -2.46468,-3.76055 -0.235214,-0.50604 -0.694613,-1.30323 -1.020885,-1.77152 -1.397269,-2.00547 -1.80463,-2.66724 -2.488962,-4.04335 -0.398017,-0.80036 -0.82364,-1.52469 -0.945829,-1.60961 -0.12219,-0.0849 -0.187667,-1.27555 -0.145506,-2.64583 0.06812,-2.2139 0.112607,-2.41081 0.399371,-1.76769 0.342592,0.76833 8.691296,13.76122 9.778079,15.2174 l 0.641763,0.8599 -1.667111,-0.0157 c -1.208562,-0.0114 -1.782395,-0.13876 -2.08624,-0.46302 z m 62.728505,0.34948 c 0,-0.0711 0.177522,-0.33899 0.394494,-0.59531 0.216972,-0.25633 2.568456,-3.85055 5.225521,-7.98715 2.657065,-4.13661 4.952058,-7.56032 5.099987,-7.60824 0.147926,-0.0479 0.798853,0.77674 1.446506,1.83257 2.8356,4.62272 8.81198,13.8337 9.02794,13.91413 0.13024,0.0485 0.2368,0.19734 0.2368,0.33073 0,0.143 -4.397693,0.24254 -10.715623,0.24254 -5.893593,0 -10.715625,-0.0582 -10.715625,-0.12927 z m 32.024418,-7.79679 c 2.88803,-4.35933 5.38116,-8.16933 5.54029,-8.46666 0.28525,-0.533 0.46972,-0.54062 13.0967,-0.54062 7.44107,0 12.86993,0.10124 12.95669,0.24162 0.0821,0.13288 -2.2028,3.9366 -5.07762,8.4527 l -5.22694,8.21108 -2.41301,0.014 -2.41301,0.014 -1.54131,-2.44739 c -3.3378,-5.29996 -8.01005,-12.26338 -8.55386,-12.74846 -0.49694,-0.44327 -0.62263,-0.46092 -0.94257,-0.1323 -0.41625,0.42755 -1.99961,3.12292 -5.58493,9.50732 -2.98871,5.322 -3.3609,5.82083 -4.34303,5.82083 -0.72122,0 -0.55792,-0.28745 4.5026,-7.92605 z m 43.11725,7.63557 c 0,-0.27735 -1.94589,-3.52914 -3.62604,-6.05951 -2.73508,-4.11913 -6.42813,-10.0258 -6.42813,-10.28117 0,-0.36043 24.78317,-0.43357 25.34883,-0.0748 0.25935,0.16449 -0.26326,1.17132 -2.09231,4.03085 -1.3409,2.09637 -3.04428,4.77814 -3.78528,5.95948 -0.741,1.18134 -2.00212,3.1698 -2.80249,4.4188 l -1.4552,2.2709 -2.57969,0.013 c -1.70465,0.009 -2.57969,-0.0856 -2.57969,-0.27751 z M 62.353355,155.19278 c -0.670325,-1.05502 -1.532748,-2.41578 -1.916497,-3.0239 -0.845994,-1.34064 -5.892824,-9.20261 -8.160626,-12.71265 -0.903136,-1.39785 -1.58252,-2.6379 -1.509741,-2.75566 0.120861,-0.19556 -4.050806,-6.85057 -10.421819,-16.62581 -1.373285,-2.10708 -2.555351,-3.98342 -2.626818,-4.16965 -0.104711,-0.27288 2.451077,-0.32529 13.165842,-0.27 12.321207,0.0636 13.317141,0.10248 13.58722,0.53071 0.214722,0.34047 0.208242,0.59533 -0.02461,0.9682 -0.185496,0.29703 -0.25101,0.90693 -0.158594,1.47643 0.120182,0.74058 0.07018,0.95811 -0.211177,0.91868 -0.762966,-0.1069 -1.030102,0.0259 -1.030102,0.51223 0,0.27565 -0.357188,0.88356 -0.79375,1.3509 -0.436563,0.46734 -0.80286,0.92642 -0.813993,1.02017 -0.07393,0.62247 -0.248026,1.28114 -0.461677,1.74664 -0.136433,0.29727 -0.420259,1.13579 -0.630722,1.8634 -0.338741,1.17108 -0.461118,1.31758 -1.066244,1.27639 -0.540941,-0.0368 -0.753624,0.12881 -1.019241,0.79375 -0.184613,0.46215 -0.681972,1.33256 -1.105242,1.93423 -0.5212,0.74089 -0.740833,1.33865 -0.680503,1.85209 0.06873,0.58491 -0.01924,0.75865 -0.385022,0.76043 -0.586697,0.003 -0.957146,0.56133 -0.791792,1.19365 0.07929,0.30321 -0.17549,0.74318 -0.702085,1.21238 -0.704545,0.62775 -0.764352,0.77125 -0.405196,0.97225 0.231741,0.12969 5.478635,0.30389 11.659764,0.38712 6.18113,0.0832 11.283263,0.22387 11.338071,0.31256 0.151061,0.24442 -12.117311,19.25556 -12.818615,19.8638 -0.336034,0.29144 -0.653066,0.52989 -0.704514,0.52989 -0.05145,0 -0.641988,-0.8632 -1.31231,-1.91823 z m 54.880515,1.19706 c -0.4217,-0.4824 -4.0659,-6.12489 -7.73653,-11.97883 -1.14058,-1.81901 -2.70378,-4.25833 -3.47377,-5.4207 -0.76999,-1.16237 -1.35815,-2.15524 -1.30702,-2.20637 0.11262,-0.11262 25.61064,-0.0574 25.72374,0.0557 0.18924,0.18924 -1.8087,3.48514 -6.91531,11.40787 -3.00146,4.65667 -5.5525,8.49933 -5.66897,8.53925 -0.11646,0.0399 -0.39643,-0.13867 -0.62214,-0.39688 z m 80.58552,-0.20487 c -0.16325,-0.43656 -2.93145,-4.87495 -6.15156,-9.86309 -3.2201,-4.98814 -5.85474,-9.19898 -5.85474,-9.35742 0,-0.16963 0.24478,-0.22249 0.59532,-0.12855 0.32742,0.0877 0.98929,0.16117 1.47082,0.16316 0.52728,0.002 0.80914,0.111 0.70864,0.27361 -0.0918,0.1485 0.14501,0.64065 0.5262,1.09366 0.38119,0.45301 0.91283,1.25425 1.18143,1.78052 0.2686,0.52627 0.73916,1.18367 1.04569,1.46089 0.30653,0.27721 0.55732,0.71456 0.55732,0.97188 0,0.25733 0.29766,0.82161 0.66146,1.25396 0.3638,0.43236 0.66146,0.90776 0.66146,1.05645 0,0.14869 0.47625,0.78108 1.05833,1.40531 0.58208,0.62423 1.06744,1.25929 1.07858,1.41125 0.0655,0.89346 0.30066,1.33586 1.14738,2.15819 0.51929,0.50433 1.02121,1.23971 1.11538,1.63419 0.0942,0.39448 0.27907,0.85478 0.41089,1.02289 0.13183,0.1681 0.2047,1.23967 0.16196,2.38125 -0.0701,1.87274 -0.10674,1.99802 -0.37456,1.28185 z m -65.335,-18.76379 c -0.28224,-0.20638 -0.4142,-0.47427 -0.29324,-0.59531 0.12097,-0.12104 5.74648,-0.24609 12.50115,-0.27789 11.82106,-0.0557 12.28121,-0.0394 12.28121,0.43471 0,0.2709 -0.18833,0.56481 -0.41852,0.65314 -0.23018,0.0883 -5.62476,0.1606 -11.98797,0.1606 -9.56991,0 -11.65814,-0.0649 -12.08263,-0.37525 z M 10.394341,136.10494 c 0,-0.58199 0.623489,-0.68976 3.99039,-0.68976 2.571536,0 3.15336,-0.0705 3.15336,-0.38188 0,-0.48579 -1.011751,-1.20305 -1.712517,-1.21404 -0.513739,-0.008 -0.515961,-0.0239 -0.05251,-0.37519 0.523554,-0.3968 0.347203,-1.04328 -0.46949,-1.72107 -0.226226,-0.18775 -0.41132,-0.60063 -0.41132,-0.91751 0,-0.31688 -0.140321,-0.71647 -0.311825,-0.88797 -0.171503,-0.1715 -0.567217,-0.82039 -0.879364,-1.44198 -0.338839,-0.67474 -0.780126,-1.16167 -1.095087,-1.20837 -0.381236,-0.0565 -0.595977,-0.38674 -0.774282,-1.19063 -0.167673,-0.75596 -0.437491,-1.1961 -0.842046,-1.37358 -0.327422,-0.14365 -0.595313,-0.41857 -0.595313,-0.61093 0,-0.19236 0.107156,-0.28352 0.238125,-0.20258 0.130969,0.0809 0.238125,-0.26922 0.238125,-0.77814 0,-0.50891 -0.09841,-0.9253 -0.2187,-0.9253 -0.120285,0 -0.227655,-1.43591 -0.2386,-3.19091 -0.0129,-2.06853 0.07333,-3.13329 0.245158,-3.02709 0.145782,0.0901 0.265059,0.27346 0.265059,0.40747 0,0.18415 7.136946,11.36826 12.12205,18.99613 0.346742,0.53056 0.35068,0.65153 0.02786,0.85585 -0.206774,0.13087 -3.144157,0.23977 -6.527516,0.242 -5.083622,0.003 -6.151563,-0.0599 -6.151563,-0.36452 z m 7.461096,-0.0933 c -1.353428,-0.0481 -3.496553,-0.0479 -4.7625,5.3e-4 -1.265946,0.0484 -0.158596,0.0878 2.460779,0.0875 2.619375,-2.6e-4 3.65515,-0.0399 2.301721,-0.088 z m 60.462434,0.0144 c -0.142369,-0.24411 12.133416,-19.2172 12.521018,-19.35212 0.484859,-0.16877 0.246975,0.43438 -0.779452,1.97627 -0.568053,0.85333 -1.821469,3.09431 -2.785367,4.97995 -0.963901,1.88565 -1.841008,3.49299 -1.949127,3.57188 -0.108119,0.0789 -0.343868,0.44108 -0.523886,0.80489 -1.000688,2.0223 -2.566757,4.65824 -2.876613,4.84179 -0.196451,0.11637 -0.357185,0.48188 -0.357185,0.81224 0,0.8339 -1.286769,2.18174 -2.289916,2.39859 -0.459089,0.0992 -0.890852,0.0842 -0.959472,-0.0335 z m 78.721789,0.008 c -0.1819,-0.0734 -0.33073,-0.3219 -0.33073,-0.55222 0,-0.36542 -1.33107,-2.66874 -3.0331,-5.24858 -0.29633,-0.44915 -1.55081,-2.39125 -2.78774,-4.31578 -1.23692,-1.92452 -3.11216,-4.7986 -4.16718,-6.38684 -1.05503,-1.58824 -1.91823,-3.12871 -1.91823,-3.42328 0,-0.53057 0.12361,-0.53557 13.23571,-0.53557 h 13.23572 l 0.23408,-0.61568 c 0.12874,-0.33862 3.05175,-5.00103 6.49557,-10.36091 3.81174,-5.932495 6.2153,-9.92189 6.14343,-10.196752 -0.20188,-0.771981 -10.42902,-16.501335 -11.57717,-17.805712 -0.9254,-1.051302 -1.06118,-1.352741 -0.91309,-2.027001 0.0957,-0.435625 0.31363,-0.882709 0.48433,-0.993518 0.17071,-0.11081 5.94301,-0.261003 12.82733,-0.333763 l 12.51695,-0.132292 -1.80133,-2.848757 c -0.99073,-1.566816 -3.18117,-5.019628 -4.86764,-7.672916 -1.68648,-2.653288 -3.14374,-5.038992 -3.23836,-5.301564 -0.15263,-0.423535 -0.0308,-0.468318 1.0799,-0.396875 1.37434,0.0884 1.06227,-0.252051 3.8329,4.18157 0.50016,0.800365 1.13701,1.797435 1.41521,2.215712 0.27821,0.418277 0.80349,1.207856 1.16729,1.75462 0.3638,0.546764 1.08659,1.633287 1.60619,2.414496 0.5196,0.78121 1.08514,1.825101 1.25677,2.319758 0.22157,0.638614 0.312,4.32084 0.31191,12.7 l -1.3e-4,11.800623 -6.59669,-0.03869 c -5.39558,-0.03164 -6.62222,0.02789 -6.73699,0.326962 -0.0772,0.201107 0.2079,1.051954 0.6335,1.890771 0.82682,1.629613 0.94589,3.309453 0.24497,3.455974 -0.3918,0.0819 -1.47784,2.124404 -1.35017,2.539254 0.0401,0.13022 -0.20407,0.54694 -0.54253,0.92604 -1.16816,1.3084 -2.20181,2.81029 -2.84162,4.12886 -0.35306,0.7276 -0.88154,1.5209 -1.17441,1.76289 -0.37933,0.31343 -0.51447,0.70732 -0.46987,1.36955 0.0518,0.76932 -0.10965,1.09701 -0.93656,1.90076 -0.5576,0.54198 -0.96561,1.17581 -0.92325,1.43421 0.10266,0.62614 -0.39784,0.98239 -1.66341,1.18399 -0.58208,0.0927 -1.65365,0.27157 -2.38125,0.39742 -0.77789,0.13456 -1.44522,0.12975 -1.61977,-0.0117 -0.19896,-0.1612 -0.39772,0.003 -0.60272,0.49789 -0.16821,0.40612 -1.42322,2.46188 -2.78889,4.56834 -1.36567,2.10646 -3.16792,4.9015 -4.00498,6.21119 -6.38139,9.98444 -6.17764,9.73248 -7.45395,9.21748 z m -52.98282,-20.91795 -13.096873,-0.0826 -6.32392,-9.84903 c -3.478154,-5.416967 -6.335654,-10.028589 -6.35,-10.24805 -0.02283,-0.349353 1.501429,-0.407583 12.246288,-0.467831 6.749801,-0.03785 12.662015,0.03878 13.138265,0.170275 0.54871,0.151509 0.96226,0.142733 1.12894,-0.02394 0.2699,-0.269899 25.65237,-0.318998 26.35085,-0.05097 0.19516,0.07489 0.43444,-0.07128 0.53174,-0.324831 0.29541,-0.769848 12.70508,-19.942342 12.90795,-19.942342 0.10393,0 0.69077,0.863203 1.30408,1.918229 1.7581,3.024309 3.52453,5.885283 5.8401,9.458854 1.17867,1.819011 2.95129,4.587214 3.93917,6.151563 l 1.79614,2.844271 -12.35272,0.02638 c -6.79399,0.0145 -12.65037,0.109169 -13.01417,0.210365 -0.5273,0.146674 -0.66146,0.353676 -0.66146,1.020572 0,0.4841 -0.19255,0.980723 -0.457,1.178694 -0.49065,0.367314 -1.78902,2.772815 -1.79085,3.317911 -5.3e-4,0.18148 -0.41783,0.79123 -0.92715,1.35499 -0.50932,0.56376 -0.92604,1.10091 -0.92604,1.19368 0,0.0928 -0.36547,0.67317 -0.81215,1.2898 -0.49885,0.68863 -0.76992,1.34206 -0.70268,1.69381 0.0764,0.39945 -0.0682,0.65364 -0.47802,0.84035 -0.43252,0.19707 -0.55561,0.43438 -0.46667,0.89967 0.0723,0.37798 -0.0473,0.77149 -0.29733,0.97904 -0.22998,0.19086 -0.41815,0.51104 -0.41815,0.7115 0,0.20047 -0.21202,0.36448 -0.47116,0.36448 -0.41812,0 -1.15763,1.19721 -1.22574,1.98438 -0.0126,0.14552 -0.23925,0.42576 -0.50369,0.62276 -0.27355,0.20379 -0.41352,0.53349 -0.32473,0.76489 0.0858,0.22368 -0.0172,0.6712 -0.22905,0.99447 -0.3687,0.56272 -1.03851,0.75633 -3.46334,1.00113 -0.43656,0.0441 -6.68735,0.043 -13.89063,-0.002 z m 54.72208,-20.316692 c -0.0844,-0.0844 0.15946,-0.487987 0.54192,-0.896855 0.38246,-0.408869 0.99303,-1.174155 1.35684,-1.700636 0.3638,-0.526481 0.81028,-0.960517 0.99218,-0.964523 0.18468,-0.0041 0.33073,-0.336783 0.33073,-0.753409 0,-0.463788 0.33612,-1.139597 0.88824,-1.785937 0.48853,-0.571897 1.17314,-1.575594 1.52135,-2.230438 l 0.63312,-1.190625 0.0815,0.980985 c 0.0922,1.109885 -0.3119,2.061724 -0.8752,2.061724 -0.48384,0 -0.92604,0.823923 -0.92604,1.72544 0,0.495464 -0.42239,1.127676 -1.43621,2.149615 -1.34394,1.354717 -1.39981,1.461183 -0.8697,1.657287 0.55446,0.205105 0.55546,0.215371 0.0472,0.482309 -0.70554,0.370512 -2.09723,0.653658 -2.28583,0.465063 z M 22.036008,94.523175 c -0.218281,-0.04663 -0.962422,-0.159179 -1.653646,-0.250103 -1.084171,-0.142613 -1.256771,-0.248304 -1.256771,-0.769559 0,-0.33233 -0.238125,-0.819738 -0.529167,-1.083128 -0.291041,-0.26339 -0.529166,-0.610854 -0.529166,-0.772144 0,-0.161287 -0.416719,-0.912045 -0.926042,-1.668346 -0.509323,-0.756301 -0.926042,-1.461413 -0.926042,-1.566915 0,-0.105503 -0.221841,-0.437621 -0.49298,-0.738042 -0.27114,-0.300421 -0.877168,-1.260594 -1.346729,-2.133719 -0.469561,-0.873125 -1.021625,-1.775468 -1.22681,-2.005209 -0.205185,-0.22974 -0.373064,-0.543468 -0.373064,-0.697174 0,-0.153707 -0.297656,-0.474498 -0.661458,-0.71287 -0.363802,-0.238373 -0.661459,-0.596251 -0.661459,-0.795287 0,-0.199035 -0.23551,-0.880899 -0.523356,-1.515254 -0.398589,-0.878412 -0.524741,-1.736826 -0.529166,-3.600769 l -0.0058,-2.447396 H 23.7558 c 9.272584,0 13.361458,0.08621 13.361458,0.281703 0,0.154937 -2.933508,4.857906 -6.518907,10.451041 -6.347048,9.901243 -6.540612,10.16853 -7.342188,10.138648 -0.452804,-0.01688 -1.001874,-0.06884 -1.220155,-0.115477 z m 31.220834,-4.351748 c 0.15576,-0.291042 0.342733,-0.529167 0.415493,-0.529167 0.07276,0 0.0048,0.238125 -0.15091,0.529167 -0.15576,0.291042 -0.342733,0.529167 -0.415494,0.529167 -0.07276,0 -0.0048,-0.238125 0.150911,-0.529167 z m 1.315029,-2.101932 c 0.151424,-0.282938 0.406088,-0.595252 0.56592,-0.694034 0.159835,-0.09878 0.08597,0.132712 -0.164142,0.514432 -0.529595,0.808265 -0.803836,0.930855 -0.401778,0.179602 z m 111.595909,-3.37212 c -0.25466,-0.06655 -0.46302,-0.220183 -0.46302,-0.34141 0,-0.12123 0.23813,-0.158144 0.52917,-0.08203 0.29104,0.07611 0.52916,0.243557 0.52916,0.372104 0,0.128548 -0.0298,0.219914 -0.0661,0.203034 -0.0364,-0.01688 -0.27451,-0.08514 -0.52917,-0.151694 z m 0.8599,-2.198865 c 0,-0.14552 0.12609,-0.264583 0.2802,-0.264583 0.15411,0 0.20661,0.119063 0.11667,0.264583 -0.0899,0.145521 -0.21602,0.264584 -0.2802,0.264584 -0.0642,0 -0.11667,-0.119063 -0.11667,-0.264584 z m 1.5875,-2.338984 c 0,-0.11314 0.1748,-0.436825 0.38846,-0.7193 0.38056,-0.503149 0.38863,-0.502063 0.39687,0.05341 0.005,0.311853 -0.17018,0.635538 -0.38846,0.719301 -0.21828,0.08376 -0.39687,0.05973 -0.39687,-0.05342 z M 60.772202,78.570641 c 0.103833,-0.168005 0.0627,-0.305464 -0.09141,-0.305464 -0.154109,0 -0.280199,-0.178594 -0.280199,-0.396875 0,-0.232825 -0.246076,-0.400168 -0.595313,-0.404842 -5.740521,-0.07682 -18.531168,-0.0037 -18.641417,0.106501 -0.289997,0.289998 -1.070629,-0.360493 -2.152973,-1.794046 -0.604933,-0.801231 -1.099918,-1.551188 -1.09996,-1.666573 -7.7e-5,-0.200004 25.426551,-0.134631 25.63018,0.0659 0.0538,0.05298 -0.343792,0.697899 -0.883526,1.433164 -0.539734,0.735265 -1.006943,1.511321 -1.038241,1.724569 -0.0313,0.213247 -0.158816,0.480466 -0.283371,0.593819 -0.124585,0.113376 -0.129477,0.03891 -0.01087,-0.165514 0.14958,-0.257823 0.116536,-0.31039 -0.10791,-0.171675 -0.177924,0.109964 -0.261051,0.362672 -0.184727,0.561574 0.07633,0.198901 0.0065,0.443379 -0.155133,0.543284 -0.177975,0.109993 -0.21944,0.06115 -0.105122,-0.123818 z M 32.755203,66.168434 C 30.178141,62.125861 27.71849,58.371818 27.289312,57.826115 l -0.780323,-0.992188 11.587989,0.02089 c 6.373392,0.01149 11.43842,0.08119 11.255611,0.15489 -0.182808,0.0737 -0.264514,0.243808 -0.181567,0.378016 0.08294,0.134208 -0.03538,0.4302 -0.262935,0.657759 -0.227561,0.22756 -0.417365,0.315943 -0.421791,0.196408 -0.0044,-0.119535 -0.130749,-0.0066 -0.280718,0.251024 -0.149971,0.257598 -0.199792,0.697992 -0.110712,0.978653 0.102301,0.322321 -0.02833,0.700582 -0.354621,1.026875 -0.284118,0.284119 -0.595929,0.766586 -0.69291,1.072148 -0.09698,0.305562 -0.405161,0.678033 -0.684839,0.827713 -0.614802,0.329031 -1.209276,1.420805 -1.386732,2.546781 -0.142224,0.902435 -1.240242,2.948331 -2.234538,4.163542 -0.344408,0.420927 -0.915064,1.335373 -1.268122,2.032103 -0.35306,0.696729 -0.881488,1.434576 -1.174287,1.639659 -0.292798,0.205084 -0.453742,0.451497 -0.357653,0.547585 0.232045,0.232046 0.114255,0.221606 -0.952974,-0.08447 -0.599593,-0.171962 -1.012007,-0.169288 -1.22556,0.0079 -0.239393,0.198679 -1.522401,-1.616136 -5.007427,-7.08301 z m 57.739685,6.380163 C 87.506099,67.826578 81.385522,58.385276 80.864883,57.693823 l -0.64747,-0.859896 h 13.396971 c 10.402636,0 13.372996,0.07193 13.289696,0.32184 -0.059,0.177012 0.48324,1.27834 1.20498,2.447396 3.0697,4.972167 4.55503,7.338028 6.52542,10.393785 l 2.08993,3.241146 -10.23639,0.0014 c -5.63001,7.41e-4 -11.384926,0.07743 -12.7887,0.170399 l -2.552311,0.16903 -0.652121,-1.030294 z m 55.101542,0.709464 c 0,-0.191232 3.80163,-6.187218 8.05069,-12.697636 0.98921,-1.515687 1.82556,-2.944437 1.85855,-3.175 0.0636,-0.44442 1.10222,-0.648835 2.55127,-0.502116 l 0.81884,0.08291 -0.55426,0.635796 c -0.30484,0.349688 -0.55426,0.787037 -0.55426,0.971887 0,0.18485 -0.27988,0.672648 -0.62195,1.083996 -0.34208,0.411347 -1.07122,1.759935 -1.62031,2.996862 -0.5491,1.236927 -1.26731,2.546615 -1.59603,2.910417 -0.32872,0.363802 -0.84217,1.225021 -1.14099,1.91382 -0.29882,0.688799 -0.84854,1.652537 -1.2216,2.141641 -0.37306,0.489104 -0.67829,1.003132 -0.67829,1.142285 0,0.659295 -0.73982,1.705091 -1.4552,2.057053 -0.87214,0.429079 -3.83646,0.767575 -3.83646,0.438085 z"
         id="path95"
         inkscape:connector-curvature="0" />
      <path
         style="fill:#54151a;stroke-width:0.26458335"
         d="m 17.515837,173.83018 c -0.647738,-0.69127 -1.989913,-2.73913 -2.46468,-3.76055 -0.235214,-0.50604 -0.694613,-1.30323 -1.020885,-1.77152 -1.397269,-2.00547 -1.80463,-2.66724 -2.488962,-4.04335 -0.398017,-0.80036 -0.82364,-1.52469 -0.945829,-1.60961 -0.12219,-0.0849 -0.187667,-1.27555 -0.145506,-2.64583 0.06812,-2.2139 0.112607,-2.41081 0.399371,-1.76769 0.342592,0.76833 8.691296,13.76122 9.778079,15.2174 l 0.641763,0.8599 -1.667111,-0.0157 c -1.208562,-0.0114 -1.782395,-0.13876 -2.08624,-0.46302 z m 62.728505,0.34948 c 0,-0.0711 0.177522,-0.33899 0.394494,-0.59531 0.216972,-0.25633 2.568456,-3.85055 5.225521,-7.98715 2.657065,-4.13661 4.952058,-7.56032 5.099987,-7.60824 0.147926,-0.0479 0.798853,0.77674 1.446506,1.83257 2.8356,4.62272 8.81198,13.8337 9.02794,13.91413 0.13024,0.0485 0.2368,0.19734 0.2368,0.33073 0,0.143 -4.397693,0.24254 -10.715623,0.24254 -5.893593,0 -10.715625,-0.0582 -10.715625,-0.12927 z m 32.024418,-7.79679 c 2.88803,-4.35933 5.38116,-8.16933 5.54029,-8.46666 0.28525,-0.533 0.46972,-0.54062 13.0967,-0.54062 7.44107,0 12.86993,0.10124 12.95669,0.24162 0.0821,0.13288 -2.2028,3.9366 -5.07762,8.4527 l -5.22694,8.21108 -2.41301,0.014 -2.41301,0.014 -1.54131,-2.44739 c -3.3378,-5.29996 -8.01005,-12.26338 -8.55386,-12.74846 -0.49694,-0.44327 -0.62263,-0.46092 -0.94257,-0.1323 -0.41625,0.42755 -1.99961,3.12292 -5.58493,9.50732 -2.98871,5.322 -3.3609,5.82083 -4.34303,5.82083 -0.72122,0 -0.55792,-0.28745 4.5026,-7.92605 z m 33.88442,-7.11221 c -0.45174,-0.70397 -0.82134,-1.41498 -0.82134,-1.58003 0,-0.3535 24.80551,-0.41787 25.37508,-0.0659 0.26335,0.16276 0.17554,0.46355 -0.38071,1.30411 -0.84967,1.28393 -1.10395,1.42723 -0.51639,0.29103 0.22797,-0.44084 0.34928,-0.90703 0.26958,-1.03598 -0.0802,-0.12981 -5.17146,-0.2426 -11.40651,-0.2527 -6.19389,-0.01 -11.37751,-0.0899 -11.51917,-0.17743 -0.474,-0.29295 -1.04269,0.42312 -0.75821,0.95468 0.36984,0.69104 0.79297,1.84211 0.67716,1.84211 -0.054,0 -0.46776,-0.57597 -0.91949,-1.27993 z m -83.803755,-4.08401 c -0.668162,-1.05165 -1.528818,-2.40965 -1.912567,-3.01777 -0.841533,-1.33357 -5.881894,-9.18562 -8.152045,-12.69955 -1.037365,-1.60572 -1.573829,-2.68614 -1.470015,-2.96057 0.178062,-0.47069 6.713004,-10.37782 9.334292,-14.151 1.128802,-1.62484 1.711322,-2.25735 1.902706,-2.06596 0.298841,0.29884 -0.32184,1.90325 -1.066163,2.75593 -0.489976,0.56131 -0.74282,1.00025 -2.246968,3.90078 -1.865096,3.59657 -2.417644,4.49341 -2.769844,4.49573 -0.181901,0.001 -0.330729,0.28379 -0.330729,0.62796 0,0.34418 -0.224925,0.91173 -0.499835,1.26122 -0.27491,0.34949 -0.681805,1.07095 -0.904214,1.60325 -0.370147,0.88589 -0.36703,0.98241 0.03681,1.14024 0.242658,0.0948 5.471584,0.24138 11.619839,0.32566 6.148255,0.0843 11.178646,0.21206 11.178646,0.28395 0,0.3395 -12.874374,20.16837 -13.168686,20.28217 -0.201673,0.078 -0.822915,-0.6357 -1.551231,-1.78204 z m 135.469965,0.99832 c -0.16325,-0.43656 -2.93145,-4.87495 -6.15156,-9.86309 -3.2201,-4.98814 -5.85474,-9.19898 -5.85474,-9.35742 0,-0.16963 0.24478,-0.22249 0.59532,-0.12855 0.32742,0.0877 0.98929,0.16117 1.47082,0.16316 0.52728,0.002 0.80914,0.111 0.70864,0.27361 -0.0918,0.1485 0.14501,0.64065 0.5262,1.09366 0.38119,0.45301 0.91283,1.25425 1.18143,1.78052 0.2686,0.52627 0.73916,1.18367 1.04569,1.46089 0.30653,0.27721 0.55732,0.71456 0.55732,0.97188 0,0.25733 0.29766,0.82161 0.66146,1.25396 0.3638,0.43236 0.66146,0.90776 0.66146,1.05645 0,0.14869 0.47625,0.78108 1.05833,1.40531 0.58208,0.62423 1.06744,1.25929 1.07858,1.41125 0.0655,0.89346 0.30066,1.33586 1.14738,2.15819 0.51929,0.50433 1.02121,1.23971 1.11538,1.63419 0.0942,0.39448 0.27907,0.85478 0.41089,1.02289 0.13183,0.1681 0.2047,1.23967 0.16196,2.38125 -0.0701,1.87274 -0.10674,1.99802 -0.37456,1.28185 z m -92.25162,-17.92258 c -0.8334,-1.19574 -0.90358,-1.40469 -0.51091,-1.52135 0.73984,-0.21981 25.45832,-0.002 25.45832,0.22392 0,0.11388 -0.42554,0.7042 -0.94565,1.31183 -0.74702,0.87272 -1.0414,1.05352 -1.40154,0.86078 -0.74239,-0.39731 -20.73486,-0.22468 -20.86992,0.18021 -0.21733,0.6515 -0.77971,0.30847 -1.7303,-1.05539 z m -95.172245,-2.35588 c -0.0026,-0.37143 0.970967,-0.49133 3.989206,-0.49133 2.571536,0 3.15336,-0.0705 3.15336,-0.38188 0,-0.48579 -1.011751,-1.20305 -1.712517,-1.21404 -0.513739,-0.008 -0.515961,-0.0239 -0.05251,-0.37519 0.523554,-0.3968 0.347203,-1.04328 -0.46949,-1.72107 -0.226226,-0.18775 -0.41132,-0.60063 -0.41132,-0.91751 0,-0.31688 -0.140321,-0.71647 -0.311825,-0.88797 -0.171503,-0.1715 -0.567217,-0.82039 -0.879364,-1.44198 -0.338839,-0.67474 -0.780126,-1.16167 -1.095087,-1.20837 -0.381236,-0.0565 -0.595977,-0.38674 -0.774282,-1.19063 -0.167673,-0.75596 -0.437491,-1.1961 -0.842046,-1.37358 -0.327422,-0.14365 -0.595313,-0.41857 -0.595313,-0.61093 0,-0.19236 0.107156,-0.28352 0.238125,-0.20258 0.130969,0.0809 0.238125,-0.26922 0.238125,-0.77814 0,-0.50891 -0.09841,-0.9253 -0.2187,-0.9253 -0.120285,0 -0.227655,-1.43591 -0.2386,-3.19091 -0.0129,-2.06853 0.07333,-3.13329 0.245158,-3.02709 0.145782,0.0901 0.265059,0.27397 0.265059,0.4086 0,0.13464 2.753394,4.50316 6.118653,9.70783 3.36526,5.20467 6.16901,9.59373 6.230556,9.75347 0.07954,0.20644 -1.766253,0.28296 -6.382053,0.26458 -3.571675,-0.0142 -6.494488,-0.10241 -6.495139,-0.19598 z m 67.922346,0.11947 c -0.142369,-0.24411 12.133416,-19.2172 12.521018,-19.35212 0.484859,-0.16878 0.246975,0.43437 -0.779452,1.97627 -0.568053,0.85333 -1.821469,3.09431 -2.785367,4.97995 -0.963901,1.88565 -1.841008,3.49299 -1.949127,3.57187 -0.108119,0.0789 -0.343868,0.44109 -0.523886,0.80489 -1.000688,2.02231 -2.566757,4.65825 -2.876613,4.8418 -0.196451,0.11637 -0.357185,0.48188 -0.357185,0.81224 0,0.8339 -1.286769,2.18174 -2.289916,2.39859 -0.459089,0.0992 -0.890852,0.0842 -0.959472,-0.0335 z m 78.721789,0.008 c -0.1819,-0.0734 -0.33073,-0.3219 -0.33073,-0.55222 0,-0.36542 -1.33107,-2.66874 -3.0331,-5.24858 -0.29633,-0.44915 -1.55081,-2.39125 -2.78774,-4.31578 -1.23692,-1.92452 -3.11216,-4.7986 -4.16718,-6.38684 -1.05503,-1.58824 -1.91823,-3.02268 -1.91823,-3.18765 0,-0.29445 2.01671,2.68283 4.48809,6.62577 0.688,1.09765 2.79425,4.37699 4.68056,7.2874 1.88631,2.91042 3.51909,5.4405 3.62841,5.6224 0.20407,0.33958 0.0216,0.39023 -0.56008,0.1555 z M 62.413119,119.58573 c -0.214281,-0.34672 0.265522,-1.36847 0.642614,-1.36847 0.366795,0 0.31432,0.61187 -0.101213,1.18014 -0.242171,0.33118 -0.415785,0.39158 -0.541401,0.18833 z m 1.252603,-2.28005 c 0.09595,-0.25004 0.174453,-0.56394 0.174453,-0.69756 0,-0.13362 0.127344,-0.24294 0.282985,-0.24294 0.41125,0 0.181849,1.12676 -0.259,1.27215 -0.261721,0.0863 -0.320882,-0.0126 -0.198438,-0.33165 z m 108.264308,-1.72202 c -0.0864,-0.13985 0.60769,-1.42917 1.54251,-2.86515 0.93481,-1.43597 2.8006,-4.32831 4.14619,-6.42741 3.63405,-5.66907 7.18752,-11.09259 7.26781,-11.09259 0.0389,0 0.37586,0.625078 0.74883,1.389063 0.73442,1.504373 0.81412,3.182691 0.15767,3.319915 -0.3918,0.0819 -1.47784,2.124402 -1.35017,2.539252 0.0401,0.13022 -0.20407,0.54694 -0.54253,0.92604 -1.16816,1.3084 -2.20181,2.81029 -2.84162,4.12886 -0.35306,0.7276 -0.88154,1.5209 -1.17441,1.76289 -0.37933,0.31343 -0.51447,0.70732 -0.46987,1.36955 0.0518,0.76932 -0.10965,1.09701 -0.93656,1.90076 -0.5576,0.54198 -0.96561,1.17581 -0.92325,1.43421 0.10027,0.61157 -0.39785,0.9875 -1.53112,1.15554 -0.89425,0.1326 -2.15196,0.35645 -3.35722,0.59753 -0.31851,0.0637 -0.64982,10e-4 -0.73626,-0.13846 z M 84.653925,105.21382 C 81.185603,99.811127 78.2856,95.228424 78.209474,95.03004 c -0.115705,-0.301517 1.989778,-0.360696 12.832837,-0.360696 7.134188,0 13.159589,0.07227 13.389769,0.160599 0.23018,0.08833 0.41851,0.265308 0.41851,0.393285 0,0.127976 0.75669,1.395161 1.68153,2.815963 0.92484,1.420802 2.73047,4.250149 4.01251,6.287449 1.28204,2.03729 3.32333,5.22607 4.53618,7.08618 1.21286,1.86011 2.2052,3.43768 2.2052,3.50573 0,0.068 -5.92336,0.12251 -13.16302,0.12104 l -13.163023,-0.003 -6.306042,-9.82308 z M 22.036008,94.523175 c -0.218281,-0.04663 -0.962422,-0.159179 -1.653646,-0.250103 -1.084171,-0.142613 -1.256771,-0.248304 -1.256771,-0.769559 0,-0.33233 -0.238125,-0.819738 -0.529167,-1.083128 -0.291041,-0.26339 -0.529166,-0.610854 -0.529166,-0.772144 0,-0.161287 -0.416719,-0.912045 -0.926042,-1.668346 -0.509323,-0.756301 -0.926042,-1.461413 -0.926042,-1.566915 0,-0.105503 -0.221841,-0.437621 -0.49298,-0.738042 -0.27114,-0.300421 -0.877168,-1.260594 -1.346729,-2.133719 -0.469561,-0.873125 -1.021625,-1.775468 -1.22681,-2.005209 -0.205185,-0.22974 -0.373064,-0.543468 -0.373064,-0.697174 0,-0.153707 -0.297656,-0.474498 -0.661458,-0.71287 -0.363802,-0.238373 -0.661459,-0.596251 -0.661459,-0.795287 0,-0.199035 -0.23551,-0.880899 -0.523356,-1.515254 -0.391531,-0.862858 -0.524819,-1.736509 -0.529166,-3.468477 -0.0052,-2.085331 0.242109,-2.900485 0.598382,-1.972053 0.153306,0.39951 11.060657,17.286329 12.147062,18.806149 0.403078,0.563883 0.668477,1.129429 0.589776,1.256771 -0.138228,0.223655 -0.878052,0.260818 -1.699364,0.08536 z m 84.737852,-0.301768 c 0.25743,-0.06708 0.61462,-0.06267 0.79375,0.0098 0.17913,0.07248 -0.0315,0.127362 -0.46806,0.12197 -0.43656,-0.0054 -0.58312,-0.06469 -0.32569,-0.131773 z m 25.03585,-0.292783 c 0.31015,-0.579522 12.45784,-19.447323 12.63728,-19.628244 0.17199,-0.1734 0.85696,0.763942 1.78532,2.443089 l 0.76817,1.389416 -0.69427,-0.634146 c -0.56768,-0.518519 -0.76618,-0.574466 -1.08866,-0.306836 -0.21691,0.180021 -0.47281,0.584449 -0.56866,0.89873 -0.15924,0.522121 -3.00554,5.481078 -4.04863,7.053711 -0.2413,0.363802 -0.72846,1.316302 -1.08259,2.116666 -0.35413,0.800365 -1.03628,2.006942 -1.51589,2.681283 -0.47961,0.674338 -0.87202,1.369935 -0.87202,1.545767 0,0.175831 -0.23813,0.622422 -0.52917,0.99242 -0.29104,0.369999 -0.52916,0.878613 -0.52916,1.130247 0,0.484185 -1.36025,0.794033 -3.48583,0.794033 -0.91045,0 -1.00098,-0.05555 -0.77589,-0.476136 z m 53.61912,0.268518 c -0.0413,-0.04143 0.65336,-1.181973 1.54366,-2.534542 2.20153,-3.344616 3.47016,-5.336662 5.58337,-8.767215 2.59627,-4.21474 4.69943,-7.501381 5.22083,-8.158657 0.43135,-0.543764 0.45465,-0.06638 0.4628,9.481574 l 0.009,10.054167 h -6.37208 c -3.50465,0 -6.40587,-0.0339 -6.44715,-0.07533 z M 60.400592,77.868302 c 0,-0.232825 -0.246076,-0.400168 -0.595313,-0.404842 -5.740521,-0.07682 -18.531168,-0.0037 -18.641417,0.106501 -0.289997,0.289998 -1.070629,-0.360493 -2.152973,-1.794046 -0.604933,-0.801231 -1.099918,-1.551188 -1.09996,-1.666573 -7.4e-5,-0.19677 25.424731,-0.136337 25.625192,0.06091 0.134851,0.132687 -2.701525,4.081079 -2.937092,4.088595 -0.10914,0.0035 -0.198437,-0.172263 -0.198437,-0.390545 z M 171.90822,74.273373 c -0.51069,-0.826318 0.45493,-0.903174 13.00726,-1.035279 l 12.57006,-0.132292 -1.80133,-2.848757 c -0.99073,-1.566816 -3.18117,-5.019628 -4.86764,-7.672916 -1.68648,-2.653288 -3.14374,-5.038992 -3.23836,-5.301564 -0.15263,-0.423535 -0.0308,-0.468318 1.0799,-0.396875 1.37434,0.0884 1.06227,-0.252051 3.8329,4.18157 0.50016,0.800365 1.13701,1.797435 1.41521,2.215712 0.27821,0.418277 0.80349,1.207856 1.16729,1.75462 0.3638,0.546764 1.08659,1.633287 1.60619,2.414496 1.22062,1.835194 1.56885,2.878793 1.56863,4.701008 l -1.8e-4,1.481873 h -12.24873 c -11.21997,0 -12.30805,0.03889 -12.95509,0.463021 -0.82915,0.543505 -0.90168,0.554701 -1.13611,0.175383 z M 32.761252,66.177893 c -2.580389,-4.047775 -5.042762,-7.806075 -5.47194,-8.351778 l -0.780323,-0.992188 h 10.863703 10.863705 l -0.628185,0.992188 c -5.281493,8.341869 -9.740812,15.292211 -9.941885,15.495528 -0.117404,0.118713 -2.324687,-3.095975 -4.905075,-7.14375 z m 57.733636,6.370704 C 87.506099,67.826578 81.385522,58.385276 80.864883,57.693823 l -0.64747,-0.859896 h 13.396971 c 10.402636,0 13.372996,0.07193 13.289696,0.32184 -0.059,0.177012 0.48324,1.27834 1.20498,2.447396 3.0697,4.972167 4.55503,7.338028 6.52542,10.393785 l 2.08993,3.241146 -10.23639,0.0014 c -5.63001,7.41e-4 -11.384926,0.07743 -12.7887,0.170399 l -2.552311,0.16903 -0.652121,-1.030294 z m 55.101542,0.709464 c 0,-0.191232 3.80163,-6.187218 8.05069,-12.697636 0.98921,-1.515687 1.82556,-2.944437 1.85855,-3.175 0.0636,-0.44442 1.10222,-0.648835 2.55127,-0.502116 l 0.81884,0.08291 -0.55426,0.635796 c -0.30484,0.349688 -0.55426,0.787037 -0.55426,0.971887 0,0.18485 -0.27988,0.672648 -0.62195,1.083996 -0.34208,0.411347 -1.07122,1.759935 -1.62031,2.996862 -0.5491,1.236927 -1.26731,2.546615 -1.59603,2.910417 -0.32872,0.363802 -0.84217,1.225021 -1.14099,1.91382 -0.29882,0.688799 -0.84854,1.652537 -1.2216,2.141641 -0.37306,0.489104 -0.67829,1.003132 -0.67829,1.142285 0,0.659295 -0.73982,1.705091 -1.4552,2.057053 -0.87214,0.429079 -3.83646,0.767575 -3.83646,0.438085 z"
         id="path93"
         inkscape:connector-curvature="0" />
    </g>
  </g>
</svg>
